<?xml version="1.0" encoding="utf-8"?>
<!-- Generator: Adobe Illustrator 15.0.2, SVG Export Plug-In . SVG Version: 6.00 Build 0)  -->
<!DOCTYPE svg PUBLIC "-//W3C//DTD SVG 1.1//EN" "http://www.w3.org/Graphics/SVG/1.1/DTD/svg11.dtd">
<svg version="1.1" id="Layer_1" xmlns="http://www.w3.org/2000/svg" xmlns:xlink="http://www.w3.org/1999/xlink" x="0px" y="0px"
	 width="51.246px" height="78.667px" viewBox="0 0 51.246 78.667" enable-background="new 0 0 51.246 78.667" xml:space="preserve">
<path id="AL" inkscape:connector-curvature="0" fill="#3A53A4" stroke="#010101" stroke-width="0.9706" stroke-linejoin="round" d="
	M0.554,5.436l0.302,0.602l1.052,0.676l0.45,30.813l0.15,16.91l3.833,23.146l0.3-0.078l3.383,0.678l0.901-6.688l1.503,3.758
	l2.556,2.33l4.884-2.854l-0.376-0.375l-3.38-7.74l32.465-5.26l2.185-0.378v-0.073l-2.029-3.832l-0.146-5.484l-1.652-3.01
	l0.825-5.859l1.354-1.502l-5.562-9.92L33.479,0.633l-0.077-0.147L31.147,0.86L19.127,2.813L13.11,3.565L0.485,5.295L0.554,5.436
	L0.554,5.436z"/>
</svg>
