<?xml version="1.0" encoding="utf-8"?>
<!-- Generator: Adobe Illustrator 15.0.2, SVG Export Plug-In . SVG Version: 6.00 Build 0)  -->
<!DOCTYPE svg PUBLIC "-//W3C//DTD SVG 1.1//EN" "http://www.w3.org/Graphics/SVG/1.1/DTD/svg11.dtd">
<svg version="1.1"
	 id="svg" inkscape:version="0.48.4 r9939" sodipodi:docname="us.svg" xmlns:dc="http://purl.org/dc/elements/1.1/" xmlns:cc="http://creativecommons.org/ns#" xmlns:rdf="http://www.w3.org/1999/02/22-rdf-syntax-ns#" xmlns:svg="http://www.w3.org/2000/svg" xmlns:sodipodi="http://sodipodi.sourceforge.net/DTD/sodipodi-0.dtd" xmlns:inkscape="http://www.inkscape.org/namespaces/inkscape"
	 xmlns="http://www.w3.org/2000/svg" xmlns:xlink="http://www.w3.org/1999/xlink" x="0px" y="0px" width="700px" height="452.58px"
	 viewBox="224 68.21 700 452.58" enable-background="new 224 68.21 700 452.58" xml:space="preserve">
<sodipodi:namedview  id="namedview69" inkscape:pageopacity="0" inkscape:pageshadow="2" inkscape:window-width="1920" inkscape:window-height="1137" inkscape:window-x="1192" inkscape:window-y="118" inkscape:current-layer="svg2" pagecolor="#ffffff" bordercolor="#666666" borderopacity="1" objecttolerance="10" gridtolerance="10" guidetolerance="10" showgrid="false" inkscape:zoom="0.80893016" inkscape:cx="817.66365" inkscape:cy="409.3738" inkscape:window-maximized="1">
	</sodipodi:namedview>
<path id="MA" inkscape:connector-curvature="0" fill="#39B54A" stroke="#000000" stroke-width="0.9706" stroke-linejoin="round" d="
	M861.598,178.338L861.598,178.338h0.752l0.225,0.902l0.677,1.277l0,0l3.532-4.284l2.932,0.977l0.676-1.503l4.81-2.555l-2.028-3.983
	l0.525,2.555l-2.479,1.878l-2.78,0.226l-5.563-5.937l-2.479-3.757l2.479-2.63l-2.555-0.15l-1.052-2.48l-0.075-0.15l-4.283,4.66
	l-9.469,3.157l-3.08,0.977l0,0l-0.527,0.226l-4.284,1.277l-1.502,0.526l-1.728,0.527l-0.601,0.225v0.226l0.226,3.907l0.225,3.607
	l0.226,3.307l0.375,0.226l1.353-0.376l6.088-1.804l0.15,0.375l10.821-4.133l0.075,0.15l0.978-0.375l3.457-1.353l3.307,3.983l0,0
	L861.598,178.338z"/>
<path id="MN" inkscape:connector-curvature="0" fill="#39B54A" stroke="#000000" stroke-width="0.9706" stroke-linejoin="round" d="
	M560.169,121.825l1.503,5.336l3.156,19.238l1.502,7.665l0.451,6.764l1.729,4.058l0.375,3.457l0.301,1.127l-0.075,0.226l-3.007,4.96
	l1.954,3.307l3.758,26.453l0.15,3.457l3.758-0.226l14.805-0.826l36.974-3.082l3.683-0.375v-0.376l-1.052-5.786l-4.584-2.33
	l-3.607-3.757l-5.711-3.457l-1.804-0.15l-2.781-2.104l0.752-10.371l-2.629-2.405l0.901-4.209l4.81-4.358l-0.826-9.019l1.729-1.954
	l0,0l5.86-6.162l6.689-8.567l2.555-1.804l4.51-2.179l4.733-3.532l-3.156,0.601l-1.879-1.428l-7.214,0.978l-1.127-1.353l-6.464,2.63
	l-5.185-2.179l-1.429-1.728l-4.134,0.3l-2.78-1.428l0.902-1.052l-3.533-1.127h-3.155l-5.036,2.18l-0.978-1.503l-7.965-1.127
	l-2.706-6.763l-0.301-2.029l-3.456-0.977l0.3,5.787l-9.168,0.677l-11.348,0.451L560.169,121.825L560.169,121.825z"/>
<path id="MT" inkscape:connector-curvature="0" fill="#F7931E" stroke="#000000" stroke-width="0.9706" stroke-linejoin="round" d="
	M488.25,121.149l-24.875-1.653l-18.112-1.728l-18.036-2.104l-11.198-1.502l-17.885-2.781l-8.944-1.503l-19.989-3.833l-2.104-0.451
	l-3.232,15.331l1.428,2.78l1.127,4.284l-0.676,0.601l1.427,3.908l1.953,1.653l5.562,9.319l0.526,1.578l2.255-0.15l-2.63,12.325
	l-1.052,0.3l-1.428,4.134l7.439,0.526l0.601,3.457l4.208,10.296l0.752,0.601l2.93,6.012l0.752-0.601l6.238-0.075l7.891,0.826
	l1.953-2.555l2.331,4.209l0.45,0.225l0.075-0.451l1.052-7.365l25.701,3.157l20.516,1.954l10.823,0.902l19.313,1.127l0.978,0.075
	h0.225l0.075-1.053l0.226-5.185l0.3-6.839l0.076-1.729l0.15-3.005l1.203-23.597l0.978-18.337l0.075-3.005L488.25,121.149
	L488.25,121.149z"/>
<path id="ND" inkscape:connector-curvature="0" fill="#F7931E" stroke="#000000" stroke-width="0.9706" stroke-linejoin="round" d="
	M558.591,121.825l-22.695,0.451l-15.856-0.075l-13.602-0.3l-15.932-0.601l-0.826-0.075l-0.075,3.006l-0.978,18.337l-1.203,23.598
	l-0.149,3.005l2.931,0.15l33.142,0.902l30.586-0.226l12.7-0.375l2.556-0.151l-0.302-1.127l-0.375-3.457l-1.729-4.058l-0.451-6.764
	l-1.502-7.666l-3.156-19.238l-1.503-5.336h-1.58V121.825z"/>
<path id="HI" inkscape:connector-curvature="0" fill="#754C24" stroke="#000000" stroke-width="0.9706" stroke-linejoin="round" d="
	M450.073,463.384l-2.33-1.729l-2.029,0.527l0.451,4.208l-2.781,3.457l2.405,5.486l0.676,5.636l2.781,1.805l1.728-2.781l3.082-2.255
	l3.757-0.977l4.134-3.532l-4.058-3.457l-0.076-2.104L450.073,463.384L450.073,463.384z M436.396,457.297l-1.127-0.977l-1.052,1.428
	L436.396,457.297L436.396,457.297z M430.759,454.065l0.301-2.78l-1.428-0.226L430.759,454.065L430.759,454.065z M435.494,449.481
	l-1.277,0.602l0.902,2.854l1.953,0.15l0.601,2.479l2.104,0.902l4.661-2.18l-4.359-3.606L435.494,449.481L435.494,449.481z
	 M425.875,446.399l-0.677,2.029l3.232-0.074l3.006,0.751l-1.579-2.479L425.875,446.399L425.875,446.399z M416.406,440.463
	l-1.729-1.652l-3.307,2.555l2.104,3.909l1.503-1.579l4.283,0.902l-0.375-1.804L416.406,440.463L416.406,440.463z M394.688,430.317
	l-5.262,1.955l-0.526,1.427l2.104,1.503l2.931,0.752l2.104-4.134L394.688,430.317L394.688,430.317z"/>
<path id="ID" inkscape:connector-curvature="0" fill="#F7931E" stroke="#000000" stroke-width="0.9706" stroke-linejoin="round" d="
	M367.032,105.592l-6.688-1.353l-2.179-0.526l-0.978-0.225l-8.718,39.229l0.375,3.231l-0.3,3.382l0.15,0.751v0.075l0.075,1.428
	l2.555,2.781l-3.683,9.243l-7.816,10.221l-0.225,1.878l2.029,4.81l-7.139,29.609l-0.301,1.579l2.104,0.45l21.268,4.209l8.492,1.579
	l2.179,0.375l2.104,0.375l10.822,1.728l19.389,2.931l2.18,0.301l0.3-2.48l0.677-4.886l2.555-19.539l1.353-9.694l0.301-2.48
	l-0.451-0.225l-2.33-4.209l-1.953,2.555l-7.891-0.827l-6.238,0.075l-0.752,0.601l-2.93-6.012l-0.752-0.601l-4.208-10.296
	l-0.601-3.458l-7.439-0.525l1.427-4.134l1.052-0.3l2.631-12.324l-2.255,0.15l-0.526-1.578l-5.562-9.318l-1.953-1.653l-1.429-3.908
	l0.677-0.601l-1.126-4.284l-1.428-2.78l3.23-15.331L367.032,105.592L367.032,105.592z"/>
<path id="WA" inkscape:connector-curvature="0" fill="#F7931E" stroke="#000000" stroke-width="0.9706" stroke-linejoin="round" d="
	M283.314,130.393l2.706,2.931l-0.452,5.636l0.527,1.428l4.058,2.18l11.422,1.052l0.451,1.353l5.412,0.075l5.11,0.677l8.342-0.902
	l4.133,0.676l1.127-0.526l21.117,4.81l1.428,0.3l-0.15-0.751l0.3-3.382l-0.375-3.232l8.717-39.229l-1.202-0.225l-17.586-4.134
	l-15.331-3.908l-17.359-4.81l-5.185-1.277l1.203,6.538l-1.127,2.104l-2.029-1.052l1.954,9.093l-2.104,3.007l-0.977,2.78v2.855
	l-4.434,3.082l-1.879-1.203l-1.803,0.902l3.307-4.284l-0.827,2.931l1.879-2.029l1.502,0.301l-0.451-3.758l0.977,0.15l2.029-4.509
	l-0.677-0.677l-2.63,3.382l-1.728,0.075l1.878-2.104l2.105-0.526l-0.751-3.833l-2.104-0.526l-1.053-1.804l-1.277,0.677l-6.914-3.007
	l-6.087-4.734l-1.653,4.584l-0.15,1.953l1.278,3.457l-0.827,11.197l-0.601,1.729l3.382,0.301l-3.382,2.405l1.804,0.902l-1.428,4.81
	l-0.677-3.757l-1.277,4.359l1.729,2.104l1.878-0.15l2.255,1.353l1.127,2.179h1.352V130.393L283.314,130.393z"/>
<path id="AZ" inkscape:connector-curvature="0" fill="#F7931E" stroke="#000000" stroke-width="0.9706" stroke-linejoin="round" d="
	M415.879,304.591l-25.326-3.156l-13.602-1.954l-19.389-3.08l-1.954-0.301v0.149l-3.307,14.579l-1.729-0.075l-2.63-2.329
	l-3.307,2.779l-0.075,11.949l-1.203,2.556v0.226v0.076l-0.15,1.879l2.63,7.063l2.33,3.156l-4.208,2.48l-1.653,3.081l-2.706,6.613
	l-1.353,0.301l-0.075,5.484l2.33,1.729l-1.203,3.308l-2.706,0.148l0,0l-1.578,2.932l5.41,3.382l10.221,5.711l31.563,16.759
	l26.754,3.308h0.302l2.104-22.17l0.526-5.486l5.636-58.166l0.301-2.705L415.879,304.591L415.879,304.591z"/>
<path id="CA" inkscape:connector-curvature="0" fill="#F7931E" stroke="#000000" stroke-width="0.9706" stroke-linejoin="round" d="
	M300.373,203.889l-2.931-0.751l-32.165-8.868l-11.949-3.607v0.301l-0.677,7.439l-3.156,8.792l-5.26,6.538l-0.15,3.307l2.555,4.584
	l1.277,6.012l-1.804,4.885l0.301,4.885l-0.902,2.029l3.081,6.689l1.953,2.555l-0.15,7.29l4.659,4.434l2.706-4.51l2.067,1.644
	l-2.067,0.386l-0.075,3.833l0.826,4.81l-2.255-2.179l-1.277-2.932l-0.375,4.059l1.052,8.041l4.209,5.185l-2.781,3.607l0.452,4.584
	l3.006,4.659l5.26,14.43l1.654,0.901l-0.526,9.995l0.827,1.202l11.273,4.058l3.457,3.683l1.203,2.405l3.307,1.878l3.607,0.676
	l1.503,4.135l3.007,1.428l4.509,5.336l4.209,6.989l-0.3,6.464l2.33,3.08l30.737,3.005l0,0l2.705-0.148l1.203-3.308l-2.33-1.729
	l0.075-5.484l1.353-0.301l2.706-6.613l1.653-3.081l4.208-2.48l-2.33-3.156l-2.63-7.063l0.15-1.879v-0.076l-1.954-2.629l-6.012-8.043
	l-11.648-16.383l-16.232-23.295l-9.169-12.701l-8.867-12.775l10.221-43.362L300.373,203.889L300.373,203.889z"/>
<path id="CO" inkscape:connector-curvature="0" fill="#F7931E" stroke="#000000" stroke-width="0.9706" stroke-linejoin="round" d="
	M506.812,262.506l0.302-14.729l-3.607-0.15l-18.338-0.677l-1.803-0.075l-1.502-0.075l-22.319-1.428l-14.88-1.202l-18.563-1.804
	l-1.804-0.226l-0.226,1.954l-4.057,39.153l-1.429,13.677l-0.6,5.937l-0.15,1.953l2.33,0.227l37.876,3.307l16.684,1.053l16.608,0.751
	l2.404,0.075l1.502,0.075l3.157,0.076l1.502,0.075l4.735,0.15h1.202V309.1l0.827-39.754l0.074-4.434v-1.428L506.812,262.506
	L506.812,262.506z"/>
<path id="NV" inkscape:connector-curvature="0" fill="#F7931E" stroke="#000000" stroke-width="0.9706" stroke-linejoin="round" d="
	M355.985,293.694l7.816-48.622l3.983-24.349l0.451-2.405l-2.179-0.375l-8.492-1.579l-21.268-4.209l-2.104-0.452l-2.104-0.45
	l-10.596-2.33l-19.013-4.509l-2.105-0.526l-0.677,2.855l-10.221,43.362l8.868,12.775l9.168,12.7l16.233,23.296l11.648,16.383
	l6.012,8.043l1.953,2.629v-0.226l1.203-2.556l0.075-11.949l3.307-2.779l2.63,2.328l1.729,0.076l3.307-14.579v-0.15L355.985,293.694
	L355.985,293.694z"/>
<path id="NM" inkscape:connector-curvature="0" fill="#F7931E" stroke="#000000" stroke-width="0.9706" stroke-linejoin="round" d="
	M493.51,316.089l0.075-1.953l0.076-1.954l0.076-1.953l-2.404-0.075l-16.608-0.752l-16.684-1.052l-37.876-3.307l-2.33-0.227
	l-0.301,2.706l-5.636,58.165l-0.526,5.486l-2.105,22.171l0.302,0.075l10.371,0.978l0.978-5.262l1.879-1.502l21.042,1.879h0.15
	l-1.879-3.683l9.543,0.676l23.824,1.354l14.88,0.676l2.555-70.49l0.527,0.074L493.51,316.089L493.51,316.089z"/>
<path id="OR" inkscape:connector-curvature="0" fill="#F7931E" stroke="#000000" stroke-width="0.9706" stroke-linejoin="round" d="
	M253.329,190.663l11.949,3.607l32.165,8.868l2.931,0.75l2.104,0.526l19.013,4.509l10.596,2.33l2.104,0.451l0.3-1.579l7.14-29.61
	l-2.029-4.81l0.225-1.878l7.816-10.221l3.683-9.243l-2.555-2.781l-0.075-1.428v-0.075l-1.428-0.3l-21.118-4.81l-1.127,0.526
	l-4.133-0.676l-8.342,0.902l-5.11-0.677l-5.411-0.075l-0.452-1.353l-11.423-1.052l-4.058-2.18l-0.526-1.427l0.451-5.636
	l-2.705-2.931l-0.227,0.075l-0.525,0.375l-3.758-1.954l-2.255,0.677l-1.502-0.752l-1.578,6.464l-1.052,1.804l-4.659,11.347
	l-1.353,6.238l-0.827,0.075l-4.358,10.371l-2.932,4.434l-1.052,0.752l-2.706,5.26l-0.526,5.562l-1.653,4.959l0.977,4.509
	L253.329,190.663L253.329,190.663z"/>
<path id="UT" inkscape:connector-curvature="0" fill="#F7931E" stroke="#000000" stroke-width="0.9706" stroke-linejoin="round" d="
	M400.549,223.353l-19.389-2.93l-10.822-1.728l-2.104-0.375l-0.451,2.405l-3.983,24.349l-7.815,48.622l-0.376,2.404l1.954,0.302
	l19.389,3.081l13.602,1.953l25.326,3.155l1.955,0.228l0.149-1.955l0.601-5.937l1.429-13.677l4.057-39.153l0.226-1.954l-1.501-0.151
	l-19.164-2.329l-2.931-0.375l1.879-14.654l0.15-0.977L400.549,223.353L400.549,223.353z"/>
<path id="WY" inkscape:connector-curvature="0" fill="#F7931E" stroke="#000000" stroke-width="0.9706" stroke-linejoin="round" d="
	M484.943,213.433l0.601-11.724l0.751-15.781l0.077-1.954l-0.978-0.075l-19.313-1.127l-10.823-0.902l-20.516-1.954l-25.701-3.157
	l-1.052,7.365l-0.075,0.452l-0.302,2.48l-1.353,9.694l-2.555,19.539l-0.677,4.885l-0.3,2.48l-0.15,0.977l-1.879,14.654l2.931,0.375
	l19.164,2.329l1.501,0.151l1.804,0.226l18.563,1.804l14.88,1.202l22.319,1.428l1.502,0.075l0.075-1.954l0.375-7.891l0.677-13.752
	l0.302-5.862l0.075-1.953L484.943,213.433L484.943,213.433z"/>
<path id="AR" inkscape:connector-curvature="0" fill="#39B54A" stroke="#000000" stroke-width="0.9706" stroke-linejoin="round" d="
	M662.299,318.645l-8.117,1.202l3.308-5.261l-1.429-2.931l-28.632,2.781l-24.199,1.954l-3.532,0.225l0.451,2.104l2.93,15.182
	l0.077,3.381l0.825,20.44l0.076,3.383l0.226,0.075l1.127,1.202l4.509-0.149l0.451,6.613l0.149,1.878l2.33-0.226l7.14-0.526
	l28.332-2.629h0.149l-0.075-1.653l0.752-0.526l-1.353-2.556l2.855-12.023l-1.128-1.354l4.284-4.733l-0.302-4.059l3.156-5.26v-0.076
	l-0.148-0.15l2.704-2.479l-0.752-3.006l2.104-3.307l-0.45-3.081l2.254-4.358v-0.076H662.299L662.299,318.645z"/>
<path id="IA" inkscape:connector-curvature="0" fill="#39B54A" stroke="#000000" stroke-width="0.9706" stroke-linejoin="round" d="
	M639.903,217.717l-4.134-2.179l-2.254-3.081l-0.751-4.434l0.601-2.029l-2.18-2.63l0,0l-3.683,0.375l-36.974,3.082l-14.806,0.826
	l-3.757,0.225l-1.578,0.075l1.277,8.342l-1.051,3.983l1.652,2.48v0.526l0.526,0.075l2.405,7.064l2.329,3.682l0.15,4.208l2.555,3.532
	l-0.45,1.503l2.329,9.469v0.226l0,0l15.406-0.451l16.458-1.428l16.157-2.029l3.683,3.232l0.15,0.15l0.676-0.301l-0.526-2.932
	l2.78-1.728l1.127-7.665l-1.127-0.526l0.677-3.908l3.381-0.677l3.759-2.705l1.654-4.734l0.074-2.405l-3.006-2.855l-0.901-1.804
	l-2.855-1.803l0.149-0.375L639.903,217.717L639.903,217.717z"/>
<path id="KS" inkscape:connector-curvature="0" fill="#39B54A" stroke="#000000" stroke-width="0.9706" stroke-linejoin="round" d="
	M599.172,306.771l-1.879-31.79l-3.381-1.954l-0.302-1.503l-2.705-2.405l2.63-3.23l-1.052-1.879l-1.954,0.075l-1.804-1.277
	l-0.751-0.601l-2.556,0.15l-27.73,1.052l-12.699,0.3h-25.251l-10.146-0.15l-2.855-0.075v1.428l-0.075,4.434l-0.827,39.754v1.504
	l3.231,0.075l17.437,0.226l40.806-0.602l29.083-1.352l2.855-0.227L599.172,306.771L599.172,306.771z"/>
<path id="MO" inkscape:connector-curvature="0" fill="#39B54A" stroke="#000000" stroke-width="0.9706" stroke-linejoin="round" d="
	M633.816,252.361l-3.683-3.231l-16.157,2.029l-16.458,1.428l-15.406,0.451l0,0l-0.075,0.451l1.879,3.607l1.729,1.203l2.029,3.607
	l0.301,0.3l0.751,0.601l1.804,1.277l1.954-0.075l1.052,1.879l-2.63,3.23l2.705,2.405l0.302,1.503l3.381,1.954l1.879,31.789
	l0.075,1.954l0.15,1.954l0.075,1.953l0.15,2.028l0.075,1.954l3.532-0.226l24.199-1.954l28.632-2.78l1.428,2.931l-3.307,5.261
	l8.116-1.202h0.074v-0.602l0.15-3.457l1.503-1.879l-0.451-2.104l-0.075-0.075l-0.075-0.076l0.301-0.977l0.451,0.15l0.226,0.601
	l-0.075,0.226v0.074v0.602l0.3,0.076l0.602-0.752v-0.075l0.075-0.226l1.954-1.202l0.3-0.151l0.677-6.162l-0.15-0.301l-0.226-0.074
	l-5.335-4.36l0.825-1.576l-1.502-4.285l-2.706-2.104l-5.109-2.254l-3.232-2.63l0.376-5.411l0.977-5.035l-5.409,0.301l-1.654-1.728
	l-0.752-3.457l-8.566-7.215l-2.404-6.688l0.601-3.308l0,0L633.816,252.361L633.816,252.361z"/>
<path id="NE" inkscape:connector-curvature="0" fill="#39B54A" stroke="#000000" stroke-width="0.9706" stroke-linejoin="round" d="
	M570.84,223.127l-2.329-2.33l-8.191-2.405l-2.631-0.075l-3.983,1.127l-4.733-3.006l-14.806,0.15l-21.566-0.226l-25.476-0.827
	l-2.255-0.075l-0.076,1.953l-0.301,5.862l-0.677,13.753l-0.375,7.891l-0.076,1.953l1.803,0.075l18.338,0.677l3.607,0.15
	l-0.302,14.729l-0.075,0.978l2.855,0.075l10.146,0.15h25.251l12.699-0.301l27.73-1.052l2.556-0.15l-0.301-0.3l-2.029-3.607
	l-1.729-1.202l-1.879-3.607l0.076-0.451v-0.226l-2.33-9.469l0.451-1.503l-2.556-3.533l-0.15-4.209l-2.329-3.682l-2.404-7.064
	l-0.527-0.075L570.84,223.127L570.84,223.127z"/>
<path id="OK" inkscape:connector-curvature="0" fill="#39B54A" stroke="#000000" stroke-width="0.9706" stroke-linejoin="round" d="
	M599.622,314.661l-0.148-2.028l-0.076-1.954l-0.15-1.954l-2.855,0.227l-29.082,1.352l-40.807,0.602l-17.437-0.226l-3.231-0.075
	h-1.202l-4.734-0.15l-1.503-0.075l-3.156-0.076l-1.502-0.075l-0.075,1.954l-0.076,1.953l-0.075,1.954l-0.075,2.028h0.451
	l18.186,0.451l19.239,0.226l0.225,25.701l1.354,4.51l3.006,2.854l3.231,0.15l0.676-1.353l4.435,4.06l5.787,0.599l1.052,1.203
	l2.104-0.978l5.261,2.48v1.428l1.953-0.074l2.029-1.728l3.758,2.403l3.532,1.277l2.405-3.307l7.664,3.607l2.855-2.331l2.331-0.9
	l1.878,0.45l7.064-2.028l3.758,1.578l3.383,2.179l2.93,0.526h0.075l-0.075-3.382l-0.826-20.44l-0.076-3.382l-2.93-15.18
	l-0.451-2.105L599.622,314.661L599.622,314.661z"/>
<path id="SD" inkscape:connector-curvature="0" fill="#F7931E" stroke="#000000" stroke-width="0.9706" stroke-linejoin="round" d="
	M566.632,169.621l-12.699,0.375l-30.587,0.225l-33.142-0.902l-2.931-0.15l-0.076,1.728l-0.301,6.839l-0.225,5.185l-0.075,1.053
	h-0.225l-0.076,1.953l-0.752,15.781l-0.601,11.724l-0.075,2.029l2.254,0.075l25.476,0.827l21.568,0.226l14.804-0.15l4.735,3.007
	l3.983-1.127l2.63,0.075l8.191,2.405l2.33,2.33l1.427,0.15v-0.526l-1.65-2.479l1.051-3.983l-1.277-8.341l1.579-0.076l-0.15-3.457
	l-3.758-26.453l-1.954-3.307l3.006-4.96l0.076-0.226L566.632,169.621L566.632,169.621z"/>
<path id="LA" inkscape:connector-curvature="0" fill="#39B54A" stroke="#000000" stroke-width="0.9706" stroke-linejoin="round" d="
	M644.639,423.104l1.126-1.428l-3.081-0.826l-1.353,1.127L644.639,423.104L644.639,423.104z M648.471,367.342h-0.149l-28.333,2.63
	l-7.139,0.526l-2.33,0.226l0.075,1.804l1.503,14.503l2.48,3.457l0.075,2.029l2.405,4.209l1.952,6.162l-0.677,3.457l-0.525,8.566
	l-1.127,2.781h0.148l0.228,1.954l-1.278,1.803l9.319-1.052l7.289,2.028l5.185,0.677l2.631-1.879l-1.429-1.879l4.81-1.503
	l-0.15,1.653l2.48-0.6l2.029,3.155l1.728-0.601l4.51,3.081l-2.781,0.977l6.388,1.879h2.405l1.427-1.729l3.081-1.652l2.18,3.156
	l1.502-2.855l-0.451-4.509l4.059,1.578l0.451,1.353l4.81,0.601l2.404,1.954l-0.301,1.577l3.382-3.155l-1.277-1.654l-5.636-1.428
	l-2.104-1.202l-0.076-2.255l2.33,0.301l1.804-3.683l-2.33-3.231l-1.277,3.081l-2.93-0.526l2.028-3.307l-1.353-0.376l-3.308,2.331
	l-4.733,0.301l-1.354-1.052l2.18-3.833l2.555-0.075l4.359,1.428l3.155,0.301l0,0l-1.728-2.179l-3.307-6.463l0.901-3.607
	l-25.927,2.855l0.978-0.978l-1.052-2.705l1.578-2.33l0.901-5.861l5.712-9.77l-2.781-3.382l0.15-2.479l-1.729-4.059v-0.526H648.471z"
	/>
<path id="TX" inkscape:connector-curvature="0" fill="#39B54A" stroke="#000000" stroke-width="0.9706" stroke-linejoin="round" d="
	M493.436,318.118l-0.527-0.075l-2.555,70.491l-14.88-0.676l-23.824-1.354l-9.544-0.676l1.879,3.682l0.076,0.076l8.116,8.115
	l4.66,5.486l6.162,4.585l4.358,7.965l1.653,8.342l3.533,2.33l2.78,3.08l3.984,1.43l5.787,3.682l2.63,0.977l3.606-3.607l1.127-3.832
	l1.878-3.683l5.862-2.329l2.254,1.127l6.538,0.525l5.937,3.684l4.059,0.752l-1.128,2.104l2.331,1.503l2.178,2.63l0.451,2.781
	l1.429,1.879l3.307,7.966l3.307,2.781l2.556,4.208l3.231,3.308l1.428,0.45l1.202,8.566l3.533,1.954l0.15,2.705l0.901-0.225
	l6.162,7.515l3.081,0.677l3.908,2.329h6.012l4.359,2.404l5.185-1.127l-2.329-2.179l-2.104-6.313l-0.826-5.485l-1.203-1.804
	l0.526-3.683l-1.578-0.15l-2.104-3.457l2.404,2.557l2.781-0.979l1.502-3.982l-3.006-4.059l4.509,0.526l2.104-3.231l-0.301-1.127
	l1.879-2.48l-0.45,2.18l2.103-1.653l-0.825-2.931l2.705,1.428l3.457-1.954l-3.381-3.531l2.104,0.825l3.908,0.226l5.111-1.128
	l5.711-3.832l3.457-2.855l0.525-2.104l2.105-2.179l-1.127-3.606l0.226-2.255l3.757-1.652l-0.3,3.982h2.254l-2.479,2.104l9.995-5.26
	l1.652-0.075l1.053-4.811h0.301l1.127-2.78l0.526-8.566l0.676-3.457l-1.952-6.162l-2.405-4.21l-0.075-2.029l-2.479-3.456
	l-1.504-14.504l-0.075-1.804l-0.15-1.879l-0.451-6.613l-4.508,0.15l-1.127-1.203l-0.226-0.075h-0.076l-2.931-0.526l-3.381-2.179
	l-3.759-1.578l-7.063,2.028l-1.879-0.45l-2.33,0.901l-2.855,2.331l-7.664-3.608l-2.405,3.307l-3.532-1.277l-3.759-2.403
	l-2.029,1.728l-1.953,0.074v-1.428l-5.26-2.48l-2.104,0.978l-1.052-1.202l-5.787-0.6l-4.435-4.059l-0.677,1.352l-3.231-0.149
	l-3.005-2.855l-1.353-4.51l-0.227-25.701l-19.239-0.225l-18.185-0.452L493.436,318.118L493.436,318.118z"/>
<path id="CT" inkscape:connector-curvature="0" fill="#39B54A" stroke="#000000" stroke-width="0.9706" stroke-linejoin="round" d="
	M853.181,175.633l-10.822,4.133l-0.149-0.375l-6.087,1.804l-1.354,0.375l0.151,0.752l2.854,11.047l0.901,1.127l-1.953,2.405
	l1.353,1.277l0,0l4.359-4.209l2.329-3.231l0.451,0.902l10.972-4.885l0.226-0.226l-0.074-1.804l-0.452-1.579l-2.329-6.538
	l-0.301-0.827L853.181,175.633L853.181,175.633z"/>
<path id="NH" inkscape:connector-curvature="0" fill="#39B54A" stroke="#000000" stroke-width="0.9706" stroke-linejoin="round" d="
	M843.035,123.479l-0.977,1.202l-1.127-0.225l-0.601,4.959v0.075l1.803,6.763l-0.149,1.353l-3.231,4.284l0.825,3.907v4.885
	l-0.6,4.509l3.381,12.324l0,0l0,0l3.081-0.977l9.468-3.157l4.284-4.659l0,0v-1.202l0.226-1.954l-0.526,0.225l-0.075-0.451
	l-4.734-5.787l-0.15-0.525L843.035,123.479L843.035,123.479z"/>
<path id="RI" inkscape:connector-curvature="0" fill="#39B54A" stroke="#000000" stroke-width="0.9706" stroke-linejoin="round" d="
	M853.256,175.783l0.302,0.827l2.329,6.538l0.451,1.579l0.075,1.804l0.15-0.226l3.606-2.855l-0.676-5.11l1.502-0.3l0,0l-3.306-3.983
	l-3.458,1.352L853.256,175.783L853.256,175.783z"/>
<path id="VT" inkscape:connector-curvature="0" fill="#39B54A" stroke="#000000" stroke-width="0.9706" stroke-linejoin="round" d="
	M842.359,167.517l-3.381-12.325l0.6-4.509v-4.885l-0.825-3.908l3.231-4.284l0.149-1.353l-1.803-6.763l-0.978,0.375l-4.134,1.502
	l-4.058,1.579l-9.318,3.382l-0.526,0.15l3.381,7.891l1.128,7.44l3.982,6.237l3.759,12.324l0.149-0.075l0.602-0.226l1.729-0.526
	l1.502-0.526l4.283-1.278L842.359,167.517L842.359,167.517z"/>
<path id="AL" inkscape:connector-curvature="0" fill="#0000FF" stroke="#000000" stroke-width="0.9706" stroke-linejoin="round" d="
	M683.866,331.646l0.302,0.601l1.052,0.677l0.45,30.812l0.15,16.909l3.833,23.147l0.3-0.077l3.383,0.677l0.901-6.688l1.503,3.758
	l2.556,2.331l4.884-2.856l-0.376-0.375l-3.38-7.74l32.465-5.261l2.18-0.376v-0.074l-2.029-3.833l-0.15-5.486l-1.653-3.007
	l0.825-5.861l1.354-1.502l-5.562-9.921l-10.07-30.661l-0.075-0.15l-2.255,0.375l-12.023,1.954l-6.013,0.752l-12.625,1.729
	L683.866,331.646L683.866,331.646z"/>
<path id="FL" inkscape:connector-curvature="0" fill="#0000FF" stroke="#000000" stroke-width="0.9706" stroke-linejoin="round" d="
	M803.807,423.104l-3.23-6.312l0.149-3.007l-9.694-11.799l-2.33-3.682l-3.081-6.239l-2.104-5.26l-1.653-1.879l-0.375-2.405
	l-0.076-0.074l-5.186-0.301l-2.027,1.578l-1.128,5.786l-1.052-2.705l-35.471,4.435l-2.556-3.984l0.076-0.074l0,0l-2.18,0.375
	l-32.465,5.261l3.381,7.74l0.226,0.075l-0.826,3.081l2.404-1.052l2.63-2.33l4.51-0.149l5.185-1.879l3.532,0.526l-0.826,1.276
	l6.464,2.18l5.562,2.705l1.276,3.007l4.134-0.902l9.769-7.967l3.607,0.15l14.729,11.123l3.006-0.602l3.156,4.209l0.602,6.688
	l-0.978,4.209l0.45,2.104l2.631,5.261l-1.203-4.133l3.381-0.076l0.302,3.007l-1.803,4.659l6.237,8.567l2.329,0.076l-1.953-2.631
	l2.404,0.301l1.428-0.901l-0.601,4.81l3.231,2.556l2.18,5.861l2.931,1.803l3.758,0.978l5.185,6.614l2.706,1.427l-3.607,0.227
	l1.653,1.878l5.937-1.953l2.931-1.653l2.706-9.469l-1.354-14.729l-0.301-1.502l-7.214-12.024L803.807,423.104z"/>
<path id="GA" inkscape:connector-curvature="0" fill="#0000FF" stroke="#000000" stroke-width="0.9706" stroke-linejoin="round" d="
	M748.271,320.523l-0.977,0.225l-2.856,0.601l-10.521,2.179l-0.978,0.226l-1.052,0.15l-5.861,1.128l-1.579,0.301l-6.388,1.202
	l-1.353,0.149l0.076,0.15l10.07,30.662l5.561,9.92l-1.353,1.502l-0.825,5.862l1.652,3.007l0.15,5.486l2.029,3.832v0.075
	l-0.076,0.075l2.556,3.983l35.471-4.435l1.052,2.705l1.127-5.786l2.029-1.578l5.186,0.301l0,0l-0.451-8.116l0.978-1.728
	l-0.526-3.232l1.053-3.08l1.577-1.729l-1.127-1.052l2.63-3.231h-0.076l-4.508-4.21l-6.163-8.791l-3.382-1.578l-14.503-12.174
	l-3.533-4.509l-6.839-2.856l-0.375-1.503L748.271,320.523L748.271,320.523L748.271,320.523z"/>
<path id="MS" inkscape:connector-curvature="0" fill="#39B54A" stroke="#000000" stroke-width="0.9706" stroke-linejoin="round" d="
	M656.662,335.103v0.076l-3.156,5.26l0.301,4.058l-4.283,4.734l1.127,1.354l-2.855,12.023l1.353,2.556l-0.751,0.526l0.075,1.653
	v0.525l1.729,4.059l-0.15,2.479l2.781,3.382l-5.711,9.77l-0.902,5.861l-1.578,2.33l1.051,2.705l-0.977,0.978l25.927-2.855
	l-0.901,3.607l3.307,6.463l1.729,2.179v-0.075l2.78-3.156l5.861-1.276l5.41,0.601l0.827-1.053v-0.074l-3.833-23.147l-0.15-16.909
	l-0.449-30.812l-1.053-0.677l-0.301-0.601h-0.15l-3.758,0.526l-6.613,0.901l-15.029,1.879L656.662,335.103L656.662,335.103z"/>
<path id="SC" inkscape:connector-curvature="0" fill="#0000FF" stroke="#000000" stroke-width="0.9706" stroke-linejoin="round" d="
	M748.271,320.523L748.271,320.523l-2.104,4.133l0.375,1.503l6.839,2.854l3.533,4.508l14.503,12.176l3.382,1.579l6.163,8.791
	l4.508,4.209l0,0l0.752-3.458l-1.202-3.306l3.231,2.405l1.804-1.43l-3.081-2.554l3.758-0.226l5.861-4.96l-0.676-1.277l3.607-2.781
	l-0.376-1.352l2.63-1.654l0.149-3.832l4.134-7.666l2.78-3.532l0.302-0.149l-16.76-10.598l-6.237,1.204l-8.492-0.302l-4.209-2.179
	l-24.95,7.891h-0.224V320.523z"/>
<path id="IL" inkscape:connector-curvature="0" fill="#39B54A" stroke="#000000" stroke-width="0.9706" stroke-linejoin="round" d="
	M639.828,218.093l-0.149,0.375l2.855,1.804l0.901,1.804l3.006,2.855l-0.074,2.405l-1.654,4.734l-3.759,2.706l-3.38,0.676
	l-0.677,3.908l1.126,0.525l-1.126,7.665l-2.782,1.728l0.527,2.931l-0.676,0.301l0,0l-0.602,3.307l2.404,6.688l8.567,7.214
	l0.752,3.457l1.653,1.728l5.41-0.3l-0.977,5.035l-0.375,5.412l3.231,2.63l5.109,2.255l2.705,2.104l1.504,4.285l-0.827,1.577
	l5.336,4.359l0.226,0.075l-0.451-0.451l1.503-3.533l5.787,1.578l1.428-1.652l-1.127-3.307l4.734-2.781l-1.277-1.804l1.127-2.555
	v-0.225l-0.301-0.075l0.076-6.689l1.653-1.203l2.855-6.688l-0.601-2.932l-1.879-3.532l1.051-3.982l-5.261-37.05l-0.751-0.826
	l-1.954-4.434l-1.578-1.654l-0.677-4.358v-0.15l-10.145,1.428l-6.088,0.751L639.828,218.093L639.828,218.093L639.828,218.093z"/>
<path id="IN" inkscape:connector-curvature="0" fill="#39B54A" stroke="#000000" stroke-width="0.9706" stroke-linejoin="round" d="
	M708.666,219.671l-11.498,2.029l-2.63,0.526l-9.318,1.503l-1.954,1.579l-2.931,1.353l-1.127-0.075l-1.353-0.676l-0.451-0.451
	l5.261,37.049l-1.052,3.983l1.879,3.532l0.602,2.931l-2.855,6.688l-1.654,1.202l-0.074,6.689l0.3,0.075l0.301-0.075l1.128-2.104
	h2.78l3.382-1.127l4.209,1.578l0.45-1.728l2.405-1.804l3.606,0.527l1.954-3.833l5.336,0.451l-0.075-2.18l4.733-6.237l-0.752-2.855
	l3.308-0.075l4.058-3.231l-0.978-3.683l0.15-0.15l-0.15-1.277l-4.509-26.603l-2.029-11.348l-0.225-1.202L708.666,219.671
	L708.666,219.671z"/>
<path id="KY" inkscape:connector-curvature="0" fill="#39B54A" stroke="#000000" stroke-width="0.9706" stroke-linejoin="round" d="
	M664.402,310.229l-0.225-0.602l-0.452-0.15l-0.3,0.977l0.075,0.076l0.826-0.076L664.402,310.229L664.402,310.229z M715.806,261.079
	l-0.15,0.15l0.978,3.683l-4.06,3.232l-3.306,0.075l0.751,2.856l-4.733,6.237l0.075,2.18l-5.336-0.452l-1.953,3.833l-3.607-0.526
	l-2.404,1.804l-0.451,1.728l-4.209-1.579l-3.382,1.127h-2.78l-1.128,2.104l-0.301,0.075v0.226l-1.127,2.555l1.277,1.804l-4.734,2.78
	l1.127,3.307l-1.427,1.652l-5.787-1.578l-1.503,3.533l0.45,0.451l0.15,0.3l-0.677,6.162l-0.3,0.151l-1.954,1.202l-0.075,0.226
	l2.179-0.302l15.18-2.028l-0.751-3.006l2.555-0.075l30.587-4.059l21.492-3.606l0.302-0.225l0.526-0.603l5.636-3.006l4.359-5.711
	l0.601-1.953l2.855-2.255l3.607-4.583l0.526-0.752l-0.227-0.075h-1.878l-2.405-1.353l-4.283-5.186l-1.503-5.26v-0.15l-0.15-0.15
	l-3.156-1.803l-1.428-2.405l-2.854,2.78l-1.804,0.452l-2.255-0.902l-1.953,1.502l-4.06-1.803l-1.051,0.451l-3.832-3.307
	l-1.954-0.978l-3.683,0.451L715.806,261.079L715.806,261.079z"/>
<path id="NC" inkscape:connector-curvature="0" fill="#0000FF" stroke="#000000" stroke-width="0.9706" stroke-linejoin="round" d="
	M841.607,293.167l-1.653-8.341l1.428,4.358L841.607,293.167L841.607,293.167z M832.439,274.155l-0.15,0.075l-0.226,0.075l0,0h0.076
	l4.133,6.989l3.231,3.231L832.439,274.155L832.439,274.155z M831.087,274.606l-0.602,0.15l0,0l0.15,0.075h1.277l-0.15-0.451l0,0
	l-0.226,0.075h-0.225l0,0v0.15l-0.15,0.075L831.087,274.606L831.087,274.606L831.087,274.606z M761.572,291.74l-0.375,1.127
	l0.075,3.23l-0.826-0.074l-1.953,3.983l-2.18,0.226l-4.059,3.983l-1.804-0.677l-2.329,3.457l-6.163,5.561l-3.006,0.753l-3.156,2.931
	l-0.149,1.952l-2.781,1.504l0.076,3.307v0.752l0.977-0.226l10.521-2.18l2.855-0.602l0.977-0.225h0.226l24.95-7.891l4.21,2.179
	l8.491,0.302l6.238-1.203l16.759,10.597l0.301-0.226l7.74-3.156l0.076-4.134l2.78-5.035l3.006-2.854l6.238-4.133l0.826-1.503
	l1.653,0.751l0.752-4.96l-0.901,1.729l-3.156,1.053l-3.006,0.075l3.683-2.706l-1.128-1.202l1.277-2.706l-7.064-1.126l-0.301-0.376
	l6.013-1.127l1.953,0.978l2.48-0.226l2.028-1.504l1.503-2.931l1.353-0.375l-0.226-4.133l-1.728-1.653l-1.729,1.578l0.376,3.983
	l-1.278-4.884l-0.977-0.226l-7.44,3.081l3.308-3.232l0.149-1.278l3.456-0.827l0.979-2.555l2.33,1.354l-2.48-3.682l-1.729-1.503l0,0
	l-30.06,8.567l-19.163,4.885l-19.39,3.607L761.572,291.74L761.572,291.74z"/>
<path id="OH" inkscape:connector-curvature="0" fill="#39B54A" stroke="#000000" stroke-width="0.9706" stroke-linejoin="round" d="
	M761.197,224.631l-1.88-8.116l-0.375-1.653l-2.105-9.244l-2.704,1.728l-5.788,4.434l-3.757,4.584l-2.931,0.451l-5.411,3.081
	l-3.006-1.804l-9.094-1.052l0,0l-4.81,1.202l-4.734,1.127l-4.96,1.052l-0.752,0.225l0.226,1.203l2.029,11.348l4.509,26.604
	l0.149,1.277l0.602-0.601l3.683-0.45l1.954,0.977l3.832,3.307l1.052-0.451l4.059,1.803l1.953-1.502l2.254,0.902l1.804-0.452
	l2.855-2.78l1.429,2.405l3.155,1.803l0.15,0.15l0,0l3.232-1.579l1.127-2.48l-0.902-2.555l2.555-3.908l1.879-0.3l-0.225-3.307
	l3.081-4.209l0.526,0.601l2.78-2.105l2.404-3.607l0.375-16.458l0.15-0.075L761.197,224.631L761.197,224.631z"/>
<path id="TN" inkscape:connector-curvature="0" fill="#0000FF" stroke="#000000" stroke-width="0.9706" stroke-linejoin="round" d="
	M736.472,297.302l-21.493,3.606l-30.586,4.059l-2.555,0.074l0.751,3.007l-15.18,2.029l-2.18,0.301v0.075l-0.601,0.752l-0.301-0.076
	v-0.602v-0.074l-0.827,0.074l0.077,0.076l0.45,2.104l-1.503,1.88l-0.15,3.457v0.6v0.076l-2.255,4.359l0.452,3.08l-2.104,3.308
	l0.752,3.006l-2.705,2.48l0.148,0.149l1.654-0.149l15.03-1.88l6.612-0.901l3.759-0.526h0.15l-0.076-0.15l12.626-1.729l6.012-0.75
	l12.024-1.955l2.255-0.376l1.353-0.148l6.388-1.203l1.577-0.301l5.861-1.128l1.053-0.149v-0.752l-0.076-3.307l2.781-1.502
	l0.15-1.954l3.155-2.931l3.007-0.752l6.162-5.562l2.329-3.457l1.805,0.677l4.058-3.983l2.179-0.226l1.954-3.983l0.826,0.076
	l-0.075-3.231l0.375-1.127l-1.202,0.225l-4.283,1.203l-5.11,1.051l-12.852,2.63l-1.353,0.227L736.472,297.302L736.472,297.302z"/>
<path id="VA" inkscape:connector-curvature="0" fill="#39B54A" stroke="#000000" stroke-width="0.9706" stroke-linejoin="round" d="
	M831.313,274.455h0.225l0.226-0.075l0,0l-0.15-0.375L831.313,274.455L831.313,274.455L831.313,274.455z M831.913,250.032
	l-0.978,0.375l-1.502,0.677l-0.527,0.677l0.226,0.075l-1.803,11.197l0.677,1.804l1.051-4.66l1.954-6.087l0.901-3.983
	L831.913,250.032L831.913,250.032z M754.884,278.213l-0.526,0.751l-3.606,4.584l-2.856,2.255l-0.6,1.953l-4.359,5.711l-5.636,3.006
	l-0.526,0.603l1.352-0.227l12.852-2.63l5.11-1.052l4.283-1.202l1.203-0.226l0.076,0.15l19.388-3.607l19.164-4.885l30.061-8.567l0,0
	l-0.227-0.375l-0.075-0.226l0.527,0.526l0,0l0,0l0.601-0.15l-0.076-0.075l-0.526-2.555l0.375,0.075l1.203,2.254l0,0l0,0l0.226-0.075
	l0.15-0.075l-0.301-0.601l-3.081-4.735l-3.833,0.677l-1.728,1.428l-1.653-1.503l-5.637-1.879l-3.907-0.15l7.59-0.676l4.208,2.855
	l1.204-1.879l-3.382-4.283l2.403,0.15l-1.276-3.458l-3.006,0.15l-7.14-5.787h-0.902l10.071,4.96l-0.677-3.457l0.677-1.127
	l-5.111-1.954l-4.434-0.3l-2.18-1.955l-1.804,1.127l-0.677-5.185l0.753,0.15l-0.15-4.209l-0.15-0.15l-0.149,0.075l-0.15-0.075
	l-0.375-0.3l-0.226-0.226l-2.404-1.052l-2.479-1.804l-3.457-0.902l-0.227-0.075v0.075l-0.45,3.157l-6.989-3.005l0.15,4.358
	l-3.833,7.29l-2.329,2.555l-1.504,4.434l-4.584-1.578l-2.255,10.221l-1.802,3.457l-0.302,4.509l-1.353,2.18l-5.035,1.502
	l-4.133,3.231l-1.954,0.301l-1.88,1.653l-4.732-1.728l-0.827-2.33L754.884,278.213L754.884,278.213z"/>
<path id="WI" inkscape:connector-curvature="0" fill="#39B54A" stroke="#000000" stroke-width="0.9706" stroke-linejoin="round" d="
	M674.172,169.019l-1.879,2.33l-1.127,3.382l0.526,1.879L674.172,169.019z M616.382,153.088l-1.729,1.953l0.826,9.019l-4.81,4.358
	l-0.902,4.208l2.63,2.405l-0.752,10.371l2.781,2.104l1.804,0.15l5.711,3.457l3.607,3.757l4.584,2.33l1.052,5.787v0.375l0,0
	l2.18,2.63l-0.602,2.029l0.752,4.434l2.255,3.081l4.133,2.179l-0.076,0.375l0,0l16.384-1.879l6.087-0.751l10.146-1.428l-0.301-1.127
	v-3.533l-2.029-3.757l-0.525-4.735l0.977-5.26l-0.526-4.059l1.804-5.035l-0.677-0.827l0.15-4.66l0.978-3.532l-1.128-1.203
	l-2.179,0.752l-1.203,3.157l-2.855,1.653l0.901-3.983l2.557-3.382l0.148-1.502l0.076-0.075l-3.607-3.607v-5.111l-4.058-3.307
	l-5.562-0.375l-5.712-1.503l-12.325-3.757l-2.403-1.353l-0.226,0.225l-3.833-0.525l-1.276,0.75l0.525-5.485l-6.162,3.157
	l-7.516,1.202L616.382,153.088z"/>
<path id="WV" inkscape:connector-curvature="0" fill="#39B54A" stroke="#000000" stroke-width="0.9706" stroke-linejoin="round" d="
	M775.551,237.857l-10.672,2.63l-3.307-14.278l0,0l-0.15,0.075l-0.375,16.458l-2.405,3.607l-2.78,2.104l-0.526-0.602l-3.081,4.209
	l0.226,3.307l-1.879,0.3l-2.556,3.908l0.902,2.555l-1.127,2.48l-3.232,1.578l0,0v0.15l1.503,5.26l4.283,5.186l2.405,1.353h1.878
	l0.227,0.075l0.149,0.076l0.826,2.329l4.734,1.728l1.879-1.653l1.954-0.3l4.133-3.231l5.035-1.503l1.353-2.18l0.301-4.509
	l1.804-3.457l2.255-10.221l4.584,1.579l1.503-4.434l2.329-2.555l3.833-7.29l-0.15-4.359l6.989,3.007l0.45-3.157v-0.075l0,0
	l-2.179-3.758l-4.509-0.525l-2.63,2.029v1.503l-2.254,0.526l-3.308,2.33l-1.728,0.375l-3.457,4.885l-1.729-7.891L775.551,237.857
	L775.551,237.857z"/>
<path id="DE" inkscape:connector-curvature="0" fill="#39B54A" stroke="#000000" stroke-width="0.9706" stroke-linejoin="round" d="
	M819.738,225.458l0.302,1.127l6.238,17.811l7.139-2.104l-0.075-0.15h0.15l0.225,0.075l0,0l0.15-0.075l-0.15-0.3l-1.803-4.81
	l-8.793-8.342l0.376-5.787l0,0h-1.804l-1.353,1.051L819.738,225.458L819.738,225.458L819.738,225.458z"/>
<path id="MD" inkscape:connector-curvature="0" fill="#39B54A" stroke="#000000" stroke-width="0.9706" stroke-linejoin="round" d="
	M777.053,237.482l1.729,7.89l3.457-4.885l1.728-0.375l3.308-2.33l2.254-0.526v-1.503l2.63-2.029l4.509,0.525l2.18,3.758l0,0
	l0.225,0.075l3.457,0.902l2.48,1.803l2.404,1.052l0.225,0.225l0.302-0.601l1.276-0.075l1.053,0.601l-0.978,1.804v0.075l-1.429,4.358
	l4.661,3.007l4.659,0.225l3.081,1.428l-1.278-3.607l-3.982-1.353l-0.979-3.081l2.48,3.307l2.029,0.3l-1.803-1.803l-1.429-5.336
	l0.375-3.081l-1.577-3.382l1.652-1.353l1.203-4.358l-0.451,6.462l1.277,2.18l1.203-2.555l0.676,4.209l-1.277,3.081l3.683,1.354
	l-3.155,1.052l1.653,3.081l2.705,0.902l1.503-2.63l-0.15,3.682l2.555-0.075l1.654,1.879h0.074l0.527-0.677l1.502-0.677l0.979-0.375
	l-0.076-0.15l1.954-5.787v-0.226l-0.376-1.502v-0.075l-7.139,2.104l-6.238-17.811l-0.302-1.127l-1.276,0.375l-5.336,1.653
	l-29.385,8.191l-5.336,1.428L777.053,237.482L777.053,237.482z"/>
<path id="NJ" inkscape:connector-curvature="0" fill="#39B54A" stroke="#000000" stroke-width="0.9706" stroke-linejoin="round" d="
	M835.22,199.305l-7.89-1.954l-1.354-0.375l-1.277-0.3l0,0l-3.156,6.988l1.353,1.654l-0.075,5.035l1.429,0.226l2.931,7.665
	l-0.15,0.225l-3.683,5.412l0.376,4.133l8.867,3.005l0.076,3.457l2.028-2.855l0.301-4.133l2.104-1.428l-0.826-3.081l1.578-3.683
	v-8.041l-0.527-2.63l-3.531,0.075l0.901-3.607L835.22,199.305L835.22,199.305L835.22,199.305z"/>
<path id="NY" inkscape:connector-curvature="0" fill="#39B54A" stroke="#000000" stroke-width="0.9706" stroke-linejoin="round" d="
	M845.365,201.709l3.758-3.307v-0.15L845.365,201.709z M852.881,190.738l-5.037,4.659l-7.739,3.307l-2.029,1.728l-0.15,1.653
	l-2.104,1.729l0.302,2.254l3.231-1.277l4.734-3.832l5.26-2.781l7.967-7.515l-5.637,4.284l-1.804,0.75L852.881,190.738
	L852.881,190.738z M835.746,202.011l1.503-0.375l0.826-3.382v-0.075l-1.353-1.277l1.953-2.405l-0.901-1.127l-2.854-11.047
	l-0.151-0.752l-0.375-0.226l-0.225-3.307l-0.226-3.607l-0.226-3.907v-0.226l-0.15,0.075l-3.758-12.325l-3.983-6.237l-1.128-7.44
	l-3.381-7.891l-0.451,0.226l-15.707,5.26l-3.155,3.382l-3.533,6.764l0.15,1.503l-4.659,7.064l2.855,0.977l0.825,5.335l-3.306,4.358
	l-9.921,6.012l-1.879-0.752l-7.364,1.052l-6.839,4.133l0.375,2.179l2.404,2.104l-1.353,6.613l-5.411,6.313l-0.074,0.075l0,0
	l0.525,2.255l3.983,0.977l22.847-6.237l22.996-6.914l4.208,3.232l0.826,1.878l4.886,2.104l0.149,0.301l1.277,0.3l1.354,0.375
	l7.89,1.954L835.746,202.011z"/>
<path id="PA" inkscape:connector-curvature="0" fill="#39B54A" stroke="#000000" stroke-width="0.9706" stroke-linejoin="round" d="
	M824.549,196.374l-4.885-2.104l-0.827-1.878l-4.208-3.232l-22.996,6.914l-22.847,6.237l-3.983-0.977l-0.525-2.254l-1.278,0.977
	l-2.028,1.428l-3.683,3.757l-0.451,0.375l2.105,9.244l0.375,1.653l1.88,8.117l0.374,1.578l0,0l3.307,14.279l10.671-2.63l1.503-0.375
	l1.353-0.375l5.336-1.428l29.384-8.191l5.337-1.653l1.276-0.376l0,0l0.601-1.503l1.353-1.051h1.805l0.225-0.677l2.931-3.307
	l0.301-0.526l0.226-0.15l-2.931-7.665l-1.428-0.226l0.075-5.035l-1.353-1.654l3.156-6.988l0,0L824.549,196.374L824.549,196.374z"/>
<path id="ME" inkscape:connector-curvature="0" fill="#39B54A" stroke="#000000" stroke-width="0.9706" stroke-linejoin="round" d="
	M843.035,123.479l10.897,25.551l0.15,0.525l4.734,5.787v-0.075l0.752-0.226l0.148-4.283l1.204-1.503l0.751-3.983l-0.677-0.677
	l1.278-3.908l4.358-2.029l2.855-3.457l1.053-6.012l4.584-0.301l-0.602-3.08l5.713-2.18l0.375-3.381l1.353,0.3l3.758-3.081
	l1.653-3.983l-3.832-3.833l-4.059-0.826l-1.502-3.082v-1.804l-2.48,0.751l-2.78-0.977v-3.081l-7.516-16.233l-5.485-2.855
	l-6.087,5.111l-1.653-0.3l-1.429-2.63l-1.954,0.751l-2.78,13.828l0.978,4.509l0.826,9.167l-2.179,7.064l1.503,1.127l-1.805,3.457
	l-1.953-0.3L843.035,123.479L843.035,123.479z"/>
<path id="MI" inkscape:connector-curvature="0" fill="#39B54A" stroke="#000000" stroke-width="0.9706" stroke-linejoin="round" d="
	M685.22,223.729l9.318-1.503l2.63-0.526l11.498-2.029l0.226,0.977l0.751-0.226l4.961-1.052l4.734-1.127l4.81-1.203l-0.075-0.225
	l2.48-4.885l-0.227-4.059l2.781-6.988l2.178,1.277l0.828-1.579l-0.227-6.012l-2.028-3.758l-3.007-7.966l-2.63-2.931l-1.353-0.375
	l-4.885,3.381l0.525,0.677l-2.555,4.81l-2.48-0.451l-0.751-5.035l1.052-0.375l2.179-5.035l0.226-8.868l-3.382-7.516l-7.516-1.277
	l-0.75-1.127l-6.989-2.03l-3.155,3.908l0.3,3.381l-2.404,3.006l0.526,4.66l-2.33,1.653v-5.862l-2.104,4.435l-2.479,3.908
	l-1.653,1.277l0.826,4.133l-1.053,4.283l0.602,5.336l-0.752,2.63l5.411,10.371l0.676,3.983l-0.676,7.365l-3.607,8.267
	L685.22,223.729L685.22,223.729z M634.943,153.914l2.404,1.353l12.325,3.757l5.712,1.503l5.561,0.375l4.059,3.307v5.111l3.607,3.607
	v-0.075l2.93-8.492l3.533-2.48l2.705-3.006l0.451,2.706l2.78-4.284l6.688-2.555l0.526-1.052l6.764,0.827l2.63,1.353l1.276-3.307
	l1.203,0.752l5.261-0.826l-1.277-2.105l-2.33-1.353l0.451-4.885l-4.584,2.555l-4.21-0.526l-1.353-3.231l0.452-1.052l-5.712,2.705
	l-3.683,0.227l-6.613,4.058l-0.752,1.503l-4.058-0.978l-2.555,1.127l-5.111-4.434l-11.347-3.458l-0.227-1.353l-7.289,6.989
	l-4.133,1.052l-5.862,4.434L634.943,153.914L634.943,153.914z M661.547,136.855l-8.793,4.359l2.931,2.855l1.128-2.855l3.006-3.683
	L661.547,136.855L661.547,136.855z"/>
<path id="AK" inkscape:connector-curvature="0" fill="#754C24" stroke="#000000" stroke-width="0.9706" stroke-linejoin="round" d="
	M248.97,488.86l-2.63,2.33l1.879-0.15l2.18-1.728L248.97,488.86L248.97,488.86z M251.901,488.71h-0.826l1.428,0.376L251.901,488.71z
	 M253.103,488.56l-0.3-0.149v0.825L253.103,488.56z M259.492,486.154l-1.879,0.375l-1.653,2.181L259.492,486.154L259.492,486.154z
	 M350.649,477.889l2.179,3.306l4.885,3.081l-1.127-2.63l-4.66-3.983L350.649,477.889L350.649,477.889z M348.771,475.709l0.375,3.457
	l0.751-0.752L348.771,475.709z M349.146,474.582l1.728,2.405l-0.226-1.579L349.146,474.582z M343.811,475.183l-0.451,1.429
	l0.601-0.978L343.811,475.183L343.811,475.183z M343.96,474.056l3.007,4.959l-0.452-3.381L343.96,474.056L343.96,474.056z
	 M293.309,476.837l-1.954,1.276l-2.405,3.156l1.202,1.277l5.562-4.133L293.309,476.837z M342.157,470.523l-1.503,0.753l1.428,0.45
	L342.157,470.523L342.157,470.523z M344.186,469.246l3.081,4.509l-0.827-4.134L344.186,469.246L344.186,469.246z M294.586,474.131
	l-1.803,1.354l0.826,0.9l2.405-1.803L294.586,474.131L294.586,474.131z M269.862,429.792L269.862,429.792L269.862,429.792
	L269.862,429.792z M291.205,408.148l-3.081,2.556l-1.879-0.526l-4.358,2.479l-0.827-0.526l-4.96,5.563l-5.035,1.127l0.451,2.705
	l2.255,3.081l4.208,4.058l-0.677,1.578l3.156,1.353l-1.653,0.301l-2.029-1.578l1.052,2.33l-1.353,0.826l-4.284-3.907l-3.382,0.6
	l-5.787,2.18l2.63,2.932l-0.375,1.803l1.728,2.104l5.712,2.255l4.133-2.104l0.677,1.577l-1.127,4.734h-3.457l-4.058,1.804
	l-0.226-1.278l-2.104,0.827l-0.977,2.18l-3.457,2.63v3.832l1.352,0.602l-1.052,3.231l4.509,3.907l2.855-1.202l-0.601,4.81
	l0.827,1.052l3.457,0.752l1.277,1.428l3.007,0.226l1.427,1.503l3.081-0.902L280.834,473l-1.127,3.983l-9.168,5.937l-1.203,1.203
	l-1.728-0.677l-2.78,0.677l-3.983,2.629l6.237-1.803l0.902,1.353l8.042-2.63l0.225,1.053l3.157-3.157l6.613-4.584l0.527,0.301
	l5.787-4.584l-1.503-1.804l1.955-3.231l5.109-6.087l3.908-0.752l1.202,0.825l-4.734,1.354l-1.278,5.035l0.15,2.705l1.654-0.149
	l7.966-4.81l0.601-1.804l-0.677-2.781l2.405,0.602l1.728-1.128l4.959,3.007l-0.375,0.826l11.273,1.428l2.63-0.826l0.751,1.127
	l9.77,4.659l1.654-0.977l0.15-5.636l1.277,2.555l6.313,4.584l0.526,1.88l5.485,3.08l1.428,3.984l1.353-3.081l2.78,5.41l1.879-3.081
	l-1.503-3.832l-5.787-0.601l-8.868-8.493l-4.81-3.532l-3.683,3.607h-2.179l-5.035-3.307l-4.959-0.227l-7.064-44.563l-1.203-2.104
	l-2.855-1.729l-4.284,0.826l-3.307-0.676l-4.208-1.653l-4.434,0.3l-1.127-2.104l-3.532-0.526l-0.602-1.277l-1.578,1.804
	L291.205,408.148L291.205,408.148z"/>
<path fill="#754C24" stroke="#000000" stroke-width="0.9706" stroke-linejoin="round" d="M652.124,470.233l-0.077,0.465h0.619
	l-0.154-0.387L652.124,470.233z M700.282,471.085l0.466,0.774l0.619,0.774l0.542,0.309l-0.154-0.619l1.006,0.077v-0.541
	l-1.083-0.465l-0.696,0.154L700.282,471.085z M701.986,476.195l-0.155-0.31l-0.541,0.154l-1.781-0.465l-1.162,0.078l-0.309,0.31
	l-1.084,0.154l-1.006,0.465l-0.774,0.154l0.387,0.774l0.774,0.078l0.929-0.31l0.774,0.078l0.696-0.155l-0.077-0.231l1.006-0.078
	l0.465-0.31l0.232,0.232l0.93-0.387L701.986,476.195z M659.325,468.22l0.077,1.471l-2.322,1.085l-0.078,0.696l0.774,1.006
	l1.007,0.388l0.388,2.09l-0.62,2.479l0.077,1.702l-0.542,1.239l0.774,0.853l0.155-0.697l1.936,0.387l0.619-0.696l1.549,0.155
	l1.548,0.929l3.175-0.929l0.388-0.696l2.245,0.774h2.322l2.014-0.62l2.091,1.007l1.161-0.465l2.322,0.852l0.696-0.619l0.93,0.619
	l2.013-0.852l0.697,0.31l0.619-0.543l0.853,0.078l1.239,0.155l1.315-0.93l1.007-1.239l0.464-0.077l0.853-1.858l0.774-1.161
	l1.936-0.387l0.31-0.696l0.465,0.465l0.232-0.696l-0.774-0.62l0.077-1.936l0.233-0.929l-1.239,0.465l-2.788-1.161l-2.322-0.774
	l-2.168-0.232l-2.478,0.232l-6.735-1.084l-1.162,0.542l-4.025-0.465l-1.781,0.31l-2.091-0.31l-2.322,0.154l-3.02-0.696l-2.013,0.077
	L659.325,468.22z">
<title>Puerto Rico</title>
</path>
<path fill="#754C24" stroke="#000000" stroke-width="0.9706" stroke-linejoin="round" d="M721.087,477.973l0.621,1.704l-0.233,1.78
	l-0.928,0.774l0.153,0.542l1.161-0.774h2.479l0.465,0.232l1.549-0.542l1.702-0.309l1.316,0.232l2.168-0.852l0.929,0.387l2.091-0.542
	l2.168-1.084h0.929l1.781-0.774l0.773-0.852l1.316,0.077l0.774-0.695l-0.774-0.388l-1.78,0.388l-0.542-0.466l-1.472,0.155
	l-1.161-0.155l-1.702,0.078l-0.774,0.388l-0.542,0.387l-0.697-0.078l-1.316-0.93l-0.928-1.238l-0.31,0.077l-0.232,0.466l-1.78-0.697
	l-3.407,1.626l-1.161-0.154l-1.238-0.466l-0.93,0.388L721.087,477.973z M730.224,461.404l0.466,0.388l-0.155,0.464l-0.619,0.232
	l-1.316,0.154l-0.077,0.311l-0.466-0.466l-0.154,0.853l-0.774,0.388l0.078,0.852l1.238,0.851l0.466-0.54l1.007,0.153l0.619-0.387
	l0.773,0.465l0.852-0.154l-0.077,0.619l1.007,0.078l0.387,0.541l0.232-1.394l-0.077-0.619l-0.852-0.93l0.619,0.232l0.388-0.154
	l-0.311-0.774l0.619-0.077l0.388,1.084l0.542-0.388v0.852h0.542l0.542-0.231l0.155-0.543l-1.704-0.773l-0.31-0.388l-0.929-0.077
	l-0.309-0.387h-0.774l-0.079,0.231l-0.852-0.077l0.077-0.465L730.224,461.404z M720.468,459.236l0.542,0.774l-0.619,0.466
	l-0.697-1.316L720.468,459.236z M712.416,462.179l-0.465,0.695l1.007,0.62l1.936-0.62l1.007,0.543l-0.387,0.31l2.014,0.928
	l-0.543,1.008l0.466,0.153l0.388-0.928l1.082-0.233l-0.542-1.007l0.854,0.079l0.077,1.083l1.161,0.619h0.929l0.774,0.62l0.697-0.154
	l-0.155-0.774l0.93-0.155l0.695,0.465l0.542-0.388l-0.773-0.619l0.387-0.309l-1.626-1.316l-1.316-0.31v-0.388l-1.781-0.387
	l-1.471-1.083l1.007,1.161l-0.232,0.309l-0.387-0.077l-1.085-1.006l-0.076,0.54l-2.479-0.153l-0.231,0.619l-0.619-0.387
	l-0.311,0.464L712.416,462.179z">
<title>U.S. Virgin Islands</title>
</path>
<rect x="854.46" y="297.076" fill="#FAF067" stroke="#000000" stroke-width="0.9706" stroke-linejoin="round" width="13.453" height="13.453"/>
<text transform="matrix(1 0 0 1 873.5 308)" font-family="'MyriadPro-Regular'" font-size="12">Tier 1</text>
<rect x="854.46" y="320.523" fill="#0000FF" stroke="#000000" stroke-width="0.9706" stroke-linejoin="round" width="13.453" height="13.453"/>
<text transform="matrix(1 0 0 1 873.5 331.4473)" font-family="'MyriadPro-Regular'" font-size="12">Tier 2</text>
<rect x="854.46" y="343.971" fill="#39B54A" stroke="#000000" stroke-width="0.9706" stroke-linejoin="round" width="13.453" height="13.453"/>
<text transform="matrix(1 0 0 1 873.5 354.8945)" font-family="'MyriadPro-Regular'" font-size="12">Tier 3</text>
<rect x="854.46" y="367.418" fill="#F7931E" stroke="#000000" stroke-width="0.9706" stroke-linejoin="round" width="13.453" height="13.453"/>
<text transform="matrix(1 0 0 1 873.5 378.3418)" font-family="'MyriadPro-Regular'" font-size="12">Tier 4</text>
<rect x="854.46" y="390.865" fill="#754C24" stroke="#000000" stroke-width="0.9706" stroke-linejoin="round" width="13.453" height="13.453"/>
<text transform="matrix(1 0 0 1 873.5 401.7891)" font-family="'MyriadPro-Regular'" font-size="12">Tier 5</text>
</svg>
