<?xml version="1.0" encoding="utf-8"?>
<!-- Generator: Adobe Illustrator 15.0.2, SVG Export Plug-In . SVG Version: 6.00 Build 0)  -->
<!DOCTYPE svg PUBLIC "-//W3C//DTD SVG 1.1//EN" "http://www.w3.org/Graphics/SVG/1.1/DTD/svg11.dtd">
<svg version="1.1"
	 id="svg" sodipodi:docname="us.svg" inkscape:version="0.48.4 r9939" xmlns:dc="http://purl.org/dc/elements/1.1/" xmlns:cc="http://creativecommons.org/ns#" xmlns:rdf="http://www.w3.org/1999/02/22-rdf-syntax-ns#" xmlns:svg="http://www.w3.org/2000/svg" xmlns:sodipodi="http://sodipodi.sourceforge.net/DTD/sodipodi-0.dtd" xmlns:inkscape="http://www.inkscape.org/namespaces/inkscape"
	 xmlns="http://www.w3.org/2000/svg" xmlns:xlink="http://www.w3.org/1999/xlink" x="0px" y="0px" width="1000px" height="589px"
	 viewBox="0 0 1000 589" enable-background="new 0 0 1000 589" xml:space="preserve">
<sodipodi:namedview  id="namedview69" inkscape:current-layer="svg2" inkscape:window-y="118" inkscape:window-x="1192" inkscape:window-height="1137" inkscape:window-width="1920" inkscape:pageshadow="2" inkscape:pageopacity="0" inkscape:cy="409.3738" inkscape:cx="817.66365" inkscape:zoom="0.80893016" showgrid="false" guidetolerance="10" gridtolerance="10" objecttolerance="10" borderopacity="1" bordercolor="#666666" pagecolor="#ffffff" inkscape:window-maximized="1">
	</sodipodi:namedview>
<path id="MA" inkscape:connector-curvature="0" fill="#39B54A" stroke="#000000" stroke-width="0.9706" stroke-linejoin="round" d="
	M947.867,146.839L947.867,146.839h0.971l0.291,1.165l0.874,1.65l0,0l4.562-5.533l3.786,1.262l0.873-1.941l6.212-3.3l-2.62-5.145
	l0.679,3.3l-3.203,2.426l-3.591,0.292l-7.183-7.668l-3.203-4.853l3.203-3.397l-3.3-0.194l-1.359-3.203l-0.097-0.194l-5.533,6.018
	l-12.229,4.077l-3.979,1.262l0,0l-0.68,0.291l-5.533,1.65l-1.94,0.68l-2.232,0.68l-0.776,0.291v0.291l0.291,5.047l0.291,4.659
	l0.291,4.271l0.485,0.292l1.747-0.485l7.862-2.33l0.194,0.485l13.977-5.338l0.098,0.194l1.262-0.485l4.465-1.747l4.271,5.145l0,0
	L947.867,146.839z"/>
<path id="MN" inkscape:connector-curvature="0" fill="#39B54A" stroke="#000000" stroke-width="0.9706" stroke-linejoin="round" d="
	M558.547,73.847l1.941,6.892l4.077,24.848l1.94,9.9l0.583,8.736l2.232,5.241l0.485,4.465l0.388,1.456l-0.097,0.292l-3.883,6.406
	l2.523,4.271l4.854,34.166l0.194,4.465l4.854-0.291l19.121-1.067l47.755-3.98l4.756-0.485v-0.485l-1.358-7.474l-5.921-3.009
	l-4.659-4.853l-7.377-4.465l-2.329-0.194l-3.592-2.718l0.971-13.395l-3.396-3.106l1.164-5.436l6.212-5.629l-1.067-11.648
	l2.232-2.523l0,0l7.571-7.959l8.639-11.065l3.3-2.33l5.824-2.815l6.114-4.562l-4.076,0.776l-2.427-1.844l-9.318,1.262l-1.456-1.747
	l-8.347,3.397l-6.697-2.814l-1.845-2.232l-5.339,0.388l-3.591-1.844l1.165-1.359l-4.563-1.456h-4.076l-6.504,2.815l-1.262-1.941
	l-10.288-1.456l-3.495-8.735l-0.388-2.621l-4.465-1.262l0.388,7.474l-11.841,0.874l-14.657,0.583L558.547,73.847L558.547,73.847z"/>
<path id="MT" inkscape:connector-curvature="0" fill="#F7931E" stroke="#000000" stroke-width="0.9706" stroke-linejoin="round" d="
	M465.658,72.974l-32.128-2.135l-23.393-2.232l-23.295-2.718l-14.463-1.941l-23.101-3.591l-11.551-1.941l-25.818-4.95l-2.718-0.582
	l-4.174,19.801l1.844,3.591l1.456,5.533l-0.873,0.776l1.844,5.047l2.523,2.135l7.183,12.036l0.68,2.038l2.912-0.194l-3.397,15.918
	l-1.358,0.388l-1.845,5.339l9.609,0.679l0.776,4.465l5.436,13.298l0.971,0.776l3.785,7.765l0.971-0.776l8.057-0.097l10.191,1.067
	l2.523-3.3l3.01,5.436l0.582,0.291l0.097-0.583l1.359-9.512l33.195,4.077l26.498,2.524l13.978,1.165l24.945,1.456l1.262,0.097h0.291
	l0.097-1.359l0.292-6.697l0.388-8.833l0.098-2.232l0.193-3.882l1.554-30.478l1.262-23.684l0.097-3.882L465.658,72.974
	L465.658,72.974z"/>
<path id="ND" inkscape:connector-curvature="0" fill="#F7931E" stroke="#000000" stroke-width="0.9706" stroke-linejoin="round" d="
	M556.509,73.847l-29.313,0.583l-20.479-0.097l-17.568-0.388l-20.578-0.776l-1.067-0.097l-0.097,3.882l-1.263,23.684l-1.553,30.478
	l-0.194,3.882l3.786,0.194l42.805,1.165l39.505-0.291l16.403-0.485l3.3-0.194l-0.388-1.456l-0.485-4.465l-2.232-5.241l-0.583-8.736
	l-1.941-9.9l-4.076-24.848l-1.941-6.892H556.509L556.509,73.847z"/>
<path id="HI" inkscape:connector-curvature="0" fill="#754C24" stroke="#000000" stroke-width="0.9706" stroke-linejoin="round" d="
	M416.35,514.999l-3.009-2.232l-2.621,0.68l0.583,5.436l-3.592,4.465l3.106,7.086l0.873,7.279l3.592,2.33l2.232-3.592l3.979-2.912
	l4.853-1.262l5.339-4.562l-5.241-4.465l-0.098-2.718L416.35,514.999L416.35,514.999z M398.685,507.137l-1.456-1.262l-1.359,1.845
	L398.685,507.137L398.685,507.137z M391.404,502.963l0.389-3.591l-1.845-0.291L391.404,502.963L391.404,502.963z M397.52,497.043
	l-1.65,0.776l1.165,3.688l2.523,0.193l0.776,3.203l2.718,1.165l6.019-2.814l-5.63-4.659L397.52,497.043L397.52,497.043z
	 M385.096,493.063l-0.874,2.621l4.174-0.097l3.883,0.971l-2.039-3.203L385.096,493.063L385.096,493.063z M372.865,485.395
	l-2.232-2.135l-4.271,3.3l2.718,5.048l1.941-2.039l5.532,1.165l-0.485-2.329L372.865,485.395L372.865,485.395z M344.814,472.291
	l-6.795,2.524l-0.68,1.844l2.718,1.941l3.786,0.971l2.718-5.339L344.814,472.291L344.814,472.291z"/>
<path id="ID" inkscape:connector-curvature="0" fill="#F7931E" stroke="#000000" stroke-width="0.9706" stroke-linejoin="round" d="
	M309.095,52.882l-8.639-1.747l-2.814-0.68l-1.262-0.291l-11.26,50.667l0.485,4.174l-0.388,4.368l0.194,0.971v0.097l0.097,1.844
	l3.3,3.592l-4.756,11.938l-10.095,13.201l-0.291,2.426l2.621,6.212l-9.221,38.243l-0.388,2.039l2.718,0.582l27.469,5.436
	l10.968,2.039l2.815,0.485l2.717,0.485l13.978,2.232l25.042,3.785l2.815,0.389l0.388-3.203l0.874-6.31l3.3-25.236l1.747-12.521
	l0.389-3.203l-0.583-0.291l-3.009-5.436l-2.523,3.3l-10.191-1.068l-8.057,0.097l-0.971,0.776l-3.785-7.765l-0.971-0.776
	l-5.436-13.298l-0.776-4.465l-9.609-0.679l1.844-5.339l1.359-0.388l3.397-15.918l-2.912,0.194l-0.68-2.038l-7.183-12.036
	l-2.523-2.135l-1.845-5.047l0.874-0.776l-1.456-5.533l-1.844-3.591l4.173-19.801H309.095L309.095,52.882z"/>
<path id="WA" inkscape:connector-curvature="0" fill="#F7931E" stroke="#000000" stroke-width="0.9706" stroke-linejoin="round" d="
	M200.967,84.913l3.494,3.786l-0.583,7.279l0.68,1.844l5.241,2.815l14.753,1.359l0.583,1.747l6.989,0.097l6.6,0.874l10.774-1.165
	l5.338,0.874l1.456-0.68l27.275,6.212l1.844,0.388l-0.194-0.971l0.388-4.368l-0.485-4.174l11.259-50.667l-1.553-0.291l-22.713-5.339
	l-19.801-5.047l-22.421-6.212l-6.697-1.65l1.553,8.444l-1.456,2.718l-2.621-1.359l2.524,11.745l-2.718,3.883l-1.262,3.591v3.688
	l-5.727,3.98l-2.427-1.553l-2.329,1.165l4.271-5.533l-1.068,3.786l2.427-2.621l1.941,0.388l-0.583-4.853l1.262,0.194l2.621-5.824
	l-0.874-0.874l-3.397,4.368l-2.232,0.097l2.426-2.718l2.718-0.68l-0.97-4.95l-2.718-0.679l-1.359-2.33l-1.65,0.874l-8.93-3.883
	l-7.862-6.115l-2.135,5.921l-0.194,2.523l1.65,4.465l-1.068,14.462l-0.776,2.233l4.368,0.388l-4.368,3.106l2.33,1.165l-1.844,6.212
	l-0.874-4.853l-1.65,5.63l2.233,2.718l2.426-0.194l2.912,1.747l1.456,2.815H200.967L200.967,84.913L200.967,84.913z"/>
<path id="AZ" inkscape:connector-curvature="0" fill="#F7931E" stroke="#000000" stroke-width="0.9706" stroke-linejoin="round" d="
	M372.186,309.904l-32.71-4.076l-17.568-2.523l-25.042-3.979l-2.524-0.389v0.194l-4.271,18.83l-2.232-0.098l-3.397-3.008
	l-4.271,3.591l-0.097,15.433l-1.553,3.301v0.291v0.098l-0.194,2.426l3.397,9.124l3.009,4.077l-5.436,3.203l-2.135,3.979
	l-3.494,8.542l-1.747,0.388l-0.097,7.085l3.009,2.232l-1.553,4.271l-3.495,0.193l0,0l-2.038,3.786l6.988,4.368l13.201,7.376
	l40.766,21.646l34.555,4.271h0.389l2.718-28.634l0.68-7.085l7.279-75.127l0.389-3.494L372.186,309.904L372.186,309.904z"/>
<path id="CA" inkscape:connector-curvature="0" fill="#F7931E" stroke="#000000" stroke-width="0.9706" stroke-linejoin="round" d="
	M223,179.84l-3.786-0.971l-41.543-11.454l-15.433-4.659v0.388l-0.874,9.609l-4.077,11.356l-6.794,8.444l-0.194,4.271l3.3,5.921
	l1.65,7.765l-2.33,6.309l0.388,6.309l-1.165,2.621l3.979,8.639l2.523,3.3l-0.194,9.415l6.018,5.727l3.495-5.824l2.67,2.123
	l-2.67,0.499l-0.097,4.95l1.067,6.212l-2.912-2.815l-1.65-3.786l-0.485,5.242l1.359,10.386l5.436,6.697l-3.591,4.659l0.583,5.921
	l3.883,6.018l6.794,18.636l2.136,1.165l-0.68,12.909l1.068,1.553l14.56,5.241l4.465,4.756l1.553,3.107l4.271,2.426l4.659,0.873
	l1.941,5.339l3.883,1.845l5.824,6.891l5.436,9.027l-0.388,8.348l3.009,3.979l39.699,3.882l0,0l3.494-0.193l1.553-4.271l-3.009-2.232
	l0.097-7.085l1.747-0.388l3.494-8.542l2.135-3.979l5.436-3.203l-3.009-4.077l-3.397-9.124l0.194-2.426v-0.098l-2.524-3.396
	l-7.765-10.387l-15.045-21.16l-20.966-30.089l-11.842-16.404l-11.453-16.5l13.201-56.005L223,179.84L223,179.84z"/>
<path id="CO" inkscape:connector-curvature="0" fill="#F7931E" stroke="#000000" stroke-width="0.9706" stroke-linejoin="round" d="
	M489.632,255.549l0.389-19.024l-4.659-0.194l-23.684-0.874l-2.329-0.097l-1.941-0.097l-28.827-1.844l-19.219-1.553l-23.975-2.33
	l-2.33-0.292l-0.291,2.524l-5.241,50.57l-1.845,17.665l-0.776,7.668l-0.193,2.523l3.009,0.292l48.92,4.271l21.548,1.359
	l21.451,0.971l3.105,0.097l1.941,0.097l4.077,0.098l1.94,0.098l6.115,0.193h1.553v-1.941l1.068-51.346l0.097-5.727v-1.844
	L489.632,255.549L489.632,255.549z"/>
<path id="NV" inkscape:connector-curvature="0" fill="#F7931E" stroke="#000000" stroke-width="0.9706" stroke-linejoin="round" d="
	M294.827,295.83l10.095-62.799l5.144-31.448l0.582-3.106l-2.814-0.485l-10.968-2.039l-27.469-5.436l-2.718-0.583l-2.718-0.582
	l-13.686-3.009l-24.557-5.824L223,179.84l-0.874,3.688l-13.201,56.005l11.454,16.5l11.841,16.404l20.966,30.089l15.045,21.16
	l7.765,10.387l2.523,3.396v-0.291l1.553-3.301l0.097-15.433l4.271-3.591l3.397,3.008l2.233,0.098l4.271-18.83v-0.194L294.827,295.83
	L294.827,295.83z"/>
<path id="NM" inkscape:connector-curvature="0" fill="#F7931E" stroke="#000000" stroke-width="0.9706" stroke-linejoin="round" d="
	M472.452,324.756l0.097-2.523l0.098-2.524l0.097-2.523l-3.105-0.097l-21.451-0.971l-21.548-1.359l-48.92-4.271l-3.009-0.292
	l-0.389,3.495l-7.279,75.126l-0.68,7.086l-2.718,28.634l0.389,0.098l13.395,1.262l1.262-6.795l2.427-1.941l27.178,2.427h0.193
	l-2.426-4.756l12.326,0.873l30.77,1.748l19.219,0.873l3.3-91.045l0.68,0.097L472.452,324.756L472.452,324.756z"/>
<path id="OR" inkscape:connector-curvature="0" fill="#F7931E" stroke="#000000" stroke-width="0.9706" stroke-linejoin="round" d="
	M162.238,162.757l15.433,4.659l41.543,11.454L223,179.84l2.718,0.679l24.557,5.824l13.686,3.009l2.718,0.583l0.388-2.039
	l9.221-38.243l-2.621-6.212l0.291-2.426l10.095-13.201l4.756-11.938l-3.3-3.592l-0.097-1.844v-0.097l-1.844-0.388l-27.275-6.212
	l-1.456,0.68l-5.338-0.874l-10.774,1.165l-6.6-0.874l-6.989-0.097l-0.583-1.747l-14.753-1.359l-5.241-2.815l-0.68-1.844l0.583-7.28
	l-3.494-3.785l-0.292,0.097l-0.679,0.485l-4.854-2.524l-2.912,0.874l-1.941-0.971l-2.038,8.348l-1.359,2.33l-6.018,14.656
	l-1.747,8.056l-1.068,0.097l-5.629,13.395l-3.786,5.727l-1.359,0.971l-3.494,6.794l-0.68,7.183l-2.135,6.406l1.262,5.824V162.757
	L162.238,162.757z"/>
<path id="UT" inkscape:connector-curvature="0" fill="#F7931E" stroke="#000000" stroke-width="0.9706" stroke-linejoin="round" d="
	M352.385,204.979l-25.042-3.785l-13.978-2.232l-2.718-0.485l-0.582,3.106l-5.144,31.448l-10.095,62.799l-0.485,3.106l2.523,0.389
	l25.042,3.979l17.568,2.523l32.71,4.076l2.524,0.292l0.193-2.524l0.776-7.668l1.845-17.665l5.241-50.57l0.291-2.524l-1.94-0.194
	l-24.752-3.009l-3.785-0.485l2.427-18.927l0.194-1.262L352.385,204.979L352.385,204.979z"/>
<path id="WY" inkscape:connector-curvature="0" fill="#F7931E" stroke="#000000" stroke-width="0.9706" stroke-linejoin="round" d="
	M461.387,192.167l0.776-15.142l0.971-20.383l0.098-2.523l-1.262-0.097l-24.945-1.456l-13.978-1.165l-26.498-2.524l-33.195-4.077
	l-1.359,9.512l-0.097,0.583l-0.389,3.203l-1.747,12.521l-3.3,25.236l-0.874,6.309l-0.388,3.203l-0.194,1.262l-2.427,18.927
	l3.785,0.485l24.752,3.009l1.94,0.194l2.33,0.292l23.975,2.33l19.219,1.553l28.827,1.844l1.941,0.097l0.097-2.523l0.485-10.192
	l0.874-17.762l0.389-7.571l0.097-2.523L461.387,192.167L461.387,192.167z"/>
<path id="AR" inkscape:connector-curvature="0" fill="#39B54A" stroke="#000000" stroke-width="0.9706" stroke-linejoin="round" d="
	M690.456,328.056l-10.483,1.554l4.271-6.795l-1.845-3.785l-36.98,3.591l-31.255,2.523l-4.562,0.292l0.582,2.717l3.785,19.607
	l0.098,4.367l1.067,26.401l0.098,4.368l0.291,0.098l1.456,1.553l5.823-0.194l0.583,8.542l0.193,2.426l3.01-0.291l9.221-0.68
	l36.593-3.396h0.194l-0.098-2.136l0.971-0.68l-1.747-3.3l3.688-15.53l-1.456-1.747l5.533-6.115l-0.389-5.241l4.076-6.794v-0.098
	l-0.193-0.194l3.494-3.203l-0.971-3.882l2.718-4.271l-0.582-3.979l2.911-5.63v-0.097H690.456L690.456,328.056z"/>
<path id="IA" inkscape:connector-curvature="0" fill="#39B54A" stroke="#000000" stroke-width="0.9706" stroke-linejoin="round" d="
	M661.531,197.7l-5.339-2.814l-2.912-3.98l-0.97-5.727l0.776-2.621l-2.815-3.397l0,0l-4.756,0.485l-47.755,3.98l-19.122,1.067
	l-4.853,0.291l-2.038,0.097l1.649,10.774L572.039,201l2.135,3.203v0.68l0.68,0.097l3.106,9.124l3.009,4.756l0.194,5.436l3.3,4.562
	l-0.582,1.941l3.009,12.23v0.292l0,0l19.897-0.583l21.257-1.844l20.869-2.621l4.756,4.174l0.194,0.194l0.873-0.388l-0.679-3.786
	l3.591-2.232l1.456-9.9l-1.456-0.679l0.874-5.047l4.367-0.874l4.854-3.494l2.136-6.115l0.097-3.106l-3.883-3.688l-1.164-2.33
	l-3.688-2.329l0.193-0.485L661.531,197.7L661.531,197.7z"/>
<path id="KS" inkscape:connector-curvature="0" fill="#39B54A" stroke="#000000" stroke-width="0.9706" stroke-linejoin="round" d="
	M608.923,312.72l-2.427-41.058l-4.367-2.524l-0.389-1.941l-3.494-3.106l3.397-4.173l-1.359-2.427l-2.523,0.097l-2.33-1.65
	l-0.97-0.776l-3.301,0.194l-35.816,1.359l-16.403,0.388h-32.613l-13.104-0.194l-3.688-0.097v1.844l-0.097,5.727l-1.068,51.346v1.941
	l4.174,0.098l22.519,0.291l52.705-0.777l37.563-1.746l3.688-0.292L608.923,312.72L608.923,312.72z"/>
<path id="MO" inkscape:connector-curvature="0" fill="#39B54A" stroke="#000000" stroke-width="0.9706" stroke-linejoin="round" d="
	M653.669,242.446l-4.756-4.173l-20.869,2.621l-21.257,1.844l-19.897,0.582l0,0l-0.098,0.583l2.427,4.659l2.232,1.553l2.621,4.659
	l0.389,0.388l0.97,0.776l2.33,1.65l2.523-0.097l1.359,2.427l-3.397,4.173l3.494,3.106l0.389,1.941l4.367,2.524l2.427,41.058
	l0.097,2.523l0.194,2.524l0.098,2.523l0.194,2.62l0.097,2.524l4.562-0.292l31.255-2.523l36.98-3.591l1.845,3.785l-4.271,6.795
	l10.482-1.554h0.097v-0.776l0.194-4.465l1.941-2.427l-0.582-2.718l-0.098-0.098l-0.097-0.097l0.388-1.262l0.583,0.194l0.291,0.776
	l-0.097,0.291v0.097v0.777l0.388,0.097l0.776-0.971v-0.097l0.098-0.291l2.523-1.553l0.388-0.195l0.874-7.959l-0.194-0.388
	l-0.291-0.097l-6.892-5.631l1.067-2.037l-1.94-5.533l-3.495-2.718l-6.6-2.912l-4.174-3.397l0.485-6.989l1.262-6.503l-6.988,0.388
	l-2.136-2.232l-0.971-4.465l-11.065-9.318l-3.105-8.639l0.776-4.271l0,0L653.669,242.446L653.669,242.446z"/>
<path id="NE" inkscape:connector-curvature="0" fill="#39B54A" stroke="#000000" stroke-width="0.9706" stroke-linejoin="round" d="
	M572.33,204.688l-3.009-3.009l-10.58-3.106l-3.397-0.097l-5.145,1.456l-6.114-3.882l-19.122,0.194l-27.856-0.292l-32.904-1.068
	l-2.912-0.097l-0.098,2.523l-0.388,7.571l-0.874,17.763l-0.485,10.192l-0.097,2.523l2.329,0.097l23.684,0.874l4.659,0.194
	l-0.389,19.024l-0.097,1.262l3.688,0.097l13.104,0.194h32.613l16.403-0.388l35.816-1.359l3.3-0.194l-0.388-0.388l-2.621-4.659
	l-2.232-1.553l-2.427-4.659l0.098-0.583v-0.291l-3.009-12.23l0.582-1.941l-3.3-4.563l-0.194-5.436l-3.009-4.756l-3.106-9.124
	l-0.68-0.097L572.33,204.688L572.33,204.688z"/>
<path id="OK" inkscape:connector-curvature="0" fill="#39B54A" stroke="#000000" stroke-width="0.9706" stroke-linejoin="round" d="
	M609.505,322.911l-0.193-2.62l-0.098-2.523l-0.194-2.524l-3.688,0.292l-37.563,1.746l-52.705,0.777l-22.519-0.291l-4.174-0.098
	h-1.553l-6.115-0.194l-1.941-0.097l-4.076-0.098l-1.941-0.097l-0.097,2.523l-0.098,2.524l-0.097,2.523l-0.098,2.62h0.583
	l23.489,0.583l24.848,0.291l0.291,33.195l1.747,5.824l3.883,3.688l4.174,0.194l0.873-1.747l5.728,5.242l7.474,0.775l1.358,1.553
	l2.718-1.262l6.795,3.203v1.845l2.523-0.097l2.621-2.232l4.853,3.105l4.563,1.65l3.105-4.271l9.9,4.66l3.688-3.01l3.01-1.164
	l2.426,0.582l9.124-2.621l4.854,2.039l4.368,2.814l3.785,0.68h0.097l-0.097-4.368l-1.067-26.401l-0.098-4.367l-3.785-19.607
	l-0.583-2.718L609.505,322.911L609.505,322.911z"/>
<path id="SD" inkscape:connector-curvature="0" fill="#F7931E" stroke="#000000" stroke-width="0.9706" stroke-linejoin="round" d="
	M566.895,135.58l-16.403,0.485l-39.505,0.291l-42.805-1.165l-3.786-0.194l-0.097,2.232l-0.389,8.833l-0.291,6.697l-0.097,1.359
	h-0.291l-0.098,2.523l-0.971,20.383l-0.776,15.142l-0.097,2.621l2.911,0.097l32.904,1.067l27.857,0.292l19.121-0.194l6.115,3.883
	l5.145-1.456l3.397,0.097l10.58,3.106l3.009,3.009l1.844,0.194v-0.68L572.039,201l1.358-5.144l-1.65-10.774l2.039-0.098
	l-0.194-4.465l-4.854-34.166l-2.523-4.271l3.883-6.406l0.097-0.292L566.895,135.58L566.895,135.58z"/>
<path id="LA" inkscape:connector-curvature="0" fill="#39B54A" stroke="#000000" stroke-width="0.9706" stroke-linejoin="round" d="
	M667.646,462.974l1.456-1.845l-3.98-1.067l-1.747,1.456L667.646,462.974L667.646,462.974z M672.597,390.953h-0.194l-36.593,3.396
	l-9.221,0.68l-3.01,0.291l0.098,2.33l1.941,18.732l3.203,4.465l0.097,2.621l3.106,5.436l2.523,7.959l-0.874,4.465l-0.679,11.065
	l-1.456,3.591h0.193l0.292,2.524l-1.65,2.329l12.036-1.358l9.415,2.62l6.697,0.874l3.397-2.427l-1.845-2.427l6.212-1.941
	l-0.194,2.136l3.203-0.776l2.621,4.076l2.232-0.776l5.824,3.979l-3.592,1.262l8.25,2.427h3.106l1.844-2.232l3.98-2.135l2.814,4.076
	l1.941-3.688l-0.583-5.823l5.242,2.038l0.582,1.747l6.212,0.776l3.106,2.523l-0.389,2.038l4.368-4.076l-1.65-2.136l-7.279-1.844
	l-2.718-1.553l-0.098-2.912l3.009,0.388l2.33-4.756l-3.009-4.174l-1.65,3.979l-3.785-0.679l2.62-4.271l-1.747-0.485l-4.271,3.01
	l-6.115,0.388l-1.747-1.358l2.815-4.95l3.3-0.098l5.63,1.845l4.076,0.388l0,0l-2.232-2.814l-4.271-8.348l1.165-4.659l-33.487,3.688
	l1.262-1.262l-1.358-3.494l2.038-3.009l1.165-7.571l7.377-12.618l-3.592-4.368l0.194-3.203l-2.232-5.241V390.953L672.597,390.953z"
	/>
<path id="TX" inkscape:connector-curvature="0" fill="#39B54A" stroke="#000000" stroke-width="0.9706" stroke-linejoin="round" d="
	M472.355,327.376l-0.68-0.097l-3.3,91.045l-19.219-0.873l-30.77-1.748l-12.327-0.873l2.427,4.756l0.098,0.098l10.482,10.482
	l6.019,7.086l7.959,5.921l5.629,10.288l2.136,10.774l4.563,3.009l3.591,3.979l5.145,1.845l7.474,4.756l3.397,1.262l4.659-4.659
	l1.456-4.95l2.426-4.756l7.571-3.009l2.912,1.456l8.444,0.679l7.668,4.757l5.241,0.971l-1.456,2.717l3.01,1.941l2.814,3.397
	l0.582,3.592l1.845,2.426l4.271,10.289l4.271,3.592l3.301,5.436l4.173,4.271l1.845,0.582l1.553,11.065l4.563,2.523l0.193,3.494
	l1.165-0.291l7.959,9.706l3.979,0.874l5.048,3.009h7.765l5.63,3.106l6.697-1.456l-3.009-2.815l-2.718-8.153l-1.067-7.085
	l-1.554-2.33l0.68-4.756l-2.038-0.194l-2.718-4.465l3.105,3.301l3.592-1.263l1.941-5.144l-3.883-5.242l5.824,0.68l2.718-4.174
	l-0.389-1.456l2.427-3.203l-0.582,2.815l2.717-2.136l-1.067-3.785l3.494,1.844l4.465-2.523l-4.367-4.562l2.718,1.067l5.047,0.291
	l6.601-1.456l7.377-4.95l4.465-3.688l0.679-2.718l2.718-2.814l-1.455-4.659l0.291-2.912l4.853-2.135l-0.388,5.144h2.912
	l-3.203,2.718l12.909-6.794l2.135-0.097l1.359-6.213h0.389l1.455-3.591l0.68-11.065l0.874-4.465l-2.523-7.959l-3.106-5.436
	l-0.097-2.621l-3.203-4.465l-1.941-18.733l-0.098-2.329l-0.194-2.427l-0.582-8.542l-5.823,0.195l-1.456-1.554l-0.291-0.097h-0.098
	l-3.785-0.68l-4.368-2.814l-4.854-2.039l-9.123,2.621l-2.427-0.582l-3.009,1.164l-3.688,3.01l-9.9-4.66l-3.106,4.271l-4.562-1.65
	l-4.854-3.105l-2.621,2.232l-2.523,0.097v-1.845l-6.794-3.203l-2.718,1.263l-1.359-1.554l-7.474-0.775l-5.727-5.242l-0.874,1.747
	l-4.174-0.194l-3.882-3.688l-1.747-5.824l-0.292-33.195l-24.848-0.291l-23.489-0.583H472.355L472.355,327.376z"/>
<path id="CT" inkscape:connector-curvature="0" fill="#39B54A" stroke="#000000" stroke-width="0.9706" stroke-linejoin="round" d="
	M936.996,143.345l-13.977,5.338l-0.194-0.485l-7.862,2.33l-1.747,0.485l0.194,0.971l3.688,14.268l1.164,1.456l-2.523,3.106
	l1.747,1.65l0,0l5.63-5.436l3.009-4.173l0.583,1.165l14.171-6.309l0.291-0.291l-0.097-2.33l-0.583-2.039l-3.009-8.444l-0.388-1.068
	L936.996,143.345L936.996,143.345z"/>
<path id="NH" inkscape:connector-curvature="0" fill="#39B54A" stroke="#000000" stroke-width="0.9706" stroke-linejoin="round" d="
	M923.893,75.983l-1.262,1.553l-1.456-0.291l-0.776,6.406v0.097l2.329,8.735l-0.193,1.747l-4.174,5.533l1.067,5.047v6.309
	l-0.776,5.824l4.368,15.918l0,0l0,0l3.979-1.262l12.229-4.077l5.533-6.018l0,0v-1.553l0.291-2.523l-0.68,0.291l-0.097-0.582
	l-6.115-7.474l-0.194-0.679L923.893,75.983L923.893,75.983z"/>
<path id="RI" inkscape:connector-curvature="0" fill="#39B54A" stroke="#000000" stroke-width="0.9706" stroke-linejoin="round" d="
	M937.094,143.539l0.388,1.068l3.009,8.444l0.583,2.039l0.097,2.33l0.194-0.292l4.659-3.688l-0.874-6.6l1.941-0.388l0,0l-4.271-5.145
	l-4.465,1.747L937.094,143.539L937.094,143.539z"/>
<path id="VT" inkscape:connector-curvature="0" fill="#39B54A" stroke="#000000" stroke-width="0.9706" stroke-linejoin="round" d="
	M923.02,132.862l-4.368-15.918l0.776-5.824v-6.309l-1.067-5.047l4.174-5.533l0.193-1.747l-2.329-8.735l-1.262,0.485l-5.339,1.941
	l-5.241,2.039l-12.036,4.368l-0.679,0.194l4.367,10.192l1.456,9.609l5.145,8.056l4.854,15.918l0.193-0.097l0.777-0.292l2.232-0.679
	l1.94-0.68l5.533-1.65L923.02,132.862L923.02,132.862z"/>
<path id="AL" inkscape:connector-curvature="0" fill="#0000FF" stroke="#000000" stroke-width="0.9706" stroke-linejoin="round" d="
	M718.313,344.848l0.389,0.776l1.359,0.874l0.582,39.795l0.194,21.84l4.95,29.896l0.388-0.098l4.368,0.874l1.165-8.639l1.941,4.854
	l3.3,3.009l6.309-3.688l-0.485-0.485l-4.367-9.997l41.931-6.795l2.815-0.485v-0.097l-2.621-4.95l-0.194-7.086l-2.135-3.883
	l1.067-7.571l1.747-1.94l-7.183-12.813l-13.007-39.602l-0.097-0.194l-2.912,0.485l-15.53,2.523l-7.765,0.971l-16.307,2.232
	L718.313,344.848L718.313,344.848z"/>
<path id="FL" inkscape:connector-curvature="0" fill="#0000FF" stroke="#000000" stroke-width="0.9706" stroke-linejoin="round" d="
	M873.226,462.974l-4.173-8.153l0.193-3.883l-12.521-15.239l-3.01-4.756l-3.979-8.057l-2.718-6.794l-2.135-2.427l-0.485-3.106
	l-0.098-0.097l-6.697-0.388l-2.62,2.038l-1.456,7.474l-1.359-3.494l-45.813,5.727l-3.3-5.145l0.097-0.097l0,0l-2.814,0.485
	l-41.932,6.794l4.368,9.998l0.291,0.097l-1.067,3.979l3.105-1.358l3.397-3.009l5.824-0.194l6.697-2.427l4.562,0.68l-1.067,1.649
	l8.348,2.815l7.183,3.494l1.649,3.883l5.339-1.165l12.618-10.289l4.659,0.194l19.024,14.365l3.882-0.776l4.077,5.436l0.776,8.639
	l-1.262,5.436l0.582,2.718l3.397,6.794l-1.553-5.338l4.367-0.098l0.389,3.883l-2.329,6.018l8.056,11.065l3.009,0.098l-2.523-3.397
	l3.106,0.389l1.844-1.165l-0.776,6.212l4.174,3.3l2.814,7.571l3.786,2.329l4.853,1.262l6.697,8.542l3.494,1.844l-4.659,0.292
	l2.136,2.426l7.668-2.523l3.785-2.135l3.495-12.23l-1.748-19.024l-0.388-1.941l-9.318-15.53L873.226,462.974z M867.305,448.802"/>
<path id="GA" inkscape:connector-curvature="0" fill="#0000FF" stroke="#000000" stroke-width="0.9706" stroke-linejoin="round" d="
	M801.496,330.482l-1.262,0.291l-3.688,0.776l-13.589,2.815l-1.262,0.291l-1.359,0.193l-7.57,1.457l-2.039,0.388l-8.25,1.553
	l-1.747,0.194l0.097,0.194l13.007,39.602l7.183,12.813l-1.747,1.94l-1.067,7.571l2.135,3.883l0.194,7.086l2.621,4.95v0.097
	l-0.098,0.098l3.301,5.144l45.813-5.727l1.358,3.494l1.456-7.474l2.621-2.038l6.697,0.388l0,0l-0.582-10.482l1.262-2.232
	l-0.68-4.174l1.359-3.979l2.038-2.232l-1.456-1.359l3.397-4.174h-0.098l-5.823-5.436l-7.96-11.355l-4.367-2.039l-18.733-15.724
	l-4.562-5.823l-8.833-3.689l-0.485-1.941L801.496,330.482L801.496,330.482L801.496,330.482z"/>
<path id="MS" inkscape:connector-curvature="0" fill="#39B54A" stroke="#000000" stroke-width="0.9706" stroke-linejoin="round" d="
	M683.176,349.313v0.098l-4.076,6.794l0.388,5.241l-5.532,6.115l1.456,1.747l-3.688,15.53l1.747,3.3l-0.971,0.68l0.098,2.136v0.679
	l2.232,5.241l-0.194,3.203l3.591,4.368l-7.376,12.618l-1.165,7.571l-2.038,3.009l1.358,3.494l-1.262,1.262l33.486-3.688
	l-1.164,4.659l4.271,8.348l2.232,2.814v-0.097l3.592-4.077l7.57-1.649l6.988,0.776l1.068-1.359v-0.097l-4.95-29.896l-0.194-21.84
	l-0.582-39.795l-1.359-0.874l-0.389-0.776h-0.193l-4.854,0.68l-8.541,1.164l-19.413,2.427L683.176,349.313L683.176,349.313z"/>
<path id="SC" inkscape:connector-curvature="0" fill="#0000FF" stroke="#000000" stroke-width="0.9706" stroke-linejoin="round" d="
	M801.496,330.482L801.496,330.482l-2.718,5.338l0.485,1.941l8.833,3.688l4.562,5.823l18.733,15.725l4.368,2.039l7.959,11.355
	l5.823,5.436l0,0l0.971-4.465l-1.553-4.271l4.174,3.106l2.329-1.845l-3.979-3.3l4.854-0.291l7.57-6.406l-0.873-1.65l4.659-3.592
	l-0.485-1.746l3.397-2.136l0.193-4.95l5.339-9.9l3.591-4.563l0.389-0.193l-21.646-13.687l-8.056,1.554l-10.969-0.389l-5.436-2.814
	l-32.225,10.191H801.496L801.496,330.482z"/>
<path id="IL" inkscape:connector-curvature="0" fill="#39B54A" stroke="#000000" stroke-width="0.9706" stroke-linejoin="round" d="
	M661.434,198.185l-0.193,0.485l3.688,2.33l1.164,2.33l3.883,3.688l-0.097,3.106l-2.136,6.115l-4.854,3.495l-4.367,0.874
	l-0.874,5.047l1.456,0.679l-1.456,9.9l-3.592,2.232l0.68,3.786l-0.873,0.388l0,0l-0.776,4.271l3.105,8.638l11.065,9.318l0.971,4.465
	l2.135,2.232l6.989-0.388l-1.262,6.503l-0.485,6.989l4.174,3.397l6.6,2.912l3.494,2.718l1.941,5.533l-1.067,2.037l6.892,5.631
	l0.291,0.097l-0.582-0.583l1.94-4.562l7.475,2.038l1.844-2.135l-1.456-4.271l6.115-3.591l-1.65-2.33l1.456-3.3v-0.291l-0.388-0.097
	l0.097-8.639l2.136-1.553l3.688-8.638l-0.776-3.786l-2.427-4.562l1.358-5.144l-6.794-47.853l-0.971-1.067l-2.523-5.727l-2.039-2.136
	l-0.873-5.629v-0.194l-13.104,1.844l-7.862,0.971L661.434,198.185L661.434,198.185L661.434,198.185z"/>
<path id="IN" inkscape:connector-curvature="0" fill="#39B54A" stroke="#000000" stroke-width="0.9706" stroke-linejoin="round" d="
	M750.344,200.224l-14.851,2.621l-3.397,0.679l-12.035,1.941l-2.524,2.039l-3.785,1.747l-1.456-0.097l-1.747-0.874l-0.582-0.583
	l6.794,47.852l-1.358,5.145l2.427,4.562l0.776,3.785l-3.688,8.639l-2.136,1.553l-0.097,8.639l0.388,0.097l0.389-0.097l1.456-2.718
	h3.591l4.368-1.456l5.436,2.038l0.582-2.232l3.106-2.33l4.659,0.68l2.523-4.95l6.892,0.583l-0.098-2.815l6.115-8.056l-0.971-3.688
	l4.271-0.097l5.242-4.174l-1.263-4.756l0.194-0.194l-0.194-1.65l-5.823-34.36l-2.621-14.657l-0.291-1.553L750.344,200.224
	L750.344,200.224z"/>
<path id="KY" inkscape:connector-curvature="0" fill="#39B54A" stroke="#000000" stroke-width="0.9706" stroke-linejoin="round" d="
	M693.174,317.185l-0.291-0.776l-0.583-0.194l-0.388,1.262l0.097,0.097l1.067-0.097L693.174,317.185L693.174,317.185z
	 M759.564,253.705l-0.193,0.194l1.262,4.756l-5.242,4.174l-4.271,0.097l0.971,3.688l-6.115,8.056l0.098,2.815l-6.892-0.583
	l-2.523,4.95l-4.659-0.679l-3.106,2.33l-0.582,2.232l-5.436-2.039l-4.368,1.456h-3.591l-1.456,2.718l-0.389,0.097v0.291l-1.456,3.3
	l1.65,2.33l-6.115,3.591l1.456,4.271l-1.844,2.135l-7.474-2.038l-1.941,4.562l0.582,0.583l0.194,0.388l-0.874,7.959l-0.388,0.195
	l-2.523,1.553l-0.098,0.291l2.815-0.389l19.606-2.621l-0.971-3.882l3.3-0.097l39.505-5.242l27.76-4.658l0.389-0.291l0.68-0.777
	l7.279-3.883l5.63-7.376l0.776-2.523l3.688-2.912l4.659-5.92l0.68-0.971l-0.292-0.097h-2.426l-3.106-1.747l-5.532-6.698
	l-1.941-6.794v-0.194l-0.194-0.194l-4.077-2.329l-1.844-3.106l-3.688,3.591l-2.329,0.583l-2.912-1.165l-2.523,1.941l-5.242-2.329
	l-1.358,0.582l-4.95-4.271l-2.523-1.262l-4.756,0.582L759.564,253.705L759.564,253.705z"/>
<path id="NC" inkscape:connector-curvature="0" fill="#0000FF" stroke="#000000" stroke-width="0.9706" stroke-linejoin="round" d="
	M922.049,295.151l-2.136-10.774l1.844,5.629L922.049,295.151L922.049,295.151z M910.207,270.594l-0.194,0.097l-0.291,0.097l0,0
	h0.097l5.339,9.027l4.174,4.174L910.207,270.594L910.207,270.594z M908.46,271.177l-0.776,0.194l0,0l0.193,0.097h1.65l-0.194-0.582
	l0,0l-0.291,0.097h-0.291l0,0v0.194l-0.194,0.097L908.46,271.177L908.46,271.177L908.46,271.177z M818.676,293.307l-0.484,1.456
	l0.097,4.173l-1.067-0.097l-2.523,5.145l-2.815,0.291l-5.241,5.145l-2.33-0.874l-3.009,4.465l-7.959,7.183l-3.883,0.971
	l-4.076,3.785l-0.194,2.523l-3.591,1.941l0.097,4.271v0.971l1.262-0.291l13.589-2.815l3.688-0.776l1.262-0.291h0.291l32.226-10.191
	l5.436,2.814l10.968,0.389l8.057-1.553l21.645,13.686l0.389-0.291l9.997-4.077l0.098-5.339l3.591-6.503l3.883-3.688l8.057-5.338
	l1.067-1.941l2.136,0.971l0.97-6.406l-1.164,2.232l-4.077,1.359l-3.882,0.097l4.756-3.495l-1.456-1.553l1.65-3.494l-9.124-1.455
	l-0.389-0.486l7.766-1.456l2.523,1.262l3.203-0.291l2.62-1.942l1.941-3.786l1.747-0.485l-0.291-5.338l-2.232-2.135l-2.232,2.038
	l0.485,5.145l-1.65-6.309l-1.262-0.291l-9.609,3.979l4.271-4.174l0.193-1.65l4.465-1.068l1.263-3.3l3.009,1.748l-3.203-4.756
	l-2.232-1.941l0,0l-38.825,11.065l-24.751,6.309l-25.043,4.659L818.676,293.307L818.676,293.307z"/>
<path id="OH" inkscape:connector-curvature="0" fill="#39B54A" stroke="#000000" stroke-width="0.9706" stroke-linejoin="round" d="
	M818.191,206.63l-2.427-10.483l-0.485-2.135l-2.718-11.939l-3.494,2.232l-7.475,5.727l-4.853,5.921l-3.785,0.583l-6.989,3.979
	l-3.882-2.33l-11.745-1.359l0,0l-6.212,1.553l-6.115,1.456l-6.406,1.359l-0.971,0.291l0.291,1.553l2.621,14.657l5.824,34.36
	l0.193,1.65l0.777-0.776l4.756-0.582l2.523,1.262l4.95,4.271l1.359-0.582l5.241,2.329l2.523-1.941l2.912,1.165l2.329-0.583
	l3.688-3.591l1.845,3.106l4.076,2.329l0.194,0.194l0,0l4.174-2.039l1.456-3.203l-1.165-3.3l3.3-5.047l2.427-0.388l-0.291-4.271
	l3.979-5.436l0.68,0.776l3.591-2.718l3.106-4.659l0.485-21.257l0.194-0.097L818.191,206.63L818.191,206.63z"/>
<path id="TN" inkscape:connector-curvature="0" fill="#0000FF" stroke="#000000" stroke-width="0.9706" stroke-linejoin="round" d="
	M786.257,300.49l-27.76,4.658l-39.505,5.242l-3.3,0.097l0.971,3.882l-19.606,2.621l-2.815,0.389v0.098l-0.776,0.97l-0.389-0.097
	v-0.777v-0.097l-1.067,0.097l0.098,0.098l0.582,2.718l-1.941,2.427l-0.194,4.465v0.776v0.097l-2.912,5.631l0.583,3.979l-2.718,4.271
	l0.971,3.883l-3.494,3.203l0.193,0.193l2.136-0.193l19.413-2.428l8.541-1.164l4.854-0.68h0.194l-0.098-0.194l16.307-2.232
	l7.765-0.97l15.53-2.524l2.912-0.485l1.747-0.193l8.251-1.554l2.038-0.388l7.57-1.457l1.359-0.193v-0.971l-0.098-4.271l3.592-1.941
	l0.194-2.523l4.076-3.785l3.883-0.971l7.959-7.183l3.009-4.465l2.33,0.874l5.241-5.145l2.814-0.291l2.524-5.145l1.067,0.098
	l-0.098-4.174l0.485-1.456l-1.553,0.291l-5.532,1.553l-6.601,1.358l-16.598,3.397l-1.747,0.292L786.257,300.49L786.257,300.49z"/>
<path id="VA" inkscape:connector-curvature="0" fill="#39B54A" stroke="#000000" stroke-width="0.9706" stroke-linejoin="round" d="
	M908.751,270.982h0.291l0.291-0.097l0,0l-0.194-0.485L908.751,270.982L908.751,270.982L908.751,270.982z M909.527,239.437
	l-1.262,0.485l-1.941,0.874l-0.68,0.874l0.291,0.097l-2.329,14.462l0.874,2.33l1.358-6.018l2.523-7.862l1.165-5.145V239.437
	L909.527,239.437z M810.038,275.836l-0.68,0.97l-4.659,5.921l-3.688,2.912l-0.776,2.523l-5.63,7.376l-7.279,3.883l-0.68,0.777
	l1.747-0.292l16.598-3.397l6.601-1.358l5.532-1.553l1.554-0.291l0.097,0.194l25.042-4.659l24.751-6.309l38.826-11.065l0,0
	l-0.292-0.485l-0.097-0.291l0.68,0.679l0,0l0,0l0.776-0.194l-0.098-0.097l-0.679-3.3l0.484,0.097l1.554,2.912l0,0l0,0l0.291-0.097
	l0.194-0.097l-0.389-0.776l-3.979-6.115l-4.95,0.874l-2.232,1.844l-2.136-1.941l-7.279-2.427l-5.047-0.194l9.803-0.874l5.436,3.688
	l1.554-2.427l-4.368-5.532l3.105,0.194l-1.649-4.465l-3.883,0.194l-9.221-7.474h-1.165l13.007,6.406l-0.874-4.465l0.874-1.456
	l-6.601-2.523l-5.727-0.388l-2.815-2.524l-2.329,1.456l-0.874-6.697l0.971,0.194l-0.193-5.436l-0.194-0.194l-0.194,0.097
	l-0.194-0.097l-0.485-0.388l-0.291-0.292l-3.105-1.359l-3.203-2.33l-4.465-1.165l-0.292-0.097v0.097l-0.582,4.077l-9.027-3.882
	l0.194,5.629l-4.95,9.415l-3.009,3.3l-1.941,5.727l-5.921-2.038l-2.912,13.201l-2.329,4.465l-0.389,5.824l-1.747,2.815l-6.503,1.941
	l-5.338,4.174l-2.524,0.388l-2.427,2.135l-6.114-2.232l-1.068-3.009L810.038,275.836L810.038,275.836z"/>
<path id="WI" inkscape:connector-curvature="0" fill="#39B54A" stroke="#000000" stroke-width="0.9706" stroke-linejoin="round" d="
	M705.792,134.803l-2.427,3.009l-1.456,4.368l0.68,2.427L705.792,134.803z M631.15,114.226l-2.232,2.523l1.067,11.648l-6.212,5.629
	l-1.165,5.436l3.397,3.106l-0.971,13.395l3.592,2.718l2.329,0.194l7.377,4.465l4.659,4.853l5.921,3.009l1.358,7.474v0.485l0,0
	l2.815,3.397l-0.776,2.621l0.97,5.727l2.912,3.98l5.339,2.814l-0.098,0.485l0,0l21.16-2.426l7.862-0.971l13.104-1.844l-0.389-1.456
	v-4.562l-2.62-4.853l-0.68-6.115l1.262-6.794l-0.68-5.242l2.33-6.503l-0.874-1.068l0.194-6.018l1.262-4.562l-1.456-1.553
	l-2.814,0.971l-1.554,4.077l-3.688,2.135l1.164-5.145l3.301-4.368l0.193-1.941l0.098-0.097l-4.659-4.659v-6.601l-5.241-4.271
	l-7.183-0.485l-7.377-1.941l-15.919-4.853l-3.105-1.747l-0.291,0.291l-4.95-0.679l-1.65,0.97l0.68-7.085l-7.959,4.077l-9.707,1.553
	L631.15,114.226z"/>
<path id="WV" inkscape:connector-curvature="0" fill="#39B54A" stroke="#000000" stroke-width="0.9706" stroke-linejoin="round" d="
	M836.73,223.713l-13.783,3.397l-4.271-18.442l0,0l-0.194,0.097l-0.485,21.257l-3.106,4.659l-3.591,2.718l-0.68-0.777l-3.979,5.436
	l0.291,4.271l-2.427,0.388l-3.3,5.047l1.165,3.3l-1.456,3.203l-4.174,2.038l0,0v0.194l1.941,6.794l5.532,6.698l3.106,1.747h2.426
	l0.292,0.097l0.193,0.097l1.068,3.009l6.114,2.232l2.427-2.135l2.524-0.388l5.338-4.174l6.503-1.941l1.747-2.815l0.389-5.824
	l2.329-4.465l2.912-13.201l5.921,2.039l1.941-5.727l3.009-3.3l4.95-9.415l-0.194-5.63l9.027,3.883l0.582-4.077v-0.097l0,0
	l-2.814-4.854l-5.824-0.679l-3.396,2.621v1.941l-2.912,0.68l-4.271,3.009l-2.232,0.485l-4.465,6.309l-2.232-10.192L836.73,223.713
	L836.73,223.713z"/>
<path id="DE" inkscape:connector-curvature="0" fill="#39B54A" stroke="#000000" stroke-width="0.9706" stroke-linejoin="round" d="
	M893.803,207.697l0.389,1.456l8.057,23.004l9.221-2.718l-0.098-0.194h0.194l0.291,0.097l0,0l0.194-0.097l-0.194-0.388l-2.329-6.212
	l-11.356-10.774l0.485-7.474l0,0h-2.329l-1.747,1.358L893.803,207.697L893.803,207.697L893.803,207.697z"/>
<path id="MD" inkscape:connector-curvature="0" fill="#39B54A" stroke="#000000" stroke-width="0.9706" stroke-linejoin="round" d="
	M838.671,223.228l2.232,10.191l4.465-6.309l2.232-0.485l4.271-3.009l2.911-0.679v-1.941l3.397-2.621l5.824,0.679l2.814,4.853l0,0
	l0.291,0.097l4.465,1.165l3.203,2.329l3.106,1.359l0.291,0.291l0.389-0.776l1.649-0.097l1.359,0.776l-1.262,2.33v0.097l-1.845,5.629
	l6.019,3.883l6.018,0.291l3.979,1.844l-1.65-4.659l-5.144-1.747l-1.263-3.979l3.203,4.271l2.621,0.388l-2.329-2.329l-1.845-6.892
	l0.485-3.979l-2.038-4.368l2.135-1.747l1.554-5.629l-0.583,8.347l1.65,2.815l1.553-3.3l0.874,5.436l-1.65,3.979l4.757,1.748
	l-4.077,1.359l2.136,3.979l3.494,1.165l1.941-3.397l-0.194,4.756l3.3-0.097l2.136,2.427h0.097l0.68-0.874l1.941-0.874l1.262-0.485
	l-0.097-0.194l2.523-7.474v-0.292l-0.485-1.941v-0.097l-9.221,2.718l-8.057-23.004l-0.389-1.456l-1.649,0.485l-6.892,2.135
	l-37.952,10.58l-6.892,1.844L838.671,223.228L838.671,223.228z"/>
<path id="NJ" inkscape:connector-curvature="0" fill="#39B54A" stroke="#000000" stroke-width="0.9706" stroke-linejoin="round" d="
	M913.798,173.919l-10.191-2.524l-1.747-0.485l-1.65-0.388l0,0l-4.076,9.026l1.747,2.136l-0.098,6.503l1.845,0.292l3.785,9.9
	l-0.194,0.291l-4.756,6.989l0.485,5.338l11.453,3.882l0.098,4.465l2.62-3.688l0.389-5.338l2.718-1.845l-1.067-3.979l2.038-4.756
	v-10.386l-0.68-3.397l-4.562,0.097l1.164-4.659L913.798,173.919L913.798,173.919L913.798,173.919z"/>
<path id="NY" inkscape:connector-curvature="0" fill="#39B54A" stroke="#000000" stroke-width="0.9706" stroke-linejoin="round" d="
	M926.901,177.025l4.854-4.271v-0.194L926.901,177.025z M936.608,162.854l-6.504,6.018l-9.997,4.271l-2.621,2.232l-0.194,2.135
	l-2.718,2.232l0.389,2.912l4.174-1.65l6.115-4.95l6.794-3.591l10.289-9.706l-7.28,5.533l-2.329,0.97L936.608,162.854
	L936.608,162.854z M914.478,177.414l1.941-0.485l1.067-4.368v-0.097l-1.747-1.65l2.523-3.106l-1.164-1.456l-3.688-14.268
	l-0.194-0.971l-0.485-0.292l-0.291-4.271l-0.291-4.659l-0.291-5.047v-0.291l-0.194,0.097l-4.854-15.918l-5.145-8.056l-1.456-9.609
	l-4.367-10.191l-0.583,0.291l-20.286,6.794l-4.076,4.368l-4.563,8.736l0.194,1.941l-6.018,9.124l3.688,1.262l1.067,6.891
	l-4.271,5.63l-12.813,7.765l-2.427-0.971l-9.512,1.359l-8.833,5.338l0.485,2.815l3.105,2.718l-1.747,8.542l-6.988,8.153
	l-0.097,0.097l0,0l0.679,2.912l5.145,1.262l29.508-8.056l29.701-8.93l5.436,4.174l1.067,2.426l6.31,2.718l0.193,0.389l1.65,0.388
	l1.747,0.485l10.191,2.523L914.478,177.414z"/>
<path id="PA" inkscape:connector-curvature="0" fill="#39B54A" stroke="#000000" stroke-width="0.9706" stroke-linejoin="round" d="
	M900.016,170.134l-6.31-2.718l-1.067-2.426l-5.436-4.174l-29.701,8.93l-29.508,8.056l-5.145-1.262l-0.679-2.912l-1.65,1.262
	l-2.621,1.844l-4.756,4.853l-0.582,0.485l2.718,11.939l0.485,2.135l2.427,10.483l0.484,2.038l0,0l4.271,18.442l13.782-3.397
	l1.941-0.485l1.747-0.485l6.892-1.844l37.952-10.58l6.892-2.136l1.649-0.485l0,0l0.776-1.941l1.747-1.358h2.33l0.291-0.874
	l3.785-4.271l0.389-0.68l0.291-0.194l-3.785-9.9l-1.845-0.292l0.098-6.503l-1.747-2.136l4.076-9.026l0,0L900.016,170.134
	L900.016,170.134z"/>
<path id="ME" inkscape:connector-curvature="0" fill="#39B54A" stroke="#000000" stroke-width="0.9706" stroke-linejoin="round" d="
	M923.893,75.983l14.074,33.001l0.194,0.679l6.115,7.474v-0.097l0.971-0.292l0.193-5.532l1.554-1.941l0.971-5.145l-0.874-0.874
	l1.65-5.047l5.63-2.621l3.688-4.465l1.359-7.765l5.921-0.388l-0.776-3.979l7.377-2.815l0.485-4.368l1.747,0.388l4.853-3.979
	l2.136-5.145l-4.95-4.95l-5.241-1.067l-1.941-3.98v-2.33l-3.203,0.971l-3.592-1.262v-3.979l-9.706-20.966l-7.086-3.688l-7.861,6.601
	l-2.136-0.388l-1.844-3.397l-2.524,0.971l-3.591,17.86l1.262,5.824l1.067,11.841l-2.814,9.124l1.941,1.456l-2.33,4.465l-2.523-0.388
	L923.893,75.983L923.893,75.983z"/>
<path id="MI" inkscape:connector-curvature="0" fill="#39B54A" stroke="#000000" stroke-width="0.9706" stroke-linejoin="round" d="
	M720.061,205.465l12.035-1.941l3.397-0.679l14.851-2.621l0.291,1.262l0.971-0.291l6.406-1.359l6.115-1.456l6.212-1.553l-0.097-0.291
	l3.203-6.309l-0.292-5.242l3.592-9.026l2.814,1.65l1.068-2.039l-0.292-7.765l-2.62-4.854l-3.883-10.289l-3.397-3.786l-1.747-0.485
	l-6.309,4.368l0.679,0.874l-3.3,6.212l-3.203-0.583l-0.971-6.503l1.359-0.485l2.814-6.503l0.291-11.453l-4.367-9.707l-9.707-1.65
	l-0.97-1.456l-9.027-2.621l-4.076,5.047l0.388,4.368l-3.106,3.882l0.68,6.018l-3.009,2.135v-7.571l-2.718,5.727l-3.203,5.047
	l-2.135,1.65l1.067,5.338l-1.359,5.532l0.776,6.892l-0.971,3.397l6.989,13.395l0.873,5.145l-0.873,9.512l-4.659,10.677
	L720.061,205.465L720.061,205.465z M655.125,115.293l3.105,1.747l15.919,4.853l7.377,1.941l7.183,0.485l5.241,4.271v6.601
	l4.659,4.659v-0.097l3.785-10.968l4.563-3.203l3.494-3.883l0.582,3.495l3.592-5.533l8.639-3.3l0.679-1.359l8.736,1.068l3.396,1.747
	l1.65-4.271l1.553,0.971l6.795-1.067l-1.65-2.718l-3.009-1.747l0.582-6.31l-5.921,3.3l-5.436-0.679l-1.747-4.174l0.583-1.359
	l-7.377,3.494l-4.756,0.292l-8.542,5.241l-0.971,1.941l-5.241-1.262l-3.3,1.456l-6.601-5.727l-14.656-4.465l-0.292-1.747
	l-9.415,9.027l-5.338,1.359l-7.571,5.727L655.125,115.293L655.125,115.293z M689.485,93.26l-11.356,5.63l3.785,3.688l1.456-3.688
	l3.883-4.756L689.485,93.26L689.485,93.26z"/>
<path id="AK" inkscape:connector-curvature="0" fill="#754C24" stroke="#000000" stroke-width="0.9706" stroke-linejoin="round" d="
	M156.609,547.903l-3.397,3.01l2.427-0.194l2.815-2.232L156.609,547.903L156.609,547.903z M160.394,547.71h-1.067l1.844,0.485
	L160.394,547.71z M161.947,547.516l-0.388-0.194v1.067L161.947,547.516z M170.198,544.409l-2.427,0.485l-2.135,2.815
	L170.198,544.409L170.198,544.409z M287.935,533.732l2.815,4.271l6.309,3.979l-1.456-3.397l-6.018-5.145L287.935,533.732
	L287.935,533.732z M285.509,530.918l0.485,4.465l0.97-0.971L285.509,530.918z M285.994,529.462l2.232,3.106l-0.292-2.039
	L285.994,529.462z M279.103,530.238l-0.583,1.845l0.776-1.263L279.103,530.238L279.103,530.238z M279.296,528.782l3.883,6.406
	l-0.583-4.368L279.296,528.782L279.296,528.782z M213.876,532.374l-2.523,1.649l-3.106,4.077l1.553,1.65l7.183-5.339
	L213.876,532.374z M276.967,524.221l-1.941,0.971l1.844,0.582L276.967,524.221L276.967,524.221z M279.588,522.57l3.979,5.824
	l-1.068-5.339L279.588,522.57L279.588,522.57z M215.526,528.88l-2.329,1.747l1.067,1.164l3.106-2.329L215.526,528.88L215.526,528.88
	z M183.592,471.612L183.592,471.612L183.592,471.612L183.592,471.612z M211.158,443.658l-3.979,3.3l-2.427-0.68l-5.629,3.203
	l-1.068-0.679l-6.406,7.183l-6.503,1.456l0.582,3.494l2.912,3.979l5.436,5.241l-0.874,2.038l4.077,1.747l-2.135,0.389l-2.621-2.038
	l1.359,3.009l-1.747,1.067l-5.533-5.047l-4.368,0.776l-7.474,2.814l3.397,3.786l-0.485,2.329l2.232,2.718l7.377,2.912l5.338-2.718
	l0.874,2.038l-1.456,6.115h-4.465l-5.241,2.329l-0.291-1.65l-2.718,1.068l-1.262,2.814l-4.465,3.397v4.95l1.747,0.776l-1.359,4.174
	l5.824,5.047l3.688-1.553l-0.776,6.212l1.068,1.359l4.465,0.971l1.65,1.844l3.883,0.291l1.844,1.941l3.979-1.165l-1.844,2.524
	l-1.456,5.144l-11.842,7.668l-1.553,1.554l-2.232-0.874l-3.591,0.874l-5.145,3.396l8.056-2.329l1.165,1.747l10.386-3.397
	l0.291,1.359l4.077-4.077l8.542-5.921l0.68,0.389l7.474-5.921l-1.941-2.329l2.524-4.174l6.6-7.862l5.047-0.971l1.553,1.067
	l-6.115,1.747l-1.65,6.504l0.194,3.494l2.136-0.194l10.289-6.212l0.776-2.33l-0.874-3.591l3.106,0.776l2.232-1.456l6.406,3.883
	l-0.485,1.067l14.56,1.845l3.397-1.068l0.971,1.456l12.618,6.018l2.136-1.262l0.194-7.279l1.65,3.3l8.153,5.921l0.68,2.427
	l7.085,3.979l1.844,5.145l1.747-3.979l3.591,6.988l2.427-3.979l-1.941-4.95l-7.474-0.776l-11.454-10.969l-6.212-4.562l-4.756,4.659
	h-2.814l-6.503-4.271l-6.406-0.292l-9.124-57.558l-1.553-2.718l-3.688-2.232l-5.533,1.067l-4.271-0.874l-5.436-2.135l-5.727,0.388
	l-1.456-2.718l-4.562-0.679l-0.777-1.65l-2.038,2.329L211.158,443.658L211.158,443.658z"/>
<path fill="#754C24" stroke="#000000" stroke-width="0.9706" stroke-linejoin="round" d="M677.315,523.846l-0.1,0.6h0.8l-0.2-0.5
	L677.315,523.846z M739.516,524.945l0.6,1l0.801,1l0.699,0.4l-0.199-0.8l1.3,0.1v-0.7l-1.4-0.6l-0.899,0.2L739.516,524.945z
	 M741.716,531.546l-0.2-0.4l-0.7,0.2l-2.3-0.601l-1.5,0.101l-0.4,0.399l-1.399,0.2l-1.3,0.601l-1,0.199l0.5,1l1,0.101l1.199-0.4
	l1,0.101l0.9-0.2l-0.1-0.3l1.3-0.101l0.6-0.399l0.3,0.3l1.2-0.5L741.716,531.546z M686.615,521.245l0.101,1.9l-3,1.4l-0.101,0.899
	l1,1.3l1.301,0.5l0.5,2.7l-0.801,3.2l0.101,2.2l-0.7,1.6l1,1.101l0.2-0.9l2.5,0.5l0.8-0.9l2,0.2l2,1.2l4.1-1.2l0.5-0.899l2.9,1h3
	l2.6-0.801l2.7,1.301l1.5-0.601l3,1.101l0.9-0.801l1.2,0.801l2.6-1.101l0.9,0.4l0.8-0.7l1.1,0.1l1.601,0.2l1.699-1.2l1.301-1.6
	l0.6-0.1l1.1-2.4l1-1.5l2.5-0.5l0.4-0.9l0.6,0.601l0.301-0.9l-1-0.8l0.1-2.5l0.3-1.2l-1.6,0.601l-3.601-1.5l-3-1l-2.8-0.301
	l-3.2,0.301l-8.699-1.4l-1.5,0.7l-5.2-0.601l-2.3,0.4l-2.7-0.4l-3,0.2l-3.9-0.899l-2.6,0.1L686.615,521.245z">
<title>Puerto Rico</title>
</path>
<path fill="#754C24" stroke="#000000" stroke-width="0.9706" stroke-linejoin="round" d="M766.387,533.842l0.801,2.2l-0.301,2.3
	l-1.199,1l0.199,0.7l1.5-1h3.2l0.601,0.3l2-0.7l2.199-0.399l1.7,0.3l2.8-1.1l1.2,0.5l2.7-0.7l2.8-1.4h1.2l2.3-1l1-1.1l1.7,0.1
	l1-0.899l-1-0.5l-2.3,0.5l-0.7-0.601l-1.9,0.2l-1.5-0.2l-2.199,0.101l-1,0.5l-0.7,0.5l-0.9-0.101l-1.7-1.2l-1.199-1.6l-0.4,0.1
	l-0.3,0.601l-2.3-0.9l-4.4,2.1l-1.5-0.199l-1.6-0.601l-1.2,0.5L766.387,533.842z M778.188,512.442l0.6,0.5l-0.2,0.6l-0.8,0.3
	l-1.7,0.2l-0.1,0.4l-0.601-0.601l-0.199,1.101l-1,0.5l0.1,1.1l1.6,1.1l0.601-0.699l1.3,0.199l0.8-0.5l1,0.601l1.1-0.2l-0.1,0.8
	l1.3,0.1l0.5,0.7l0.3-1.8l-0.1-0.8l-1.1-1.2l0.8,0.3l0.5-0.2l-0.4-1l0.8-0.1l0.5,1.4l0.7-0.5v1.1h0.7l0.7-0.3l0.2-0.7l-2.2-1
	l-0.4-0.5l-1.2-0.1l-0.399-0.5h-1l-0.101,0.3l-1.1-0.1l0.1-0.601L778.188,512.442z M765.587,509.642l0.7,1l-0.8,0.601l-0.9-1.7
	L765.587,509.642z M755.188,513.442l-0.601,0.899l1.3,0.8l2.5-0.8l1.301,0.7l-0.5,0.4l2.6,1.199l-0.7,1.301l0.601,0.199l0.5-1.199
	l1.399-0.301l-0.7-1.3l1.101,0.101l0.1,1.399l1.5,0.8h1.2l1,0.801l0.9-0.2l-0.2-1l1.2-0.2l0.899,0.6l0.7-0.5l-1-0.8l0.5-0.399
	l-2.1-1.7l-1.7-0.4v-0.5l-2.3-0.5l-1.9-1.399l1.3,1.5l-0.3,0.399l-0.5-0.1l-1.4-1.3l-0.1,0.699l-3.2-0.199l-0.3,0.8l-0.8-0.5
	l-0.4,0.6L755.188,513.442z">
<title>U.S. Virgin Islands</title>
</path>
</svg>
