<?xml version="1.0" encoding="utf-8"?>
<!-- Generator: Adobe Illustrator 15.0.2, SVG Export Plug-In . SVG Version: 6.00 Build 0)  -->
<!DOCTYPE svg PUBLIC "-//W3C//DTD SVG 1.1//EN" "http://www.w3.org/Graphics/SVG/1.1/DTD/svg11.dtd">
<svg version="1.1"
	 id="svg" inkscape:version="0.48.4 r9939" sodipodi:docname="us.svg" xmlns:dc="http://purl.org/dc/elements/1.1/" xmlns:cc="http://creativecommons.org/ns#" xmlns:rdf="http://www.w3.org/1999/02/22-rdf-syntax-ns#" xmlns:svg="http://www.w3.org/2000/svg" xmlns:sodipodi="http://sodipodi.sourceforge.net/DTD/sodipodi-0.dtd" xmlns:inkscape="http://www.inkscape.org/namespaces/inkscape"
	 xmlns="http://www.w3.org/2000/svg" xmlns:xlink="http://www.w3.org/1999/xlink" x="0px" y="0px" width="700px" height="452.58px"
	 viewBox="0 0 700 452.58" enable-background="new 0 0 700 452.58" xml:space="preserve">
<sodipodi:namedview  id="namedview69" inkscape:pageopacity="0" inkscape:pageshadow="2" inkscape:window-width="1920" inkscape:window-height="1137" inkscape:window-x="1192" inkscape:window-y="118" inkscape:current-layer="svg2" pagecolor="#ffffff" bordercolor="#666666" borderopacity="1" objecttolerance="10" gridtolerance="10" guidetolerance="10" showgrid="false" inkscape:zoom="0.80893016" inkscape:cx="817.66365" inkscape:cy="409.3738" inkscape:window-maximized="1">
	</sodipodi:namedview>
<path id="MA" inkscape:connector-curvature="0" fill="#0000FF" stroke="#000000" stroke-width="0.9706" stroke-linejoin="round" d="
	M651.479,111.642L651.479,111.642h0.755l0.226,0.902l0.677,1.277l0,0l3.532-4.284l2.932,0.977l0.679-1.503l4.811-2.555l-2.028-3.983
	l0.525,2.555l-2.479,1.878l-2.779,0.226l-5.563-5.937l-2.479-3.757l2.479-2.63l-2.555-0.15l-1.053-2.48l-0.074-0.15l-4.283,4.66
	l-9.469,3.157l-3.08,0.979l0,0l-0.527,0.226l-4.281,1.277l-1.504,0.526l-1.729,0.527l-0.602,0.225v0.226l0.227,3.907l0.225,3.607
	l0.229,3.307l0.375,0.226l1.353-0.376l6.089-1.804l0.149,0.375l10.82-4.133l0.075,0.15l0.979-0.375l3.457-1.353l3.307,3.983l0,0
	L651.479,111.642z"/>
<path id="MN" inkscape:connector-curvature="0" fill="#0000FF" stroke="#000000" stroke-width="0.9706" stroke-linejoin="round" d="
	M350.05,55.129l1.503,5.336l3.156,19.238l1.502,7.665l0.451,6.764l1.729,4.058l0.375,3.457l0.304,1.127L358.992,103l-3.008,4.96
	l1.954,3.307l3.759,26.453l0.146,3.457l3.76-0.226l14.807-0.826l36.974-3.082l3.686-0.375v-0.376l-1.055-5.786l-4.584-2.33
	l-3.604-3.757l-5.711-3.457l-1.808-0.15l-2.778-2.104l0.753-10.371l-2.63-2.405l0.898-4.209l4.813-4.358l-0.825-9.019l1.729-1.954
	l0,0l5.86-6.162l6.688-8.567l2.557-1.804l4.51-2.179l4.732-3.532l-3.155,0.601l-1.879-1.428l-7.214,0.978l-1.128-1.353l-6.464,2.63
	l-5.188-2.179l-1.429-1.728l-4.135,0.3l-2.779-1.428l0.898-1.052l-3.53-1.127h-3.154l-5.036,2.18l-0.979-1.503l-7.967-1.127
	l-2.705-6.763l-0.303-2.029l-3.456-0.977l0.303,5.787l-9.169,0.677L350.8,55.058L350.05,55.129L350.05,55.129z"/>
<path id="MT" inkscape:connector-curvature="0" fill="#39B54A" stroke="#000000" stroke-width="0.9706" stroke-linejoin="round" d="
	M278.131,54.453L253.256,52.8l-18.112-1.728l-18.036-2.104l-11.197-1.502l-17.886-2.781l-8.943-1.503l-19.989-3.833l-2.104-0.451
	l-3.232,15.331l1.428,2.78l1.127,4.284l-0.676,0.601l1.427,3.908l1.953,1.653l5.563,9.319l0.525,1.578l2.255-0.15l-2.63,12.325
	l-1.052,0.3l-1.428,4.134l7.438,0.526l0.602,3.457l4.208,10.296l0.752,0.601l2.93,6.012l0.752-0.601l6.238-0.075l7.891,0.826
	l1.953-2.555l2.331,4.209l0.45,0.225l0.075-0.451l1.052-7.365l25.701,3.157l20.516,1.954l10.823,0.902l19.313,1.127l0.979,0.075
	h0.225l0.075-1.053l0.227-5.185l0.3-6.839l0.076-1.729l0.149-3.005l1.203-23.597l0.979-18.337l0.074-3.005L278.131,54.453
	L278.131,54.453z"/>
<path id="ND" inkscape:connector-curvature="0" fill="#39B54A" stroke="#000000" stroke-width="0.9706" stroke-linejoin="round" d="
	M348.472,55.129L325.78,55.58l-15.856-0.075l-13.603-0.3l-15.932-0.601l-0.826-0.075l-0.074,3.006l-0.979,18.337l-1.203,23.598
	l-0.148,3.005l2.931,0.15l33.145,0.902l30.586-0.226l12.697-0.375l2.56-0.151l-0.304-1.127l-0.375-3.457l-1.729-4.058l-0.451-6.764
	l-1.502-7.666l-3.156-19.238l-1.503-5.336H348.472L348.472,55.129L348.472,55.129z"/>
<path id="HI" inkscape:connector-curvature="0" fill="#F7931E" stroke="#000000" stroke-width="0.9706" stroke-linejoin="round" d="
	M239.954,396.688l-2.33-1.729l-2.029,0.524l0.451,4.21l-2.781,3.457l2.405,5.483l0.676,5.636l2.781,1.809l1.728-2.781l3.082-2.256
	l3.757-0.979l4.135-3.531l-4.059-3.457l-0.076-2.104L239.954,396.688L239.954,396.688z M226.277,390.601l-1.128-0.977l-1.052,1.428
	L226.277,390.601L226.277,390.601z M220.64,387.37l0.301-2.781l-1.428-0.227L220.64,387.37L220.64,387.37z M225.375,382.786
	l-1.277,0.602l0.902,2.854l1.953,0.149l0.601,2.479l2.104,0.9l4.661-2.181l-4.359-3.606L225.375,382.786L225.375,382.786z
	 M215.756,379.704l-0.677,2.027l3.231-0.074l3.006,0.752l-1.578-2.479L215.756,379.704L215.756,379.704z M206.287,373.767
	l-1.729-1.649l-3.307,2.557l2.104,3.908l1.503-1.578l4.283,0.897l-0.375-1.803L206.287,373.767L206.287,373.767z M184.568,363.622
	l-5.262,1.953l-0.525,1.428l2.104,1.504l2.931,0.752l2.104-4.135L184.568,363.622L184.568,363.622z"/>
<path id="ID" inkscape:connector-curvature="0" fill="#39B54A" stroke="#000000" stroke-width="0.9706" stroke-linejoin="round" d="
	M156.913,38.896l-6.688-1.353l-2.179-0.526l-0.978-0.225l-8.719,39.229l0.375,3.231l-0.3,3.382l0.15,0.751v0.075l0.075,1.428
	l2.555,2.781l-3.684,9.243l-7.815,10.221l-0.226,1.878l2.029,4.81l-7.139,29.609l-0.301,1.579l2.104,0.45l21.268,4.209l8.492,1.579
	l2.18,0.375l2.104,0.375l10.822,1.728l19.389,2.931l2.18,0.301l0.301-2.48l0.677-4.886l2.555-19.539l1.354-9.694l0.301-2.479
	l-0.451-0.225l-2.33-4.209L193.061,116l-7.891-0.827l-6.238,0.075l-0.752,0.601l-2.93-6.012l-0.752-0.601L170.29,98.94l-0.602-3.458
	l-7.438-0.525l1.427-4.134l1.052-0.3l2.631-12.324l-2.255,0.15l-0.525-1.578l-5.563-9.318l-1.953-1.653l-1.429-3.908l0.677-0.601
	l-1.126-4.284l-1.428-2.78l3.23-15.331H156.913L156.913,38.896z"/>
<path id="WA" inkscape:connector-curvature="0" fill="#39B54A" stroke="#000000" stroke-width="0.9706" stroke-linejoin="round" d="
	M73.195,63.697l2.706,2.931l-0.452,5.636l0.527,1.428l4.058,2.18l11.422,1.052l0.451,1.353l5.412,0.075l5.11,0.677l8.342-0.902
	l4.134,0.676l1.127-0.526l21.116,4.81l1.429,0.3l-0.15-0.751l0.3-3.382l-0.375-3.232l8.718-39.229l-1.202-0.225l-17.586-4.134
	l-15.331-3.908l-17.359-4.81l-5.185-1.277l1.203,6.538l-1.127,2.104l-2.029-1.052l1.954,9.093l-2.104,3.007l-0.977,2.78v2.855
	l-4.434,3.082l-1.879-1.203l-1.803,0.902l3.307-4.284l-0.827,2.931l1.879-2.029l1.502,0.301l-0.451-3.758l0.977,0.15l2.029-4.509
	L86.95,38.67l-2.63,3.382l-1.728,0.075l1.878-2.104l2.105-0.526l-0.751-3.833l-2.104-0.526l-1.053-1.804l-1.277,0.677l-6.914-3.007
	l-6.087-4.734l-1.653,4.584l-0.15,1.953l1.278,3.457l-0.827,11.197l-0.601,1.729l3.382,0.301l-3.382,2.405l1.804,0.902l-1.428,4.81
	l-0.677-3.757l-1.277,4.359l1.729,2.104l1.878-0.15l2.255,1.353l1.127,2.179h1.352v0.001H73.195z"/>
<path id="AZ" inkscape:connector-curvature="0" fill="#39B54A" stroke="#000000" stroke-width="0.9706" stroke-linejoin="round" d="
	M205.76,237.896l-25.326-3.153l-13.602-1.953l-19.389-3.08l-1.954-0.301v0.146l-3.308,14.578l-1.729-0.074l-2.63-2.33l-3.308,2.779
	l-0.075,11.949l-1.202,2.557v0.229v0.071l-0.15,1.881l2.63,7.063l2.33,3.156l-4.208,2.479l-1.653,3.082l-2.706,6.61l-1.353,0.304
	l-0.075,5.481l2.33,1.729l-1.203,3.31l-2.706,0.146l0,0l-1.578,2.936l5.41,3.381l10.221,5.711l31.563,16.76l26.754,3.311h0.302
	l2.104-22.172l0.525-5.483l5.637-58.166l0.301-2.705L205.76,237.896L205.76,237.896z"/>
<path id="CA" inkscape:connector-curvature="0" fill="#39B54A" stroke="#000000" stroke-width="0.9706" stroke-linejoin="round" d="
	M90.254,137.193l-2.931-0.751l-32.165-8.868l-11.949-3.607v0.301l-0.677,7.439l-3.156,8.792l-5.26,6.538l-0.15,3.307l2.555,4.584
	l1.277,6.012l-1.804,4.885l0.301,4.886l-0.902,2.028l3.081,6.688l1.953,2.555l-0.15,7.29l4.659,4.435l2.706-4.51l2.067,1.644
	l-2.067,0.386l-0.075,3.833l0.826,4.81l-2.255-2.179l-1.277-2.932l-0.375,4.06l1.052,8.041l4.209,5.185l-2.781,3.606l0.452,4.584
	l3.006,4.659l5.26,14.431l1.654,0.898l-0.526,9.993l0.827,1.203l11.273,4.058l3.457,3.686l1.203,2.404l3.307,1.877l3.607,0.678
	l1.503,4.135l3.007,1.43l4.509,5.336l4.209,6.988l-0.3,6.465l2.33,3.08l30.737,3.006l0,0l2.705-0.147l1.203-3.31l-2.33-1.729
	l0.075-5.482l1.353-0.303l2.706-6.611l1.653-3.08l4.208-2.479l-2.33-3.155l-2.63-7.063l0.15-1.88v-0.075l-1.954-2.629l-6.013-8.043
	L113.63,232.19l-16.232-23.294l-9.168-12.701l-8.867-12.775l10.221-43.361L90.254,137.193L90.254,137.193z"/>
<path id="CO" inkscape:connector-curvature="0" fill="#39B54A" stroke="#000000" stroke-width="0.9706" stroke-linejoin="round" d="
	M296.693,195.81l0.302-14.729l-3.607-0.149l-18.338-0.677l-1.803-0.075l-1.502-0.075l-22.319-1.428l-14.88-1.202l-18.563-1.804
	l-1.804-0.227l-0.226,1.954l-4.058,39.153l-1.429,13.677l-0.6,5.938l-0.15,1.953l2.33,0.228l37.876,3.31l16.684,1.054l16.608,0.75
	l2.404,0.076l1.502,0.072l3.157,0.076l1.502,0.073l4.734,0.15h1.202v-1.502l0.827-39.754l0.074-4.435v-1.429L296.693,195.81
	L296.693,195.81z"/>
<path id="NV" inkscape:connector-curvature="0" fill="#39B54A" stroke="#000000" stroke-width="0.9706" stroke-linejoin="round" d="
	M145.866,226.999l7.815-48.623l3.983-24.349l0.451-2.405l-2.18-0.375l-8.491-1.579l-21.269-4.209l-2.104-0.452l-2.104-0.45
	l-10.596-2.33l-19.013-4.509l-2.105-0.526l-0.677,2.855l-10.221,43.361l8.868,12.775l9.168,12.7l16.233,23.296l11.647,16.383
	l6.013,8.043l1.953,2.629v-0.227l1.202-2.555l0.075-11.949l3.308-2.779l2.63,2.328l1.729,0.076l3.308-14.58v-0.148L145.866,226.999
	L145.866,226.999z"/>
<path id="NM" inkscape:connector-curvature="0" fill="#39B54A" stroke="#000000" stroke-width="0.9706" stroke-linejoin="round" d="
	M283.391,249.394l0.075-1.953l0.076-1.953l0.076-1.95l-2.404-0.076l-16.608-0.752l-16.684-1.051l-37.876-3.312l-2.33-0.227
	l-0.301,2.707l-5.636,58.164l-0.526,5.486l-2.105,22.17l0.303,0.076l10.371,0.979l0.978-5.264l1.879-1.502l21.042,1.879h0.15
	l-1.879-3.685l9.543,0.679l23.823,1.354l14.881,0.676l2.555-70.49l0.527,0.074L283.391,249.394L283.391,249.394z"/>
<path id="OR" inkscape:connector-curvature="0" fill="#39B54A" stroke="#000000" stroke-width="0.9706" stroke-linejoin="round" d="
	M43.21,123.967l11.949,3.607l32.165,8.868l2.931,0.75l2.104,0.526l19.013,4.509l10.596,2.33l2.104,0.451l0.3-1.579l7.14-29.61
	l-2.029-4.81l0.226-1.878l7.815-10.221l3.684-9.243l-2.555-2.781l-0.075-1.428v-0.075l-1.429-0.3l-21.117-4.81l-1.127,0.526
	l-4.134-0.676l-8.342,0.902l-5.109-0.677l-5.412-0.075l-0.452-1.353l-11.423-1.052l-4.058-2.18l-0.526-1.427l0.451-5.636
	l-2.705-2.931l-0.227,0.075l-0.525,0.375l-3.758-1.954l-2.255,0.677l-1.502-0.752l-1.578,6.464l-1.052,1.804L57.639,81.73
	l-1.353,6.238l-0.827,0.075l-4.358,10.371l-2.932,4.434l-1.052,0.752l-2.706,5.26l-0.526,5.562l-1.653,4.959l0.977,4.509
	L43.21,123.967L43.21,123.967z"/>
<path id="UT" inkscape:connector-curvature="0" fill="#39B54A" stroke="#000000" stroke-width="0.9706" stroke-linejoin="round" d="
	M190.43,156.657l-19.389-2.93l-10.822-1.728l-2.104-0.375l-0.451,2.405l-3.983,24.349l-7.814,48.623l-0.376,2.404l1.954,0.301
	l19.389,3.082l13.602,1.953l25.326,3.154l1.955,0.229l0.149-1.955l0.601-5.938l1.429-13.677l4.058-39.153l0.226-1.953l-1.501-0.151
	l-19.164-2.329l-2.931-0.375l1.879-14.654l0.15-0.977L190.43,156.657L190.43,156.657z"/>
<path id="WY" inkscape:connector-curvature="0" fill="#39B54A" stroke="#000000" stroke-width="0.9706" stroke-linejoin="round" d="
	M274.824,146.737l0.601-11.724l0.751-15.781l0.077-1.954l-0.979-0.075l-19.313-1.127l-10.823-0.902l-20.516-1.954l-25.701-3.157
	l-1.052,7.365l-0.075,0.452l-0.302,2.48l-1.354,9.694l-2.555,19.539l-0.677,4.885l-0.301,2.48l-0.149,0.977l-1.879,14.654
	l2.931,0.375l19.164,2.329l1.501,0.15l1.804,0.227l18.563,1.804l14.88,1.202l22.319,1.428l1.502,0.075l0.075-1.954l0.375-7.891
	l0.677-13.752l0.302-5.862l0.075-1.953L274.824,146.737L274.824,146.737z"/>
<path id="AR" inkscape:connector-curvature="0" fill="#0000FF" stroke="#000000" stroke-width="0.9706" stroke-linejoin="round" d="
	M452.18,251.95l-8.117,1.201l3.312-5.262l-1.43-2.933l-28.635,2.781l-24.195,1.95l-3.532,0.228l0.451,2.104l2.93,15.184l0.077,3.381
	l0.825,20.438l0.072,3.386l0.229,0.073l1.127,1.201l4.509-0.146l0.451,6.61l0.148,1.877l2.33-0.227l7.141-0.525l28.332-2.629h0.146
	l-0.072-1.649l0.753-0.527l-1.354-2.555l2.855-12.021l-1.128-1.354l4.28-4.733l-0.302-4.06l3.156-5.261v-0.075l-0.148-0.15
	l2.704-2.479l-0.752-3.007l2.104-3.307l-0.45-3.082l2.254-4.357v-0.073h-0.071V251.95z"/>
<path id="IA" inkscape:connector-curvature="0" fill="#0000FF" stroke="#000000" stroke-width="0.9706" stroke-linejoin="round" d="
	M429.784,151.021l-4.134-2.179l-2.258-3.081l-0.751-4.434l0.604-2.029l-2.18-2.63l0,0l-3.687,0.375l-36.974,3.082l-14.81,0.826
	l-3.757,0.225l-1.578,0.075l1.277,8.342l-1.051,3.983l1.648,2.48v0.526l0.526,0.075l2.405,7.063l2.329,3.682l0.146,4.209
	l2.558,3.531l-0.449,1.503l2.329,9.47v0.226l0,0l15.402-0.451l16.458-1.428l16.157-2.029l3.685,3.231l0.148,0.15l0.676-0.301
	l-0.522-2.932l2.776-1.729l1.128-7.665l-1.128-0.526l0.681-3.907l3.381-0.677l3.759-2.705l1.654-4.734l0.072-2.405l-3.008-2.854
	l-0.897-1.804l-2.855-1.803l0.149-0.375L429.784,151.021L429.784,151.021z"/>
<path id="KS" inkscape:connector-curvature="0" fill="#0000FF" stroke="#000000" stroke-width="0.9706" stroke-linejoin="round" d="
	M389.053,240.075l-1.879-31.79l-3.381-1.955l-0.302-1.502l-2.705-2.405l2.63-3.229l-1.052-1.88l-1.954,0.075l-1.805-1.277
	l-0.754-0.601l-2.556,0.149l-27.729,1.053l-12.698,0.3h-25.251l-10.146-0.149l-2.854-0.076v1.429l-0.075,4.434l-0.827,39.755v1.504
	l3.231,0.073l17.437,0.228l40.809-0.604l29.083-1.352l2.854-0.227L389.053,240.075L389.053,240.075z"/>
<path id="MO" inkscape:connector-curvature="0" fill="#0000FF" stroke="#000000" stroke-width="0.9706" stroke-linejoin="round" d="
	M423.697,185.665l-3.687-3.23l-16.154,2.029l-16.458,1.428l-15.405,0.451l0,0l-0.075,0.451l1.879,3.607l1.729,1.202l2.026,3.607
	l0.303,0.3l0.752,0.602l1.805,1.276l1.954-0.075l1.052,1.879l-2.63,3.23l2.705,2.404l0.302,1.504l3.381,1.953l1.879,31.79
	l0.075,1.955l0.15,1.953l0.071,1.953l0.15,2.024l0.075,1.955l3.532-0.229l24.195-1.953l28.636-2.778l1.428,2.932l-3.311,5.265
	l8.116-1.203h0.074v-0.604l0.15-3.457l1.503-1.879l-0.451-2.104l-0.075-0.074l-0.075-0.076l0.301-0.979l0.451,0.149l0.229,0.603
	l-0.075,0.227v0.074v0.603l0.3,0.075l0.604-0.752v-0.073l0.071-0.228l1.954-1.201l0.3-0.15l0.681-6.162l-0.15-0.303l-0.226-0.072
	l-5.335-4.358l0.821-1.576l-1.502-4.285l-2.706-2.104l-5.105-2.254l-3.232-2.63l0.376-5.411l0.979-5.035l-5.409,0.302l-1.654-1.729
	l-0.752-3.457l-8.563-7.215l-2.403-6.688l0.601-3.308l0,0L423.697,185.665L423.697,185.665z"/>
<path id="NE" inkscape:connector-curvature="0" fill="#0000FF" stroke="#000000" stroke-width="0.9706" stroke-linejoin="round" d="
	M360.721,156.431l-2.329-2.33l-8.188-2.405l-2.631-0.075l-3.983,1.127l-4.73-3.006l-14.809,0.15l-21.565-0.226l-25.477-0.827
	l-2.255-0.075l-0.076,1.953l-0.301,5.862l-0.677,13.753l-0.375,7.891l-0.076,1.953l1.803,0.075l18.338,0.677l3.607,0.15
	l-0.302,14.729l-0.075,0.979l2.854,0.074l10.146,0.15h25.251l12.699-0.301l27.729-1.053l2.559-0.149l-0.304-0.3l-2.025-3.607
	l-1.729-1.201l-1.879-3.607l0.076-0.451v-0.227l-2.33-9.469l0.451-1.503l-2.56-3.532l-0.146-4.209l-2.329-3.683l-2.404-7.063
	l-0.524-0.075L360.721,156.431L360.721,156.431z"/>
<path id="OK" inkscape:connector-curvature="0" fill="#0000FF" stroke="#000000" stroke-width="0.9706" stroke-linejoin="round" d="
	M389.503,247.966l-0.146-2.029l-0.075-1.953l-0.15-1.95l-2.854,0.227l-29.082,1.354l-40.81,0.602l-17.437-0.227l-3.231-0.074h-1.202
	l-4.733-0.15l-1.503-0.074l-3.156-0.075l-1.502-0.072l-0.075,1.953l-0.076,1.951l-0.075,1.952l-0.075,2.029h0.451l18.187,0.451
	l19.239,0.225l0.225,25.701l1.354,4.51l3.006,2.855l3.229,0.148l0.678-1.354l4.437,4.062l5.787,0.6l1.052,1.203l2.104-0.979
	l5.262,2.479v1.428l1.953-0.072l2.025-1.729l3.761,2.4l3.529,1.276l2.405-3.307l7.664,3.604l2.854-2.33l2.329-0.899l1.88,0.45
	l7.063-2.028l3.758,1.578l3.383,2.18l2.934,0.525h0.074l-0.074-3.384l-0.826-20.438l-0.076-3.381l-2.93-15.183l-0.451-2.104
	L389.503,247.966L389.503,247.966z"/>
<path id="SD" inkscape:connector-curvature="0" fill="#39B54A" stroke="#000000" stroke-width="0.9706" stroke-linejoin="round" d="
	M356.513,102.925l-12.696,0.375l-30.59,0.225l-33.142-0.902l-2.931-0.15l-0.076,1.728l-0.301,6.839l-0.226,5.185l-0.075,1.053
	h-0.225l-0.076,1.953l-0.752,15.781l-0.601,11.724l-0.075,2.029l2.254,0.075l25.476,0.827l21.568,0.226l14.804-0.15l4.735,3.007
	l3.983-1.127l2.63,0.075l8.188,2.405l2.33,2.33l1.427,0.15v-0.526l-1.646-2.479l1.051-3.983l-1.277-8.341l1.579-0.076l-0.146-3.457
	l-3.762-26.453l-1.95-3.307l3.006-4.96l0.075-0.226L356.513,102.925L356.513,102.925z"/>
<path id="LA" inkscape:connector-curvature="0" fill="#0000FF" stroke="#000000" stroke-width="0.9706" stroke-linejoin="round" d="
	M434.52,356.407l1.129-1.428l-3.081-0.826l-1.354,1.127L434.52,356.407L434.52,356.407z M438.352,300.646h-0.146l-28.333,2.631
	l-7.141,0.525l-2.329,0.227l0.072,1.808l1.503,14.502l2.48,3.457l0.075,2.028l2.403,4.21l1.95,6.159l-0.677,3.457l-0.523,8.566
	l-1.129,2.781h0.148l0.228,1.953l-1.274,1.803l9.315-1.051l7.289,2.027l5.188,0.676l2.631-1.879l-1.429-1.879l4.81-1.502
	l-0.147,1.649l2.479-0.601l2.029,3.152l1.728-0.6l4.513,3.08l-2.78,0.977l6.388,1.879h2.405l1.427-1.729l3.081-1.652l2.18,3.156
	l1.502-2.855l-0.448-4.508l4.06,1.578l0.451,1.352l4.81,0.604l2.404,1.955l-0.301,1.576l3.382-3.154l-1.277-1.651l-5.636-1.431
	l-2.104-1.2l-0.074-2.257l2.329,0.304l1.805-3.687l-2.33-3.229l-1.277,3.08l-2.93-0.524l2.028-3.308l-1.354-0.377l-3.308,2.332
	l-4.733,0.301l-1.354-1.055l2.18-3.83l2.555-0.076l4.359,1.431l3.155,0.301l0,0l-1.729-2.18l-3.307-6.464l0.898-3.606l-25.928,2.854
	l0.979-0.979l-1.056-2.705l1.578-2.328l0.901-5.859l5.712-9.771l-2.781-3.381l0.15-2.479l-1.729-4.063v-0.523H438.352
	L438.352,300.646z"/>
<path id="TX" inkscape:connector-curvature="0" fill="#0000FF" stroke="#000000" stroke-width="0.9706" stroke-linejoin="round" d="
	M283.316,252.423l-0.526-0.076l-2.556,70.492l-14.88-0.676l-23.823-1.355l-9.544-0.676l1.879,3.682l0.075,0.076l8.116,8.115
	l4.66,5.486l6.162,4.584l4.358,7.967l1.652,8.342l3.533,2.33l2.78,3.08l3.983,1.43l5.787,3.682l2.63,0.979l3.606-3.604l1.127-3.832
	l1.878-3.684l5.862-2.328l2.254,1.127l6.538,0.522l5.937,3.687l4.06,0.752l-1.128,2.104l2.33,1.502l2.179,2.631l0.451,2.781
	l1.429,1.879l3.307,7.965l3.311,2.781l2.556,4.209l3.231,3.309l1.428,0.449l1.202,8.564l3.53,1.955l0.149,2.705l0.901-0.228
	l6.162,7.515l3.078,0.68l3.907,2.328h6.016l4.355,2.401l5.188-1.127l-2.329-2.178l-2.104-6.314l-0.825-5.481l-1.2-1.805l0.522-3.685
	l-1.578-0.147l-2.104-3.459l2.401,2.559l2.78-0.979l1.502-3.981l-3.006-4.06l4.51,0.523l2.104-3.229l-0.301-1.127l1.879-2.479
	l-0.45,2.181l2.104-1.651l-0.822-2.933l2.704,1.428l3.457-1.952l-3.383-3.53l2.104,0.823l3.908,0.228l5.108-1.127l5.711-3.832
	l3.457-2.854l0.524-2.104l2.104-2.18l-1.127-3.604l0.229-2.257l3.757-1.651l-0.3,3.981h2.254l-2.479,2.104l9.994-5.262l1.652-0.072
	l1.053-4.813h0.302l1.127-2.781l0.525-8.564l0.677-3.457l-1.952-6.159l-2.402-4.212l-0.075-2.027l-2.479-3.455l-1.505-14.504
	l-0.073-1.807l-0.148-1.879l-0.451-6.612l-4.508,0.149l-1.127-1.203l-0.229-0.073h-0.073l-2.935-0.526l-3.381-2.179l-3.759-1.577
	l-7.063,2.025l-1.88-0.448l-2.329,0.899l-2.854,2.332l-7.664-3.608l-2.405,3.308l-3.531-1.274l-3.76-2.403l-2.027,1.729
	l-1.951,0.074v-1.429l-5.263-2.479l-2.104,0.979l-1.052-1.202l-5.787-0.603l-4.438-4.06l-0.677,1.353l-3.23-0.146l-3.005-2.854
	l-1.354-4.511l-0.229-25.7l-19.239-0.228l-18.186-0.453L283.316,252.423L283.316,252.423z"/>
<path id="CT" inkscape:connector-curvature="0" fill="#0000FF" stroke="#000000" stroke-width="0.9706" stroke-linejoin="round" d="
	M643.063,108.937l-10.819,4.133l-0.149-0.375l-6.087,1.804l-1.354,0.375l0.147,0.752l2.854,11.047l0.897,1.127l-1.952,2.405
	l1.354,1.277l0,0l4.357-4.209l2.327-3.231l0.451,0.902l10.975-4.885l0.227-0.226l-0.074-1.804l-0.452-1.579l-2.326-6.538
	l-0.304-0.827L643.063,108.937L643.063,108.937z"/>
<path id="NH" inkscape:connector-curvature="0" fill="#0000FF" stroke="#000000" stroke-width="0.9706" stroke-linejoin="round" d="
	M632.916,56.783l-0.979,1.202l-1.129-0.225l-0.601,4.959v0.075l1.803,6.763l-0.146,1.353l-3.231,4.284l0.825,3.907v4.885
	l-0.602,4.509l3.383,12.324l0,0l0,0l3.08-0.977l9.469-3.157l4.284-4.659l0,0v-1.202l0.226-1.954l-0.523,0.225l-0.074-0.451
	l-4.734-5.787l-0.148-0.525L632.916,56.783L632.916,56.783z"/>
<path id="RI" inkscape:connector-curvature="0" fill="#0000FF" stroke="#000000" stroke-width="0.9706" stroke-linejoin="round" d="
	M643.137,109.087l0.305,0.827l2.326,6.538l0.451,1.579l0.075,1.804l0.149-0.226l3.604-2.855l-0.676-5.11l1.502-0.3l0,0l-3.306-3.983
	l-3.459,1.352L643.137,109.087L643.137,109.087z"/>
<path id="VT" inkscape:connector-curvature="0" fill="#0000FF" stroke="#000000" stroke-width="0.9706" stroke-linejoin="round" d="
	M632.24,100.821l-3.381-12.325l0.6-4.509v-4.885l-0.825-3.908l3.231-4.284l0.146-1.353l-1.803-6.763l-0.979,0.375l-4.136,1.502
	l-4.058,1.579l-9.318,3.382l-0.522,0.15l3.381,7.891l1.128,7.44l3.979,6.237l3.763,12.324l0.146-0.075l0.604-0.226l1.729-0.526
	l1.502-0.526l4.283-1.278L632.24,100.821L632.24,100.821z"/>
<path id="AL" inkscape:connector-curvature="0" fill="#0000FF" stroke="#000000" stroke-width="0.9706" stroke-linejoin="round" d="
	M473.747,264.95l0.302,0.602l1.052,0.676l0.45,30.813l0.15,16.91l3.833,23.146l0.3-0.078l3.383,0.678l0.901-6.688l1.503,3.758
	l2.556,2.33l4.884-2.854l-0.376-0.375l-3.38-7.74l32.465-5.26l2.184-0.378v-0.073l-2.029-3.832l-0.147-5.484l-1.652-3.01
	l0.825-5.859l1.354-1.502l-5.562-9.92l-10.07-30.662L506.596,260l-2.255,0.375l-12.021,1.953l-6.016,0.752l-12.625,1.729
	L473.747,264.95L473.747,264.95z"/>
<path id="FL" inkscape:connector-curvature="0" fill="#0000FF" stroke="#000000" stroke-width="0.9706" stroke-linejoin="round" d="
	M593.688,356.407l-3.229-6.311l0.148-3.011l-9.693-11.799l-2.33-3.685l-3.081-6.235l-2.104-5.263l-1.652-1.881l-0.375-2.402
	l-0.076-0.073l-5.187-0.302l-2.026,1.576l-1.128,5.785l-1.053-2.703l-35.474,4.437l-2.556-3.981l0.076-0.072l0,0l-2.184,0.375
	l-32.465,5.26l3.381,7.74l0.229,0.074l-0.826,3.082l2.404-1.056l2.63-2.33l4.51-0.146l5.188-1.879l3.529,0.522l-0.823,1.277
	l6.464,2.18l5.563,2.705l1.276,3.006l4.134-0.899l9.769-7.967l3.607,0.147l14.729,11.123l3.006-0.604l3.153,4.209l0.604,6.688
	l-0.979,4.209l0.45,2.104l2.631,5.262l-1.203-4.133l3.384-0.076l0.302,3.008l-1.803,4.658l6.234,8.566l2.329,0.073l-1.953-2.631
	l2.404,0.301l1.428-0.897l-0.602,4.811l3.229,2.555l2.183,5.861l2.932,1.803l3.758,0.979l5.188,6.613l2.706,1.428l-3.606,0.227
	l1.652,1.879l5.938-1.953l2.932-1.651l2.705-9.471l-1.354-14.729l-0.302-1.502l-7.214-12.021L593.688,356.407z"/>
<path id="GA" inkscape:connector-curvature="0" fill="#0000FF" stroke="#000000" stroke-width="0.9706" stroke-linejoin="round" d="
	M538.152,253.827l-0.979,0.225l-2.854,0.602l-10.521,2.183l-0.978,0.228l-1.056,0.147l-5.857,1.129l-1.579,0.304l-6.391,1.198
	l-1.354,0.15l0.076,0.146l10.07,30.662l5.562,9.92l-1.354,1.502l-0.822,5.863l1.649,3.006l0.15,5.486l2.028,3.832v0.076
	l-0.075,0.074l2.556,3.979l35.473-4.437l1.054,2.703l1.127-5.785l2.028-1.576l5.187,0.302l0,0l-0.451-8.115l0.979-1.729l-0.525-3.23
	l1.053-3.08l1.577-1.729l-1.127-1.055l2.63-3.229h-0.074l-4.51-4.209l-6.163-8.791l-3.382-1.578l-14.503-12.174l-3.533-4.512
	l-6.839-2.854l-0.375-1.504L538.152,253.827L538.152,253.827L538.152,253.827z"/>
<path id="MS" inkscape:connector-curvature="0" fill="#0000FF" stroke="#000000" stroke-width="0.9706" stroke-linejoin="round" d="
	M446.543,268.407v0.076l-3.156,5.26l0.301,4.059l-4.279,4.734l1.127,1.354l-2.855,12.023l1.354,2.555l-0.751,0.527l0.074,1.652
	v0.522l1.729,4.062l-0.15,2.479l2.781,3.383l-5.711,9.771l-0.902,5.86l-1.574,2.33l1.051,2.705l-0.979,0.977l25.931-2.854
	l-0.901,3.605l3.307,6.463l1.729,2.18v-0.074l2.78-3.156l5.857-1.272l5.41,0.603l0.827-1.056v-0.071l-3.833-23.146l-0.15-16.908
	l-0.445-30.813l-1.057-0.68l-0.301-0.601h-0.148l-3.76,0.522l-6.609,0.9l-15.029,1.879L446.543,268.407L446.543,268.407z"/>
<path id="SC" inkscape:connector-curvature="0" fill="#0000FF" stroke="#000000" stroke-width="0.9706" stroke-linejoin="round" d="
	M538.152,253.827L538.152,253.827l-2.104,4.133l0.375,1.504l6.839,2.854l3.533,4.511l14.503,12.176l3.382,1.58l6.163,8.791
	l4.508,4.209l0,0l0.753-3.459l-1.2-3.308l3.229,2.404l1.804-1.43l-3.079-2.555l3.76-0.229l5.857-4.959l-0.676-1.274l3.607-2.781
	l-0.376-1.352l2.63-1.654l0.146-3.832l4.137-7.666l2.777-3.531l0.303-0.15l-16.761-10.598l-6.233,1.205l-8.492-0.303l-4.209-2.18
	l-24.95,7.893h-0.224V253.827L538.152,253.827z"/>
<path id="IL" inkscape:connector-curvature="0" fill="#0000FF" stroke="#000000" stroke-width="0.9706" stroke-linejoin="round" d="
	M429.709,151.397l-0.149,0.375l2.855,1.804l0.9,1.804l3.007,2.855l-0.074,2.405l-1.654,4.733l-3.759,2.707l-3.38,0.676l-0.677,3.908
	l1.126,0.524l-1.126,7.665l-2.782,1.729l0.526,2.931l-0.679,0.301l0,0l-0.602,3.308l2.402,6.688l8.565,7.214l0.752,3.457
	l1.653,1.728l5.41-0.299l-0.979,5.035l-0.375,5.411l3.231,2.63l5.105,2.256l2.705,2.104l1.504,4.286l-0.825,1.576l5.337,4.359
	l0.227,0.074l-0.451-0.451l1.503-3.531l5.787,1.578l1.428-1.652l-1.127-3.307l4.734-2.782l-1.277-1.805l1.127-2.555v-0.225
	l-0.301-0.075l0.076-6.689l1.653-1.202l2.854-6.688l-0.601-2.933l-1.879-3.531l1.051-3.982l-5.261-37.05l-0.752-0.826l-1.953-4.434
	l-1.578-1.654l-0.678-4.358v-0.15l-10.146,1.428l-6.088,0.751L429.709,151.397L429.709,151.397L429.709,151.397z"/>
<path id="IN" inkscape:connector-curvature="0" fill="#0000FF" stroke="#000000" stroke-width="0.9706" stroke-linejoin="round" d="
	M498.547,152.975l-11.498,2.029l-2.63,0.526l-9.318,1.503l-1.951,1.579l-2.934,1.353l-1.127-0.075l-1.353-0.676l-0.451-0.451
	l5.261,37.049l-1.052,3.983l1.879,3.531l0.602,2.932l-2.854,6.688l-1.654,1.203l-0.074,6.688l0.303,0.075l0.302-0.075l1.128-2.104
	h2.78l3.382-1.127l4.209,1.578l0.45-1.729l2.401-1.803l3.606,0.526l1.954-3.833l5.336,0.451l-0.075-2.18l4.733-6.237l-0.753-2.854
	l3.309-0.076l4.058-3.23l-0.978-3.684l0.146-0.149l-0.146-1.276l-4.509-26.604L499,155.158l-0.226-1.202L498.547,152.975
	L498.547,152.975z"/>
<path id="KY" inkscape:connector-curvature="0" fill="#0000FF" stroke="#000000" stroke-width="0.9706" stroke-linejoin="round" d="
	M454.283,243.534l-0.229-0.604l-0.449-0.148l-0.303,0.977l0.075,0.076l0.826-0.076L454.283,243.534L454.283,243.534z
	 M505.688,194.383l-0.147,0.15l0.978,3.683l-4.06,3.231l-3.307,0.075l0.751,2.856l-4.732,6.236l0.075,2.181l-5.336-0.452
	l-1.953,3.833l-3.607-0.526l-2.401,1.805l-0.45,1.728l-4.209-1.579l-3.382,1.127h-2.78l-1.128,2.104l-0.302,0.075v0.226
	l-1.127,2.556l1.274,1.803l-4.731,2.781l1.127,3.308l-1.43,1.651l-5.784-1.577l-1.506,3.53l0.45,0.451l0.15,0.301l-0.678,6.162
	l-0.303,0.148l-1.953,1.203l-0.072,0.227l2.179-0.303l15.18-2.027l-0.751-3.008l2.558-0.072l30.588-4.061l21.49-3.605l0.304-0.227
	l0.522-0.604l5.639-3.005l4.356-5.711l0.604-1.953l2.854-2.255l3.607-4.583l0.522-0.752l-0.227-0.075h-1.878l-2.405-1.353
	l-4.283-5.187l-1.503-5.26v-0.15l-0.147-0.149l-3.155-1.804l-1.429-2.404l-2.854,2.779l-1.804,0.453l-2.255-0.902l-1.953,1.502
	l-4.063-1.803l-1.051,0.451l-3.832-3.308l-1.954-0.978l-3.683,0.451L505.688,194.383L505.688,194.383z"/>
<path id="NC" inkscape:connector-curvature="0" fill="#0000FF" stroke="#000000" stroke-width="0.9706" stroke-linejoin="round" d="
	M631.488,226.471l-1.653-8.341l1.428,4.358L631.488,226.471L631.488,226.471z M622.32,207.459l-0.15,0.074l-0.227,0.076l0,0h0.073
	l4.136,6.988l3.229,3.23L622.32,207.459L622.32,207.459z M620.968,207.911l-0.602,0.149l0,0l0.146,0.075h1.277l-0.15-0.451l0,0
	l-0.226,0.075h-0.229l0,0v0.149l-0.146,0.076L620.968,207.911L620.968,207.911L620.968,207.911z M551.453,225.044l-0.375,1.127
	l0.075,3.23l-0.826-0.074l-1.953,3.982l-2.18,0.227l-4.063,3.982l-1.804-0.679L538,240.298l-6.163,5.563l-3.006,0.755l-3.156,2.93
	l-0.146,1.953l-2.781,1.504l0.076,3.308v0.752l0.977-0.228l10.521-2.18l2.854-0.604l0.979-0.225h0.227l24.95-7.895l4.21,2.18
	l8.491,0.305l6.236-1.203l16.761,10.598l0.301-0.227l7.74-3.156l0.073-4.135l2.779-5.035l3.006-2.854l6.238-4.133l0.826-1.504
	l1.65,0.752l0.754-4.961l-0.9,1.729l-3.156,1.053l-3.006,0.074l3.683-2.705l-1.128-1.203l1.277-2.705l-7.063-1.127l-0.302-0.375
	l6.014-1.127l1.952,0.979l2.48-0.228l2.026-1.504l1.504-2.932l1.354-0.375l-0.226-4.133l-1.729-1.652l-1.729,1.578l0.376,3.981
	l-1.278-4.884l-0.979-0.226l-7.438,3.08l3.308-3.231l0.149-1.278l3.456-0.826l0.979-2.556l2.33,1.354l-2.479-3.683l-1.729-1.503l0,0
	l-30.06,8.566l-19.163,4.886l-19.394,3.606L551.453,225.044L551.453,225.044z"/>
<path id="OH" inkscape:connector-curvature="0" fill="#0000FF" stroke="#000000" stroke-width="0.9706" stroke-linejoin="round" d="
	M551.078,157.935l-1.88-8.116l-0.375-1.653l-2.105-9.244l-2.704,1.728l-5.788,4.434l-3.757,4.584l-2.931,0.451l-5.411,3.081
	l-3.006-1.804l-9.094-1.052l0,0l-4.813,1.202l-4.731,1.127l-4.963,1.052l-0.752,0.225l0.229,1.203l2.028,11.348l4.51,26.604
	l0.146,1.277l0.604-0.601l3.683-0.451l1.954,0.978l3.832,3.308l1.052-0.451l4.062,1.803l1.953-1.502l2.254,0.902l1.805-0.453
	l2.854-2.779l1.43,2.404l3.154,1.804l0.147,0.149l0,0l3.232-1.578l1.127-2.48l-0.902-2.555l2.558-3.908l1.879-0.3l-0.228-3.308
	l3.081-4.209l0.526,0.602l2.777-2.105l2.403-3.606l0.375-16.458l0.15-0.075L551.078,157.935L551.078,157.935z"/>
<path id="TN" inkscape:connector-curvature="0" fill="#0000FF" stroke="#000000" stroke-width="0.9706" stroke-linejoin="round" d="
	M526.354,230.606l-21.491,3.604l-30.586,4.061l-2.558,0.072l0.751,3.01l-15.18,2.027l-2.181,0.303v0.072l-0.604,0.752l-0.301-0.074
	v-0.604v-0.074l-0.827,0.074l0.077,0.076l0.45,2.104l-1.503,1.883l-0.15,3.457v0.601v0.075L450,256.384l0.452,3.08l-2.104,3.307
	l0.752,3.008l-2.705,2.479l0.148,0.15l1.654-0.15l15.026-1.879l6.612-0.901l3.759-0.523h0.15l-0.076-0.15l12.626-1.729l6.012-0.75
	l12.024-1.955l2.255-0.375l1.354-0.146l6.389-1.203l1.577-0.303l5.857-1.129l1.057-0.146v-0.752l-0.076-3.309l2.781-1.502
	l0.146-1.955l3.155-2.93l3.007-0.752l6.162-5.563l2.329-3.457l1.805,0.678l4.062-3.982l2.179-0.227l1.954-3.982l0.826,0.076
	l-0.075-3.231l0.375-1.127l-1.202,0.225l-4.283,1.203l-5.107,1.051l-12.854,2.631l-1.354,0.227L526.354,230.606L526.354,230.606z"/>
<path id="VA" inkscape:connector-curvature="0" fill="#0000FF" stroke="#000000" stroke-width="0.9706" stroke-linejoin="round" d="
	M621.193,207.759h0.226l0.226-0.075l0,0l-0.146-0.375L621.193,207.759L621.193,207.759L621.193,207.759z M621.794,183.336
	l-0.979,0.375l-1.503,0.677l-0.525,0.677l0.226,0.075l-1.803,11.197l0.677,1.804l1.054-4.66l1.951-6.087l0.901-3.983
	L621.794,183.336L621.794,183.336z M544.765,211.517l-0.522,0.751l-3.606,4.584l-2.854,2.256l-0.603,1.952l-4.356,5.711
	l-5.639,3.007l-0.522,0.602l1.352-0.227l12.854-2.629l5.107-1.053l4.283-1.202l1.203-0.226l0.076,0.15l19.388-3.607l19.164-4.885
	l30.063-8.567l0,0l-0.229-0.375l-0.075-0.226l0.527,0.525l0,0l0,0l0.601-0.15l-0.074-0.074l-0.524-2.555l0.375,0.074l1.203,2.254
	l0,0l0,0l0.226-0.074l0.15-0.075l-0.303-0.602l-3.08-4.735l-3.833,0.678l-1.729,1.428l-1.651-1.503l-5.639-1.879l-3.905-0.149
	l7.591-0.677l4.207,2.855l1.204-1.88l-3.384-4.282l2.403,0.149l-1.276-3.457l-3.006,0.149l-7.14-5.787h-0.902l10.071,4.96
	l-0.678-3.457l0.678-1.127l-5.111-1.953l-4.434-0.301l-2.183-1.955l-1.805,1.127l-0.677-5.185l0.753,0.149l-0.15-4.209l-0.147-0.149
	l-0.148,0.075l-0.148-0.075l-0.375-0.3l-0.228-0.227l-2.402-1.052l-2.479-1.804l-3.457-0.902l-0.229-0.075v0.075l-0.45,3.157
	l-6.987-3.005l0.148,4.357l-3.833,7.29l-2.328,2.556l-1.505,4.434l-4.584-1.578l-2.255,10.221l-1.804,3.457l-0.302,4.51l-1.354,2.18
	l-5.034,1.502l-4.134,3.23l-1.953,0.301l-1.881,1.654l-4.729-1.729l-0.827-2.33L544.765,211.517L544.765,211.517z"/>
<path id="WI" inkscape:connector-curvature="0" fill="#0000FF" stroke="#000000" stroke-width="0.9706" stroke-linejoin="round" d="
	M464.053,102.323l-1.879,2.33l-1.127,3.382l0.526,1.879L464.053,102.323z M406.263,86.392l-1.729,1.953l0.825,9.021l-4.813,4.358
	l-0.899,4.208l2.631,2.405l-0.753,10.371l2.778,2.104l1.808,0.15l5.711,3.457l3.604,3.757l4.584,2.33l1.055,5.787v0.375l0,0
	l2.181,2.63l-0.604,2.029l0.754,4.434l2.257,3.081l4.133,2.179l-0.076,0.375l0,0l16.384-1.879l6.087-0.751l10.146-1.428
	l-0.302-1.127v-3.533l-2.028-3.757l-0.525-4.735l0.979-5.26l-0.525-4.059l1.805-5.035l-0.678-0.827l0.15-4.66l0.978-3.532
	l-1.128-1.203l-2.179,0.752l-1.203,3.157l-2.854,1.653l0.899-3.983l2.56-3.382l0.146-1.502l0.076-0.075l-3.607-3.607V97.51
	l-4.058-3.307l-5.563-0.375l-5.712-1.503l-12.322-3.757l-2.402-1.353L424.6,87.44l-3.833-0.525l-1.272,0.75l0.521-5.485
	l-6.159,3.157l-7.519,1.202L406.263,86.392z"/>
<path id="WV" inkscape:connector-curvature="0" fill="#0000FF" stroke="#000000" stroke-width="0.9706" stroke-linejoin="round" d="
	M565.432,171.161l-10.672,2.631l-3.307-14.278l0,0l-0.15,0.075l-0.375,16.458l-2.402,3.606l-2.779,2.104l-0.526-0.603l-3.081,4.209
	l0.229,3.308l-1.879,0.3l-2.559,3.908l0.902,2.555l-1.127,2.48l-3.232,1.578l0,0v0.149l1.503,5.261l4.283,5.186l2.405,1.354h1.878
	l0.227,0.074l0.149,0.076l0.825,2.329l4.731,1.728l1.879-1.652l1.954-0.301l4.135-3.23l5.033-1.503l1.354-2.181l0.301-4.508
	l1.804-3.457l2.256-10.222l4.584,1.579l1.505-4.434l2.327-2.556l3.834-7.29l-0.148-4.359l6.988,3.008l0.447-3.157v-0.075l0,0
	l-2.179-3.758l-4.509-0.525l-2.63,2.029v1.503l-2.255,0.526l-3.311,2.33l-1.728,0.375l-3.457,4.885l-1.729-7.891L565.432,171.161
	L565.432,171.161z"/>
<path id="DE" inkscape:connector-curvature="0" fill="#0000FF" stroke="#000000" stroke-width="0.9706" stroke-linejoin="round" d="
	M609.619,158.762l0.302,1.127l6.238,17.811l7.139-2.104l-0.075-0.15h0.15l0.225,0.075l0,0l0.15-0.075l-0.15-0.3l-1.803-4.81
	l-8.793-8.342l0.376-5.788l0,0h-1.804l-1.354,1.051L609.619,158.762L609.619,158.762L609.619,158.762z"/>
<path id="MD" inkscape:connector-curvature="0" fill="#0000FF" stroke="#000000" stroke-width="0.9706" stroke-linejoin="round" d="
	M566.934,170.786l1.729,7.891l3.457-4.885l1.728-0.375l3.312-2.33l2.254-0.526v-1.503l2.63-2.029l4.509,0.525l2.183,3.758l0,0
	l0.226,0.075l3.457,0.901l2.479,1.804l2.402,1.052l0.228,0.225l0.302-0.601l1.275-0.075l1.054,0.602l-0.979,1.804v0.075
	l-1.429,4.357l4.66,3.008l4.658,0.225l3.081,1.428l-1.277-3.607l-3.981-1.353l-0.979-3.081l2.479,3.307l2.029,0.301l-1.805-1.803
	l-1.431-5.336l0.375-3.082l-1.575-3.381l1.65-1.354l1.203-4.354l-0.451,6.461l1.276,2.181l1.202-2.556l0.678,4.209l-1.277,3.082
	l3.686,1.354l-3.154,1.052l1.651,3.081l2.705,0.902l1.503-2.631l-0.148,3.683l2.557-0.075l1.652,1.879h0.073l0.526-0.677
	l1.502-0.677l0.979-0.375l-0.076-0.15l1.954-5.787v-0.226l-0.376-1.502V175.6l-7.14,2.104l-6.237-17.811l-0.303-1.127l-1.275,0.375
	l-5.336,1.652l-29.386,8.191l-5.336,1.428L566.934,170.786L566.934,170.786z"/>
<path id="NJ" inkscape:connector-curvature="0" fill="#0000FF" stroke="#000000" stroke-width="0.9706" stroke-linejoin="round" d="
	M625.101,132.609l-7.89-1.954l-1.354-0.375l-1.276-0.3l0,0l-3.156,6.988l1.354,1.654l-0.075,5.035l1.429,0.226l2.934,7.665
	l-0.149,0.225l-3.684,5.412l0.376,4.134l8.864,3.004l0.076,3.457l2.028-2.854l0.301-4.133l2.104-1.428l-0.825-3.081l1.577-3.683
	v-8.041l-0.526-2.63l-3.531,0.075l0.901-3.607L625.101,132.609L625.101,132.609L625.101,132.609z"/>
<path id="NY" inkscape:connector-curvature="0" fill="#0000FF" stroke="#000000" stroke-width="0.9706" stroke-linejoin="round" d="
	M635.246,135.013l3.758-3.307v-0.15L635.246,135.013z M642.762,124.042l-5.037,4.659l-7.735,3.307l-2.029,1.728l-0.15,1.653
	l-2.104,1.729l0.302,2.254l3.231-1.277l4.73-3.832l5.263-2.781l7.968-7.515l-5.639,4.284l-1.806,0.75L642.762,124.042
	L642.762,124.042z M625.627,135.315l1.503-0.375l0.826-3.382v-0.075l-1.354-1.277l1.953-2.405l-0.898-1.127l-2.854-11.047
	l-0.148-0.752l-0.375-0.226l-0.228-3.307l-0.226-3.607l-0.229-3.907v-0.226l-0.147,0.075l-3.761-12.325l-3.979-6.237l-1.128-7.44
	l-3.381-7.891l-0.451,0.226l-15.707,5.26l-3.155,3.382l-3.532,6.764l0.149,1.503l-4.659,7.064l2.855,0.977l0.823,5.335l-3.308,4.358
	l-9.921,6.012l-1.879-0.752l-7.364,1.052l-6.839,4.133l0.375,2.179l2.404,2.104l-1.354,6.613l-5.411,6.313l-0.072,0.075l0,0
	l0.523,2.255l3.983,0.977l22.847-6.237l22.996-6.914l4.208,3.232l0.826,1.878l4.886,2.104l0.147,0.301l1.275,0.3l1.354,0.375
	l7.89,1.954L625.627,135.315z"/>
<path id="PA" inkscape:connector-curvature="0" fill="#0000FF" stroke="#000000" stroke-width="0.9706" stroke-linejoin="round" d="
	M614.43,129.678l-4.885-2.104l-0.827-1.878l-4.208-3.232l-22.996,6.914l-22.847,6.237l-3.983-0.977l-0.521-2.254l-1.278,0.977
	l-2.026,1.428l-3.685,3.757l-0.451,0.375l2.105,9.244l0.375,1.653l1.88,8.117l0.374,1.578l0,0l3.307,14.279l10.671-2.63l1.506-0.375
	l1.354-0.375l5.336-1.428l29.384-8.191l5.337-1.653l1.276-0.376l0,0l0.601-1.503l1.354-1.051h1.805l0.228-0.677l2.932-3.307
	l0.301-0.526l0.229-0.15l-2.934-7.665l-1.428-0.226l0.075-5.035l-1.354-1.654l3.155-6.988l0,0L614.43,129.678L614.43,129.678z"/>
<path id="ME" inkscape:connector-curvature="0" fill="#0000FF" stroke="#000000" stroke-width="0.9706" stroke-linejoin="round" d="
	M632.916,56.783l10.896,25.551l0.147,0.525l4.734,5.787v-0.075l0.752-0.226l0.146-4.283l1.204-1.503l0.751-3.983l-0.677-0.677
	l1.276-3.908l4.356-2.029l2.855-3.457l1.053-6.012L665,62.192l-0.604-3.08l5.713-2.18l0.375-3.381l1.354,0.3l3.758-3.081
	l1.653-3.983l-3.832-3.833l-4.061-0.826l-1.502-3.082v-1.804l-2.479,0.751l-2.78-0.977v-3.081l-7.516-16.233l-5.485-2.855
	l-6.087,5.111l-1.651-0.3l-1.431-2.63l-1.954,0.751l-2.777,13.828l0.979,4.509l0.826,9.167l-2.18,7.064l1.504,1.127l-1.809,3.457
	l-1.951-0.3L632.916,56.783L632.916,56.783z"/>
<path id="MI" inkscape:connector-curvature="0" fill="#0000FF" stroke="#000000" stroke-width="0.9706" stroke-linejoin="round" d="
	M475.101,157.033l9.318-1.503l2.63-0.526l11.498-2.029l0.229,0.977l0.751-0.226l4.961-1.052l4.731-1.127l4.813-1.203l-0.075-0.225
	l2.479-4.885l-0.227-4.059l2.781-6.988l2.178,1.277l0.828-1.579l-0.229-6.012l-2.025-3.758l-3.008-7.966l-2.632-2.931l-1.353-0.375
	l-4.886,3.381l0.522,0.677l-2.555,4.81l-2.48-0.451l-0.751-5.035l1.055-0.375l2.18-5.035l0.226-8.868l-3.382-7.516l-7.516-1.277
	l-0.75-1.127l-6.989-2.03l-3.155,3.908l0.303,3.381l-2.403,3.006l0.524,4.66l-2.329,1.653v-5.862l-2.104,4.435l-2.479,3.908
	l-1.652,1.277l0.825,4.133l-1.056,4.283l0.604,5.336l-0.752,2.63l5.411,10.371l0.676,3.983l-0.676,7.365l-3.607,8.267
	L475.101,157.033L475.101,157.033z M424.824,87.218l2.4,1.353l12.325,3.757l5.712,1.503l5.563,0.375l4.059,3.307v5.111l3.607,3.607
	v-0.075l2.93-8.492l3.533-2.48l2.705-3.006l0.451,2.706l2.776-4.284l6.688-2.555l0.522-1.052l6.768,0.827l2.63,1.353l1.273-3.307
	l1.202,0.752l5.265-0.826l-1.277-2.105l-2.33-1.353l0.451-4.885l-4.584,2.555l-4.21-0.526l-1.354-3.231l0.452-1.052l-5.712,2.705
	l-3.683,0.227l-6.613,4.058l-0.752,1.503l-4.06-0.978l-2.557,1.127l-5.109-4.434l-11.349-3.458l-0.227-1.353l-7.289,6.989
	l-4.133,1.052l-5.862,4.434L424.824,87.218L424.824,87.218z M451.428,70.159l-8.793,4.359l2.934,2.855l1.128-2.855l3.007-3.683
	L451.428,70.159L451.428,70.159z"/>
<path id="AK" inkscape:connector-curvature="0" fill="#F7931E" stroke="#000000" stroke-width="0.9706" stroke-linejoin="round" d="
	M38.851,422.165l-2.63,2.33l1.879-0.15l2.18-1.729L38.851,422.165L38.851,422.165z M41.782,422.015h-0.826l1.428,0.375
	L41.782,422.015z M42.984,421.864l-0.3-0.148v0.824L42.984,421.864z M49.373,419.458l-1.879,0.375l-1.653,2.182L49.373,419.458
	L49.373,419.458z M140.53,411.192l2.179,3.307l4.885,3.082l-1.127-2.631l-4.66-3.982L140.53,411.192L140.53,411.192z
	 M138.652,409.013l0.375,3.457l0.751-0.752L138.652,409.013z M139.027,407.886l1.728,2.406l-0.226-1.58L139.027,407.886z
	 M133.691,408.487l-0.45,1.43l0.601-0.979L133.691,408.487L133.691,408.487z M133.841,407.36l3.007,4.959l-0.452-3.382
	L133.841,407.36L133.841,407.36z M83.19,410.142l-1.954,1.275l-2.405,3.156l1.202,1.274l5.562-4.133L83.19,410.142z
	 M132.038,403.827l-1.503,0.754l1.428,0.449L132.038,403.827L132.038,403.827z M134.066,402.55l3.081,4.51l-0.826-4.135
	L134.066,402.55L134.066,402.55z M84.467,407.435l-1.803,1.355l0.826,0.898l2.405-1.806L84.467,407.435L84.467,407.435z
	 M59.743,363.097L59.743,363.097L59.743,363.097L59.743,363.097z M81.086,341.452l-3.081,2.557l-1.879-0.527l-4.358,2.48
	l-0.827-0.527l-4.96,5.564l-5.035,1.127l0.451,2.705l2.255,3.08l4.208,4.059l-0.677,1.578l3.156,1.352l-1.653,0.306l-2.029-1.578
	l1.052,2.33l-1.353,0.821l-4.284-3.903l-3.382,0.603l-5.787,2.18l2.63,2.934l-0.375,1.803l1.728,2.104l5.712,2.256l4.133-2.104
	l0.677,1.578l-1.127,4.733h-3.457l-4.058,1.804l-0.226-1.277l-2.104,0.826l-0.977,2.182l-3.457,2.631v3.832l1.352,0.604
	l-1.052,3.229l4.509,3.908l2.855-1.203l-0.601,4.811l0.827,1.054l3.457,0.754l1.277,1.428l3.007,0.227l1.427,1.502l3.081-0.899
	l-1.426,1.947l-1.127,3.983l-9.168,5.938l-1.203,1.202l-1.728-0.677l-2.78,0.677l-3.983,2.63l6.237-1.805l0.902,1.354l8.042-2.631
	l0.225,1.053l3.157-3.156l6.613-4.584l0.527,0.301l5.787-4.584l-1.503-1.805l1.955-3.229l5.109-6.087l3.908-0.752l1.202,0.824
	l-4.734,1.354l-1.278,5.033l0.15,2.704l1.654-0.146l7.966-4.813l0.602-1.803l-0.678-2.781l2.405,0.604l1.729-1.129l4.959,3.009
	l-0.375,0.826l11.272,1.428l2.63-0.826l0.751,1.127l9.771,4.66l1.654-0.979l0.149-5.637l1.277,2.558l6.313,4.584l0.526,1.879
	l5.485,3.08l1.428,3.981l1.353-3.08l2.78,5.41l1.879-3.082l-1.503-3.832l-5.787-0.602l-8.868-8.492l-4.81-3.531l-3.683,3.605h-2.18
	l-5.035-3.309l-4.959-0.228l-7.063-44.563l-1.203-2.104l-2.855-1.729l-4.283,0.826l-3.308-0.677l-4.208-1.651l-4.434,0.299
	l-1.127-2.104l-3.532-0.523l-0.602-1.277l-1.578,1.807L81.086,341.452L81.086,341.452z"/>
<path fill="#F7931E" stroke="#000000" stroke-width="0.9706" stroke-linejoin="round" d="M442.005,403.538l-0.077,0.465h0.619
	l-0.154-0.389L442.005,403.538z M490.163,404.39l0.466,0.773l0.619,0.771l0.542,0.313l-0.154-0.619l1.006,0.076v-0.541l-1.083-0.465
	l-0.692,0.152L490.163,404.39z M491.867,409.499l-0.155-0.313l-0.541,0.154l-1.781-0.465l-1.161,0.078l-0.31,0.311l-1.084,0.154
	l-1.006,0.465l-0.774,0.154l0.39,0.771l0.771,0.078l0.929-0.311l0.774,0.078l0.696-0.154l-0.077-0.231l1.006-0.076l0.465-0.312
	l0.232,0.23l0.93-0.39L491.867,409.499z M449.206,401.524l0.077,1.471l-2.322,1.086l-0.078,0.695l0.774,1.006l1.007,0.389
	l0.388,2.09l-0.62,2.479l0.077,1.701l-0.542,1.237l0.774,0.854l0.151-0.697l1.938,0.387l0.619-0.694l1.549,0.153l1.548,0.931
	l3.175-0.931l0.392-0.694l2.242,0.772h2.321l2.017-0.621l2.092,1.011l1.161-0.468l2.318,0.854l0.696-0.619l0.93,0.619l2.017-0.854
	l0.693,0.312l0.619-0.543l0.854,0.078l1.237,0.153l1.313-0.93l1.007-1.24l0.464-0.074l0.854-1.856l0.771-1.162l1.938-0.387
	l0.31-0.695l0.468,0.465l0.229-0.694l-0.772-0.619l0.075-1.938l0.233-0.93l-1.239,0.465l-2.788-1.16l-2.32-0.772l-2.168-0.23
	l-2.479,0.23l-6.735-1.084l-1.16,0.543l-4.023-0.467l-1.781,0.311l-2.091-0.311l-2.322,0.153l-3.02-0.696l-2.015,0.077
	L449.206,401.524z">
<title>Puerto Rico</title>
</path>
<path fill="#F7931E" stroke="#000000" stroke-width="0.9706" stroke-linejoin="round" d="M510.968,411.276l0.621,1.705l-0.23,1.776
	l-0.931,0.775l0.153,0.541l1.161-0.773h2.479l0.465,0.232l1.553-0.543l1.701-0.312l1.313,0.232l2.168-0.854l0.929,0.392l2.095-0.543
	l2.168-1.084h0.929l1.781-0.773l0.771-0.854l1.316,0.075l0.771-0.692l-0.771-0.392l-1.78,0.392l-0.542-0.467l-1.472,0.153
	l-1.161-0.153l-1.702,0.075l-0.772,0.392l-0.542,0.387l-0.695-0.078l-1.316-0.93l-0.928-1.238l-0.312,0.078l-0.23,0.465l-1.78-0.695
	l-3.405,1.628l-1.16-0.154l-1.237-0.467l-0.931,0.389L510.968,411.276z M520.104,394.708l0.47,0.389l-0.155,0.463l-0.619,0.232
	l-1.314,0.154l-0.075,0.311l-0.468-0.465l-0.152,0.852l-0.774,0.392l0.078,0.852l1.238,0.854l0.466-0.541l1.007,0.151l0.619-0.387
	l0.772,0.465l0.853-0.151l-0.077,0.618l1.007,0.076l0.39,0.541l0.229-1.395l-0.077-0.619l-0.852-0.93l0.619,0.229l0.388-0.151
	l-0.311-0.773l0.618-0.078l0.389,1.084l0.542-0.389v0.854h0.542l0.542-0.229l0.153-0.543l-1.702-0.771l-0.313-0.389l-0.929-0.076
	l-0.313-0.389h-0.771l-0.079,0.23l-0.854-0.076l0.075-0.467L520.104,394.708z M510.349,392.54l0.542,0.773l-0.616,0.467
	l-0.696-1.316L510.349,392.54z M502.297,395.483l-0.465,0.692l1.007,0.619l1.938-0.619l1.008,0.543l-0.391,0.312l2.018,0.93
	l-0.543,1.008l0.466,0.152l0.388-0.928l1.082-0.232l-0.542-1.008l0.854,0.078l0.077,1.084l1.159,0.619h0.932l0.771,0.616
	l0.697-0.151l-0.155-0.773l0.933-0.153l0.692,0.467l0.542-0.392l-0.771-0.619l0.387-0.309l-1.626-1.316l-1.313-0.309v-0.389
	l-1.78-0.387l-1.472-1.084l1.007,1.16l-0.231,0.311l-0.387-0.076l-1.086-1.008l-0.075,0.541l-2.479-0.152l-0.23,0.619l-0.619-0.389
	l-0.312,0.465L502.297,395.483z">
<title>U.S. Virgin Islands</title>
</path>
<rect x="644.341" y="230.38" fill="#FAF067" stroke="#000000" stroke-width="0.9706" stroke-linejoin="round" width="13.453" height="13.453"/>
<text transform="matrix(1 0 0 1 663.3809 241.3037)" font-family="'MyriadPro-Regular'" font-size="12">Tier 1</text>
<rect x="644.341" y="253.827" fill="#0000FF" stroke="#000000" stroke-width="0.9706" stroke-linejoin="round" width="13.453" height="13.453"/>
<text transform="matrix(1 0 0 1 663.3809 264.751)" font-family="'MyriadPro-Regular'" font-size="12">Tier 2</text>
<rect x="644.341" y="277.276" fill="#39B54A" stroke="#000000" stroke-width="0.9706" stroke-linejoin="round" width="13.453" height="13.451"/>
<text transform="matrix(1 0 0 1 663.3809 288.1982)" font-family="'MyriadPro-Regular'" font-size="12">Tier 3</text>
<rect x="644.341" y="300.722" fill="#F7931E" stroke="#000000" stroke-width="0.9706" stroke-linejoin="round" width="13.453" height="13.453"/>
<text transform="matrix(1 0 0 1 663.3809 311.6455)" font-family="'MyriadPro-Regular'" font-size="12">Tier 4</text>
<polygon fill="#FADE40" stroke="#000000" stroke-width="0.5" stroke-miterlimit="10" points="387.875,346.607 390.719,352.371 
	397.079,353.293 392.477,357.78 393.563,364.113 387.875,361.124 382.187,364.113 383.273,357.78 378.671,353.293 385.031,352.371 
	"/>
<circle fill="#FADE40" stroke="#000000" stroke-width="0.5" stroke-miterlimit="10" cx="340.75" cy="358.022" r="4.537"/>
<circle fill="#FADE40" stroke="#000000" stroke-width="0.5" stroke-miterlimit="10" cx="364.25" cy="311.646" r="4.77"/>
<circle fill="#FADE40" stroke="#000000" stroke-width="0.5" stroke-miterlimit="10" cx="351.5" cy="348.411" r="4.504"/>
</svg>
